G04*
G04 #@! TF.GenerationSoftware,Altium Limited,Altium Designer,24.5.2 (23)*
G04*
G04 Layer_Color=16711935*
%FSLAX44Y44*%
%MOMM*%
G71*
G04*
G04 #@! TF.SameCoordinates,4C0C2288-5299-42BB-A2D6-562D11BE746C*
G04*
G04*
G04 #@! TF.FilePolarity,Positive*
G04*
G01*
G75*
%ADD12C,0.2000*%
G36*
X130541Y412426D02*
Y412421D01*
Y412404D01*
Y412382D01*
Y412349D01*
X130536Y412305D01*
Y412260D01*
X130525Y412155D01*
X130514Y412033D01*
X130492Y411906D01*
X130458Y411790D01*
X130420Y411679D01*
Y411673D01*
X130414Y411668D01*
X130398Y411635D01*
X130370Y411590D01*
X130331Y411530D01*
X130276Y411469D01*
X130215Y411402D01*
X130137Y411336D01*
X130049Y411280D01*
X130038Y411275D01*
X130004Y411258D01*
X129955Y411236D01*
X129883Y411214D01*
X129794Y411186D01*
X129694Y411164D01*
X129584Y411147D01*
X129462Y411142D01*
X129412D01*
X129379Y411147D01*
X129334Y411153D01*
X129290Y411158D01*
X129174Y411181D01*
X129052Y411214D01*
X128925Y411264D01*
X128858Y411297D01*
X128797Y411336D01*
X128742Y411380D01*
X128687Y411430D01*
X128681Y411435D01*
X128675Y411441D01*
X128664Y411463D01*
X128648Y411485D01*
X128626Y411513D01*
X128603Y411552D01*
X128581Y411596D01*
X128554Y411646D01*
X128532Y411701D01*
X128509Y411768D01*
X128487Y411834D01*
X128465Y411912D01*
X128454Y411995D01*
X128437Y412089D01*
X128432Y412183D01*
Y412288D01*
X128891Y412355D01*
Y412349D01*
Y412338D01*
Y412316D01*
X128897Y412282D01*
X128903Y412249D01*
Y412211D01*
X128919Y412116D01*
X128936Y412017D01*
X128969Y411917D01*
X129002Y411828D01*
X129024Y411790D01*
X129052Y411757D01*
X129058Y411751D01*
X129080Y411734D01*
X129113Y411707D01*
X129157Y411679D01*
X129218Y411646D01*
X129285Y411624D01*
X129368Y411601D01*
X129456Y411596D01*
X129489D01*
X129523Y411601D01*
X129572Y411607D01*
X129622Y411618D01*
X129678Y411629D01*
X129733Y411651D01*
X129789Y411679D01*
X129794Y411684D01*
X129811Y411696D01*
X129833Y411718D01*
X129866Y411740D01*
X129894Y411779D01*
X129927Y411817D01*
X129955Y411862D01*
X129977Y411917D01*
Y411923D01*
X129988Y411945D01*
X129993Y411983D01*
X130004Y412033D01*
X130015Y412100D01*
X130021Y412183D01*
X130032Y412282D01*
Y412399D01*
Y415040D01*
X130541D01*
Y412426D01*
D02*
G37*
G36*
X132950Y411208D02*
X132480D01*
Y414204D01*
X132474Y414198D01*
X132446Y414176D01*
X132413Y414143D01*
X132358Y414104D01*
X132297Y414054D01*
X132219Y413999D01*
X132131Y413938D01*
X132031Y413877D01*
X132025D01*
X132020Y413872D01*
X131987Y413850D01*
X131931Y413822D01*
X131865Y413789D01*
X131787Y413750D01*
X131704Y413711D01*
X131621Y413672D01*
X131538Y413639D01*
Y414093D01*
X131544D01*
X131555Y414104D01*
X131577Y414110D01*
X131605Y414126D01*
X131638Y414143D01*
X131677Y414165D01*
X131771Y414221D01*
X131882Y414282D01*
X131992Y414359D01*
X132109Y414448D01*
X132225Y414542D01*
X132230Y414547D01*
X132236Y414553D01*
X132253Y414569D01*
X132275Y414586D01*
X132324Y414641D01*
X132391Y414708D01*
X132457Y414785D01*
X132529Y414874D01*
X132590Y414963D01*
X132646Y415057D01*
X132950D01*
Y411208D01*
D02*
G37*
G36*
X403981Y204873D02*
X404031Y204867D01*
X404092Y204862D01*
X404153Y204856D01*
X404225Y204840D01*
X404374Y204806D01*
X404540Y204757D01*
X404623Y204723D01*
X404701Y204685D01*
X404779Y204635D01*
X404856Y204585D01*
X404861Y204580D01*
X404873Y204574D01*
X404895Y204557D01*
X404922Y204530D01*
X404950Y204502D01*
X404989Y204463D01*
X405028Y204419D01*
X405072Y204375D01*
X405116Y204319D01*
X405161Y204253D01*
X405210Y204186D01*
X405255Y204114D01*
X405293Y204031D01*
X405338Y203948D01*
X405371Y203860D01*
X405404Y203760D01*
X404906Y203644D01*
Y203649D01*
X404900Y203660D01*
X404889Y203682D01*
X404878Y203710D01*
X404867Y203743D01*
X404851Y203788D01*
X404806Y203876D01*
X404751Y203976D01*
X404684Y204076D01*
X404601Y204170D01*
X404513Y204253D01*
X404502Y204264D01*
X404468Y204286D01*
X404413Y204314D01*
X404341Y204352D01*
X404247Y204386D01*
X404142Y204419D01*
X404014Y204441D01*
X403876Y204447D01*
X403832D01*
X403804Y204441D01*
X403765D01*
X403721Y204436D01*
X403616Y204419D01*
X403499Y204397D01*
X403378Y204358D01*
X403250Y204303D01*
X403134Y204231D01*
X403128D01*
X403123Y204220D01*
X403084Y204192D01*
X403034Y204148D01*
X402973Y204081D01*
X402901Y203998D01*
X402835Y203904D01*
X402774Y203788D01*
X402719Y203660D01*
Y203655D01*
X402713Y203644D01*
X402708Y203627D01*
X402702Y203599D01*
X402691Y203566D01*
X402680Y203527D01*
X402663Y203433D01*
X402641Y203323D01*
X402619Y203201D01*
X402608Y203068D01*
X402602Y202924D01*
Y202918D01*
Y202902D01*
Y202874D01*
Y202841D01*
X402608Y202802D01*
Y202752D01*
X402613Y202697D01*
X402619Y202636D01*
X402636Y202503D01*
X402663Y202359D01*
X402696Y202215D01*
X402741Y202071D01*
Y202066D01*
X402746Y202055D01*
X402757Y202038D01*
X402769Y202010D01*
X402802Y201944D01*
X402851Y201866D01*
X402912Y201778D01*
X402990Y201684D01*
X403079Y201600D01*
X403184Y201523D01*
X403189D01*
X403200Y201517D01*
X403217Y201506D01*
X403239Y201495D01*
X403267Y201484D01*
X403300Y201468D01*
X403378Y201434D01*
X403477Y201401D01*
X403588Y201374D01*
X403710Y201351D01*
X403837Y201346D01*
X403876D01*
X403909Y201351D01*
X403948D01*
X403987Y201357D01*
X404086Y201379D01*
X404203Y201407D01*
X404319Y201451D01*
X404441Y201512D01*
X404502Y201545D01*
X404557Y201589D01*
X404562Y201595D01*
X404568Y201600D01*
X404585Y201617D01*
X404607Y201634D01*
X404629Y201661D01*
X404657Y201695D01*
X404690Y201728D01*
X404718Y201772D01*
X404751Y201822D01*
X404790Y201877D01*
X404823Y201933D01*
X404856Y201999D01*
X404884Y202071D01*
X404911Y202149D01*
X404939Y202232D01*
X404961Y202320D01*
X405471Y202193D01*
Y202187D01*
X405465Y202165D01*
X405454Y202132D01*
X405437Y202088D01*
X405421Y202038D01*
X405399Y201977D01*
X405371Y201911D01*
X405338Y201839D01*
X405260Y201684D01*
X405161Y201528D01*
X405100Y201451D01*
X405039Y201374D01*
X404972Y201307D01*
X404895Y201241D01*
X404889Y201235D01*
X404878Y201224D01*
X404851Y201213D01*
X404823Y201191D01*
X404779Y201163D01*
X404734Y201135D01*
X404673Y201108D01*
X404612Y201080D01*
X404540Y201047D01*
X404463Y201019D01*
X404380Y200991D01*
X404291Y200964D01*
X404197Y200942D01*
X404097Y200931D01*
X403992Y200919D01*
X403881Y200914D01*
X403821D01*
X403776Y200919D01*
X403726D01*
X403666Y200925D01*
X403599Y200936D01*
X403521Y200947D01*
X403361Y200975D01*
X403195Y201019D01*
X403029Y201080D01*
X402951Y201119D01*
X402874Y201163D01*
X402868Y201169D01*
X402857Y201174D01*
X402835Y201191D01*
X402813Y201213D01*
X402780Y201235D01*
X402741Y201268D01*
X402696Y201307D01*
X402652Y201351D01*
X402608Y201401D01*
X402558Y201451D01*
X402458Y201578D01*
X402364Y201728D01*
X402281Y201894D01*
Y201900D01*
X402270Y201916D01*
X402265Y201944D01*
X402248Y201977D01*
X402237Y202021D01*
X402220Y202077D01*
X402198Y202138D01*
X402182Y202204D01*
X402165Y202276D01*
X402143Y202359D01*
X402115Y202531D01*
X402093Y202724D01*
X402082Y202924D01*
Y202929D01*
Y202952D01*
Y202985D01*
X402087Y203023D01*
Y203079D01*
X402093Y203134D01*
X402099Y203206D01*
X402110Y203278D01*
X402137Y203439D01*
X402176Y203616D01*
X402231Y203793D01*
X402309Y203965D01*
X402314Y203970D01*
X402320Y203987D01*
X402331Y204009D01*
X402353Y204037D01*
X402375Y204076D01*
X402403Y204120D01*
X402475Y204220D01*
X402569Y204330D01*
X402680Y204441D01*
X402807Y204552D01*
X402957Y204646D01*
X402962Y204652D01*
X402979Y204657D01*
X403001Y204668D01*
X403029Y204685D01*
X403073Y204701D01*
X403117Y204718D01*
X403173Y204740D01*
X403234Y204762D01*
X403300Y204784D01*
X403372Y204806D01*
X403527Y204840D01*
X403704Y204867D01*
X403887Y204879D01*
X403942D01*
X403981Y204873D01*
D02*
G37*
G36*
X411395Y204391D02*
X411390Y204386D01*
X411379Y204375D01*
X411357Y204352D01*
X411334Y204319D01*
X411301Y204280D01*
X411257Y204236D01*
X411213Y204181D01*
X411163Y204114D01*
X411113Y204048D01*
X411052Y203970D01*
X410991Y203882D01*
X410930Y203793D01*
X410864Y203694D01*
X410797Y203588D01*
X410731Y203472D01*
X410664Y203356D01*
X410659Y203350D01*
X410648Y203328D01*
X410631Y203295D01*
X410604Y203245D01*
X410576Y203184D01*
X410543Y203118D01*
X410504Y203040D01*
X410465Y202952D01*
X410421Y202852D01*
X410371Y202752D01*
X410327Y202642D01*
X410283Y202525D01*
X410194Y202287D01*
X410111Y202032D01*
Y202027D01*
X410105Y202010D01*
X410100Y201983D01*
X410089Y201949D01*
X410078Y201905D01*
X410066Y201850D01*
X410050Y201789D01*
X410039Y201722D01*
X410022Y201645D01*
X410006Y201562D01*
X409978Y201385D01*
X409950Y201191D01*
X409934Y200980D01*
X409452D01*
Y200986D01*
Y201003D01*
Y201025D01*
X409457Y201058D01*
Y201102D01*
X409463Y201157D01*
X409468Y201218D01*
X409474Y201285D01*
X409485Y201362D01*
X409496Y201440D01*
X409513Y201534D01*
X409529Y201628D01*
X409546Y201728D01*
X409568Y201839D01*
X409623Y202066D01*
Y202071D01*
X409629Y202093D01*
X409640Y202127D01*
X409657Y202176D01*
X409673Y202232D01*
X409696Y202298D01*
X409718Y202376D01*
X409751Y202459D01*
X409784Y202553D01*
X409817Y202647D01*
X409900Y202857D01*
X410000Y203079D01*
X410111Y203300D01*
X410116Y203306D01*
X410127Y203328D01*
X410144Y203356D01*
X410166Y203400D01*
X410194Y203450D01*
X410233Y203511D01*
X410271Y203577D01*
X410316Y203649D01*
X410421Y203810D01*
X410532Y203976D01*
X410659Y204148D01*
X410792Y204308D01*
X408915D01*
Y204762D01*
X411395D01*
Y204391D01*
D02*
G37*
G36*
X407674Y200980D02*
X407204D01*
Y203976D01*
X407198Y203970D01*
X407171Y203948D01*
X407137Y203915D01*
X407082Y203876D01*
X407021Y203826D01*
X406944Y203771D01*
X406855Y203710D01*
X406755Y203649D01*
X406750D01*
X406744Y203644D01*
X406711Y203622D01*
X406656Y203594D01*
X406589Y203561D01*
X406512Y203522D01*
X406429Y203483D01*
X406345Y203444D01*
X406263Y203411D01*
Y203865D01*
X406268D01*
X406279Y203876D01*
X406301Y203882D01*
X406329Y203898D01*
X406362Y203915D01*
X406401Y203937D01*
X406495Y203993D01*
X406606Y204053D01*
X406716Y204131D01*
X406833Y204220D01*
X406949Y204314D01*
X406955Y204319D01*
X406960Y204325D01*
X406977Y204341D01*
X406999Y204358D01*
X407049Y204413D01*
X407115Y204480D01*
X407182Y204557D01*
X407254Y204646D01*
X407314Y204734D01*
X407370Y204829D01*
X407674D01*
Y200980D01*
D02*
G37*
G36*
X105598Y309161D02*
X105592D01*
X105570D01*
X105537D01*
X105492Y309167D01*
X105443Y309172D01*
X105387Y309183D01*
X105332Y309194D01*
X105271Y309216D01*
X105265D01*
X105260Y309222D01*
X105227Y309233D01*
X105177Y309255D01*
X105110Y309288D01*
X105033Y309333D01*
X104944Y309388D01*
X104856Y309449D01*
X104761Y309527D01*
X104756D01*
X104750Y309538D01*
X104717Y309565D01*
X104667Y309615D01*
X104595Y309687D01*
X104512Y309770D01*
X104413Y309875D01*
X104302Y310003D01*
X104186Y310141D01*
X104180Y310147D01*
X104164Y310169D01*
X104136Y310202D01*
X104103Y310241D01*
X104058Y310291D01*
X104009Y310352D01*
X103953Y310413D01*
X103892Y310484D01*
X103759Y310623D01*
X103626Y310761D01*
X103560Y310828D01*
X103493Y310889D01*
X103433Y310944D01*
X103372Y310988D01*
X103366D01*
X103361Y310999D01*
X103344Y311010D01*
X103322Y311022D01*
X103261Y311060D01*
X103189Y311105D01*
X103100Y311143D01*
X103006Y311182D01*
X102901Y311204D01*
X102801Y311215D01*
X102796D01*
X102790D01*
X102757Y311210D01*
X102702Y311204D01*
X102641Y311188D01*
X102563Y311166D01*
X102486Y311127D01*
X102408Y311077D01*
X102331Y311010D01*
X102320Y310999D01*
X102297Y310972D01*
X102270Y310933D01*
X102231Y310872D01*
X102198Y310795D01*
X102165Y310706D01*
X102142Y310601D01*
X102137Y310484D01*
Y310451D01*
X102142Y310429D01*
X102148Y310363D01*
X102165Y310285D01*
X102187Y310202D01*
X102226Y310108D01*
X102275Y310019D01*
X102342Y309936D01*
X102353Y309925D01*
X102381Y309903D01*
X102425Y309870D01*
X102491Y309837D01*
X102569Y309798D01*
X102669Y309765D01*
X102779Y309743D01*
X102907Y309731D01*
X102857Y309250D01*
X102851D01*
X102835Y309255D01*
X102807D01*
X102768Y309261D01*
X102724Y309272D01*
X102674Y309283D01*
X102613Y309300D01*
X102552Y309316D01*
X102419Y309360D01*
X102286Y309427D01*
X102220Y309466D01*
X102154Y309515D01*
X102093Y309565D01*
X102037Y309621D01*
X102032Y309626D01*
X102026Y309637D01*
X102009Y309654D01*
X101993Y309681D01*
X101971Y309715D01*
X101949Y309753D01*
X101921Y309798D01*
X101893Y309853D01*
X101866Y309914D01*
X101838Y309981D01*
X101816Y310053D01*
X101794Y310130D01*
X101777Y310213D01*
X101760Y310302D01*
X101755Y310396D01*
X101749Y310495D01*
Y310551D01*
X101755Y310590D01*
X101760Y310634D01*
X101766Y310689D01*
X101777Y310750D01*
X101788Y310811D01*
X101827Y310955D01*
X101882Y311099D01*
X101915Y311171D01*
X101954Y311243D01*
X102004Y311310D01*
X102059Y311370D01*
X102065Y311376D01*
X102070Y311387D01*
X102093Y311398D01*
X102115Y311420D01*
X102142Y311448D01*
X102181Y311476D01*
X102220Y311503D01*
X102270Y311537D01*
X102375Y311592D01*
X102508Y311647D01*
X102574Y311669D01*
X102652Y311681D01*
X102729Y311692D01*
X102812Y311697D01*
X102823D01*
X102851D01*
X102895Y311692D01*
X102956Y311686D01*
X103023Y311675D01*
X103100Y311653D01*
X103183Y311631D01*
X103266Y311597D01*
X103278Y311592D01*
X103305Y311581D01*
X103350Y311559D01*
X103410Y311525D01*
X103477Y311481D01*
X103560Y311426D01*
X103643Y311359D01*
X103737Y311282D01*
X103748Y311271D01*
X103781Y311243D01*
X103809Y311215D01*
X103837Y311188D01*
X103870Y311154D01*
X103914Y311110D01*
X103959Y311066D01*
X104009Y311010D01*
X104064Y310955D01*
X104125Y310889D01*
X104186Y310817D01*
X104258Y310739D01*
X104330Y310651D01*
X104407Y310562D01*
X104413Y310556D01*
X104424Y310545D01*
X104440Y310523D01*
X104462Y310495D01*
X104496Y310462D01*
X104529Y310424D01*
X104601Y310335D01*
X104684Y310241D01*
X104767Y310152D01*
X104839Y310075D01*
X104867Y310042D01*
X104894Y310014D01*
X104900Y310008D01*
X104917Y309992D01*
X104939Y309970D01*
X104972Y309942D01*
X105011Y309914D01*
X105049Y309881D01*
X105144Y309814D01*
Y311703D01*
X105598D01*
Y309161D01*
D02*
G37*
G36*
X104125Y308569D02*
X104180D01*
X104247Y308563D01*
X104313Y308557D01*
X104462Y308541D01*
X104618Y308519D01*
X104767Y308486D01*
X104839Y308463D01*
X104906Y308441D01*
X104911D01*
X104922Y308436D01*
X104939Y308425D01*
X104961Y308414D01*
X105022Y308380D01*
X105099Y308330D01*
X105188Y308264D01*
X105276Y308186D01*
X105371Y308087D01*
X105454Y307965D01*
Y307959D01*
X105465Y307948D01*
X105470Y307932D01*
X105487Y307904D01*
X105504Y307871D01*
X105520Y307827D01*
X105537Y307782D01*
X105559Y307727D01*
X105581Y307666D01*
X105598Y307600D01*
X105614Y307528D01*
X105631Y307444D01*
X105642Y307362D01*
X105653Y307273D01*
X105664Y307073D01*
Y307024D01*
X105659Y306985D01*
Y306941D01*
X105653Y306885D01*
X105647Y306824D01*
X105642Y306763D01*
X105620Y306625D01*
X105587Y306476D01*
X105542Y306332D01*
X105481Y306193D01*
Y306188D01*
X105470Y306176D01*
X105459Y306160D01*
X105448Y306138D01*
X105404Y306077D01*
X105343Y306005D01*
X105265Y305922D01*
X105177Y305844D01*
X105066Y305767D01*
X104944Y305706D01*
X104939D01*
X104928Y305700D01*
X104906Y305695D01*
X104878Y305684D01*
X104845Y305673D01*
X104800Y305662D01*
X104750Y305645D01*
X104690Y305634D01*
X104623Y305623D01*
X104551Y305606D01*
X104474Y305595D01*
X104390Y305584D01*
X104296Y305573D01*
X104197Y305567D01*
X104092Y305562D01*
X103981D01*
X101766D01*
Y306071D01*
X103981D01*
X103986D01*
X104003D01*
X104031D01*
X104064D01*
X104103Y306077D01*
X104152D01*
X104258Y306082D01*
X104379Y306093D01*
X104501Y306110D01*
X104618Y306132D01*
X104667Y306143D01*
X104717Y306160D01*
X104728Y306165D01*
X104756Y306176D01*
X104795Y306204D01*
X104850Y306237D01*
X104906Y306276D01*
X104966Y306332D01*
X105027Y306398D01*
X105077Y306476D01*
X105083Y306487D01*
X105099Y306514D01*
X105116Y306564D01*
X105138Y306631D01*
X105166Y306708D01*
X105182Y306808D01*
X105199Y306913D01*
X105204Y307029D01*
Y307085D01*
X105199Y307118D01*
Y307168D01*
X105193Y307218D01*
X105171Y307339D01*
X105144Y307472D01*
X105099Y307600D01*
X105038Y307721D01*
X105000Y307777D01*
X104955Y307827D01*
X104950Y307832D01*
X104944Y307838D01*
X104928Y307849D01*
X104906Y307865D01*
X104872Y307882D01*
X104839Y307904D01*
X104789Y307926D01*
X104739Y307948D01*
X104678Y307971D01*
X104607Y307987D01*
X104523Y308009D01*
X104435Y308026D01*
X104335Y308043D01*
X104230Y308054D01*
X104108Y308065D01*
X103981D01*
X101766D01*
Y308574D01*
X103981D01*
X103986D01*
X104009D01*
X104036D01*
X104075D01*
X104125Y308569D01*
D02*
G37*
G36*
X109849Y271675D02*
X109899Y271669D01*
X109960Y271664D01*
X110021Y271658D01*
X110093Y271642D01*
X110242Y271609D01*
X110408Y271559D01*
X110491Y271525D01*
X110569Y271487D01*
X110646Y271437D01*
X110724Y271387D01*
X110730Y271381D01*
X110741Y271376D01*
X110763Y271359D01*
X110791Y271332D01*
X110818Y271304D01*
X110857Y271265D01*
X110896Y271221D01*
X110940Y271177D01*
X110984Y271121D01*
X111029Y271055D01*
X111078Y270988D01*
X111123Y270916D01*
X111161Y270833D01*
X111206Y270750D01*
X111239Y270662D01*
X111272Y270562D01*
X110774Y270446D01*
Y270451D01*
X110768Y270462D01*
X110757Y270485D01*
X110746Y270512D01*
X110735Y270545D01*
X110718Y270590D01*
X110674Y270678D01*
X110619Y270778D01*
X110552Y270878D01*
X110469Y270972D01*
X110381Y271055D01*
X110370Y271066D01*
X110336Y271088D01*
X110281Y271116D01*
X110209Y271154D01*
X110115Y271188D01*
X110010Y271221D01*
X109882Y271243D01*
X109744Y271249D01*
X109700D01*
X109672Y271243D01*
X109633D01*
X109589Y271238D01*
X109484Y271221D01*
X109367Y271199D01*
X109246Y271160D01*
X109118Y271105D01*
X109002Y271033D01*
X108996D01*
X108991Y271022D01*
X108952Y270994D01*
X108902Y270950D01*
X108841Y270883D01*
X108769Y270800D01*
X108703Y270706D01*
X108642Y270590D01*
X108587Y270462D01*
Y270457D01*
X108581Y270446D01*
X108576Y270429D01*
X108570Y270401D01*
X108559Y270368D01*
X108548Y270329D01*
X108531Y270235D01*
X108509Y270125D01*
X108487Y270003D01*
X108476Y269870D01*
X108470Y269726D01*
Y269720D01*
Y269704D01*
Y269676D01*
Y269643D01*
X108476Y269604D01*
Y269554D01*
X108481Y269499D01*
X108487Y269438D01*
X108504Y269305D01*
X108531Y269161D01*
X108565Y269017D01*
X108609Y268873D01*
Y268868D01*
X108614Y268857D01*
X108625Y268840D01*
X108637Y268812D01*
X108670Y268746D01*
X108720Y268668D01*
X108780Y268580D01*
X108858Y268486D01*
X108947Y268403D01*
X109052Y268325D01*
X109057D01*
X109068Y268319D01*
X109085Y268308D01*
X109107Y268297D01*
X109135Y268286D01*
X109168Y268270D01*
X109246Y268236D01*
X109345Y268203D01*
X109456Y268176D01*
X109578Y268153D01*
X109705Y268148D01*
X109744D01*
X109777Y268153D01*
X109816D01*
X109855Y268159D01*
X109954Y268181D01*
X110071Y268209D01*
X110187Y268253D01*
X110309Y268314D01*
X110370Y268347D01*
X110425Y268391D01*
X110430Y268397D01*
X110436Y268403D01*
X110453Y268419D01*
X110475Y268436D01*
X110497Y268463D01*
X110525Y268497D01*
X110558Y268530D01*
X110586Y268574D01*
X110619Y268624D01*
X110658Y268679D01*
X110691Y268735D01*
X110724Y268801D01*
X110752Y268873D01*
X110779Y268951D01*
X110807Y269034D01*
X110829Y269122D01*
X111339Y268995D01*
Y268989D01*
X111333Y268967D01*
X111322Y268934D01*
X111305Y268890D01*
X111289Y268840D01*
X111267Y268779D01*
X111239Y268713D01*
X111206Y268641D01*
X111128Y268486D01*
X111029Y268330D01*
X110968Y268253D01*
X110907Y268176D01*
X110840Y268109D01*
X110763Y268043D01*
X110757Y268037D01*
X110746Y268026D01*
X110718Y268015D01*
X110691Y267993D01*
X110646Y267965D01*
X110602Y267937D01*
X110541Y267910D01*
X110480Y267882D01*
X110408Y267849D01*
X110331Y267821D01*
X110248Y267793D01*
X110159Y267766D01*
X110065Y267744D01*
X109965Y267733D01*
X109860Y267721D01*
X109749Y267716D01*
X109689D01*
X109644Y267721D01*
X109594D01*
X109534Y267727D01*
X109467Y267738D01*
X109389Y267749D01*
X109229Y267777D01*
X109063Y267821D01*
X108897Y267882D01*
X108819Y267921D01*
X108742Y267965D01*
X108736Y267971D01*
X108725Y267976D01*
X108703Y267993D01*
X108681Y268015D01*
X108648Y268037D01*
X108609Y268070D01*
X108565Y268109D01*
X108520Y268153D01*
X108476Y268203D01*
X108426Y268253D01*
X108326Y268380D01*
X108232Y268530D01*
X108149Y268696D01*
Y268701D01*
X108138Y268718D01*
X108133Y268746D01*
X108116Y268779D01*
X108105Y268823D01*
X108088Y268879D01*
X108066Y268940D01*
X108049Y269006D01*
X108033Y269078D01*
X108011Y269161D01*
X107983Y269333D01*
X107961Y269527D01*
X107950Y269726D01*
Y269731D01*
Y269754D01*
Y269787D01*
X107955Y269825D01*
Y269881D01*
X107961Y269936D01*
X107966Y270008D01*
X107978Y270080D01*
X108005Y270241D01*
X108044Y270418D01*
X108099Y270595D01*
X108177Y270767D01*
X108182Y270772D01*
X108188Y270789D01*
X108199Y270811D01*
X108221Y270839D01*
X108243Y270878D01*
X108271Y270922D01*
X108343Y271022D01*
X108437Y271132D01*
X108548Y271243D01*
X108675Y271354D01*
X108825Y271448D01*
X108830Y271453D01*
X108847Y271459D01*
X108869Y271470D01*
X108897Y271487D01*
X108941Y271503D01*
X108985Y271520D01*
X109041Y271542D01*
X109102Y271564D01*
X109168Y271586D01*
X109240Y271609D01*
X109395Y271642D01*
X109572Y271669D01*
X109755Y271681D01*
X109810D01*
X109849Y271675D01*
D02*
G37*
G36*
X114284Y271193D02*
X114279Y271188D01*
X114268Y271177D01*
X114246Y271154D01*
X114223Y271121D01*
X114190Y271082D01*
X114146Y271038D01*
X114102Y270983D01*
X114052Y270916D01*
X114002Y270850D01*
X113941Y270772D01*
X113880Y270684D01*
X113819Y270595D01*
X113753Y270495D01*
X113686Y270390D01*
X113620Y270274D01*
X113553Y270158D01*
X113548Y270152D01*
X113537Y270130D01*
X113520Y270097D01*
X113493Y270047D01*
X113465Y269986D01*
X113432Y269920D01*
X113393Y269842D01*
X113354Y269754D01*
X113310Y269654D01*
X113260Y269554D01*
X113216Y269443D01*
X113172Y269327D01*
X113083Y269089D01*
X113000Y268834D01*
Y268829D01*
X112994Y268812D01*
X112989Y268785D01*
X112978Y268751D01*
X112967Y268707D01*
X112956Y268652D01*
X112939Y268591D01*
X112928Y268524D01*
X112911Y268447D01*
X112895Y268364D01*
X112867Y268186D01*
X112839Y267993D01*
X112823Y267782D01*
X112341D01*
Y267788D01*
Y267805D01*
Y267827D01*
X112346Y267860D01*
Y267904D01*
X112352Y267959D01*
X112358Y268020D01*
X112363Y268087D01*
X112374Y268164D01*
X112385Y268242D01*
X112402Y268336D01*
X112418Y268430D01*
X112435Y268530D01*
X112457Y268641D01*
X112513Y268868D01*
Y268873D01*
X112518Y268895D01*
X112529Y268929D01*
X112546Y268978D01*
X112562Y269034D01*
X112584Y269100D01*
X112607Y269178D01*
X112640Y269261D01*
X112673Y269355D01*
X112706Y269449D01*
X112789Y269659D01*
X112889Y269881D01*
X113000Y270102D01*
X113005Y270108D01*
X113016Y270130D01*
X113033Y270158D01*
X113055Y270202D01*
X113083Y270252D01*
X113122Y270313D01*
X113160Y270379D01*
X113205Y270451D01*
X113310Y270612D01*
X113421Y270778D01*
X113548Y270950D01*
X113681Y271110D01*
X111804D01*
Y271564D01*
X114284D01*
Y271193D01*
D02*
G37*
G36*
X234018Y288792D02*
X234067D01*
X234128Y288787D01*
X234195Y288776D01*
X234272Y288765D01*
X234433Y288737D01*
X234599Y288693D01*
X234765Y288632D01*
X234843Y288593D01*
X234920Y288549D01*
X234926Y288543D01*
X234937Y288538D01*
X234959Y288521D01*
X234981Y288499D01*
X235014Y288477D01*
X235053Y288444D01*
X235097Y288405D01*
X235142Y288361D01*
X235186Y288311D01*
X235236Y288261D01*
X235336Y288134D01*
X235430Y287984D01*
X235513Y287818D01*
Y287812D01*
X235524Y287796D01*
X235529Y287768D01*
X235546Y287735D01*
X235557Y287691D01*
X235574Y287635D01*
X235596Y287574D01*
X235612Y287508D01*
X235629Y287436D01*
X235651Y287353D01*
X235679Y287181D01*
X235701Y286987D01*
X235712Y286788D01*
Y286782D01*
Y286760D01*
Y286727D01*
X235707Y286688D01*
Y286633D01*
X235701Y286578D01*
X235695Y286506D01*
X235684Y286434D01*
X235657Y286273D01*
X235618Y286096D01*
X235563Y285919D01*
X235485Y285747D01*
X235480Y285742D01*
X235474Y285725D01*
X235463Y285703D01*
X235441Y285675D01*
X235419Y285636D01*
X235391Y285592D01*
X235319Y285492D01*
X235225Y285382D01*
X235114Y285271D01*
X234987Y285160D01*
X234837Y285066D01*
X234832Y285061D01*
X234815Y285055D01*
X234793Y285044D01*
X234765Y285027D01*
X234721Y285011D01*
X234677Y284994D01*
X234621Y284972D01*
X234560Y284950D01*
X234494Y284928D01*
X234422Y284905D01*
X234267Y284872D01*
X234090Y284844D01*
X233907Y284833D01*
X233852D01*
X233813Y284839D01*
X233763Y284844D01*
X233702Y284850D01*
X233641Y284856D01*
X233569Y284872D01*
X233420Y284905D01*
X233254Y284955D01*
X233171Y284988D01*
X233093Y285027D01*
X233015Y285077D01*
X232938Y285127D01*
X232932Y285132D01*
X232921Y285138D01*
X232899Y285155D01*
X232871Y285182D01*
X232844Y285210D01*
X232805Y285249D01*
X232766Y285293D01*
X232722Y285337D01*
X232678Y285393D01*
X232633Y285459D01*
X232584Y285526D01*
X232539Y285598D01*
X232500Y285681D01*
X232456Y285764D01*
X232423Y285852D01*
X232390Y285952D01*
X232888Y286068D01*
Y286063D01*
X232894Y286052D01*
X232905Y286029D01*
X232916Y286002D01*
X232927Y285969D01*
X232943Y285924D01*
X232988Y285836D01*
X233043Y285736D01*
X233110Y285636D01*
X233193Y285542D01*
X233281Y285459D01*
X233292Y285448D01*
X233326Y285426D01*
X233381Y285398D01*
X233453Y285359D01*
X233547Y285326D01*
X233652Y285293D01*
X233780Y285271D01*
X233918Y285265D01*
X233962D01*
X233990Y285271D01*
X234029D01*
X234073Y285276D01*
X234178Y285293D01*
X234295Y285315D01*
X234416Y285354D01*
X234544Y285409D01*
X234660Y285481D01*
X234666D01*
X234671Y285492D01*
X234710Y285520D01*
X234760Y285564D01*
X234821Y285631D01*
X234893Y285714D01*
X234959Y285808D01*
X235020Y285924D01*
X235075Y286052D01*
Y286057D01*
X235081Y286068D01*
X235086Y286085D01*
X235092Y286112D01*
X235103Y286146D01*
X235114Y286185D01*
X235131Y286279D01*
X235153Y286389D01*
X235175Y286511D01*
X235186Y286644D01*
X235192Y286788D01*
Y286794D01*
Y286810D01*
Y286838D01*
Y286871D01*
X235186Y286910D01*
Y286960D01*
X235180Y287015D01*
X235175Y287076D01*
X235158Y287209D01*
X235131Y287353D01*
X235097Y287497D01*
X235053Y287641D01*
Y287646D01*
X235048Y287657D01*
X235037Y287674D01*
X235026Y287702D01*
X234992Y287768D01*
X234942Y287846D01*
X234881Y287934D01*
X234804Y288028D01*
X234715Y288111D01*
X234610Y288189D01*
X234605D01*
X234594Y288195D01*
X234577Y288206D01*
X234555Y288217D01*
X234527Y288228D01*
X234494Y288244D01*
X234416Y288278D01*
X234317Y288311D01*
X234206Y288339D01*
X234084Y288361D01*
X233957Y288366D01*
X233918D01*
X233885Y288361D01*
X233846D01*
X233807Y288355D01*
X233708Y288333D01*
X233591Y288305D01*
X233475Y288261D01*
X233353Y288200D01*
X233292Y288167D01*
X233237Y288123D01*
X233231Y288117D01*
X233226Y288111D01*
X233209Y288095D01*
X233187Y288078D01*
X233165Y288051D01*
X233137Y288017D01*
X233104Y287984D01*
X233076Y287940D01*
X233043Y287890D01*
X233004Y287835D01*
X232971Y287779D01*
X232938Y287713D01*
X232910Y287641D01*
X232883Y287563D01*
X232855Y287480D01*
X232833Y287392D01*
X232323Y287519D01*
Y287525D01*
X232329Y287547D01*
X232340Y287580D01*
X232356Y287624D01*
X232373Y287674D01*
X232395Y287735D01*
X232423Y287801D01*
X232456Y287873D01*
X232534Y288028D01*
X232633Y288183D01*
X232694Y288261D01*
X232755Y288339D01*
X232822Y288405D01*
X232899Y288471D01*
X232905Y288477D01*
X232916Y288488D01*
X232943Y288499D01*
X232971Y288521D01*
X233015Y288549D01*
X233060Y288577D01*
X233121Y288604D01*
X233182Y288632D01*
X233254Y288665D01*
X233331Y288693D01*
X233414Y288721D01*
X233503Y288748D01*
X233597Y288770D01*
X233696Y288782D01*
X233802Y288792D01*
X233913Y288798D01*
X233973D01*
X234018Y288792D01*
D02*
G37*
G36*
X230590Y285736D02*
X230596Y285742D01*
X230623Y285764D01*
X230657Y285797D01*
X230712Y285836D01*
X230773Y285886D01*
X230850Y285941D01*
X230939Y286002D01*
X231039Y286063D01*
X231044D01*
X231050Y286068D01*
X231083Y286090D01*
X231138Y286118D01*
X231205Y286151D01*
X231282Y286190D01*
X231365Y286229D01*
X231448Y286268D01*
X231532Y286301D01*
Y285847D01*
X231526D01*
X231515Y285836D01*
X231493Y285830D01*
X231465Y285814D01*
X231432Y285797D01*
X231393Y285775D01*
X231299Y285719D01*
X231188Y285658D01*
X231077Y285581D01*
X230961Y285492D01*
X230845Y285398D01*
X230839Y285393D01*
X230834Y285387D01*
X230817Y285371D01*
X230795Y285354D01*
X230745Y285299D01*
X230679Y285232D01*
X230612Y285155D01*
X230540Y285066D01*
X230479Y284977D01*
X230424Y284883D01*
X230119D01*
Y288732D01*
X230590D01*
Y285736D01*
D02*
G37*
G36*
X226450Y332702D02*
X223454D01*
X223460Y332696D01*
X223482Y332668D01*
X223515Y332635D01*
X223554Y332580D01*
X223603Y332519D01*
X223659Y332441D01*
X223720Y332353D01*
X223781Y332253D01*
Y332248D01*
X223786Y332242D01*
X223808Y332209D01*
X223836Y332153D01*
X223869Y332087D01*
X223908Y332009D01*
X223947Y331926D01*
X223986Y331843D01*
X224019Y331760D01*
X223565D01*
Y331766D01*
X223554Y331777D01*
X223548Y331799D01*
X223532Y331827D01*
X223515Y331860D01*
X223493Y331899D01*
X223437Y331993D01*
X223377Y332104D01*
X223299Y332214D01*
X223210Y332331D01*
X223116Y332447D01*
X223111Y332452D01*
X223105Y332458D01*
X223089Y332475D01*
X223072Y332497D01*
X223017Y332547D01*
X222950Y332613D01*
X222873Y332679D01*
X222784Y332751D01*
X222695Y332812D01*
X222601Y332868D01*
Y333172D01*
X226450D01*
Y332702D01*
D02*
G37*
G36*
X224977Y330741D02*
X225032D01*
X225099Y330736D01*
X225165Y330730D01*
X225315Y330714D01*
X225470Y330692D01*
X225619Y330658D01*
X225691Y330636D01*
X225758Y330614D01*
X225763D01*
X225774Y330608D01*
X225791Y330597D01*
X225813Y330586D01*
X225874Y330553D01*
X225951Y330503D01*
X226040Y330437D01*
X226129Y330359D01*
X226223Y330260D01*
X226306Y330138D01*
Y330132D01*
X226317Y330121D01*
X226322Y330105D01*
X226339Y330077D01*
X226355Y330044D01*
X226372Y329999D01*
X226389Y329955D01*
X226411Y329900D01*
X226433Y329839D01*
X226450Y329772D01*
X226466Y329700D01*
X226483Y329617D01*
X226494Y329534D01*
X226505Y329446D01*
X226516Y329246D01*
Y329197D01*
X226511Y329158D01*
Y329114D01*
X226505Y329058D01*
X226500Y328997D01*
X226494Y328936D01*
X226472Y328798D01*
X226439Y328648D01*
X226394Y328504D01*
X226333Y328366D01*
Y328360D01*
X226322Y328349D01*
X226311Y328333D01*
X226300Y328311D01*
X226256Y328250D01*
X226195Y328178D01*
X226117Y328095D01*
X226029Y328017D01*
X225918Y327940D01*
X225796Y327879D01*
X225791D01*
X225780Y327873D01*
X225758Y327868D01*
X225730Y327856D01*
X225697Y327845D01*
X225652Y327834D01*
X225602Y327818D01*
X225542Y327807D01*
X225475Y327796D01*
X225403Y327779D01*
X225326Y327768D01*
X225243Y327757D01*
X225148Y327746D01*
X225049Y327740D01*
X224944Y327735D01*
X224833D01*
X222618D01*
Y328244D01*
X224833D01*
X224838D01*
X224855D01*
X224883D01*
X224916D01*
X224955Y328250D01*
X225005D01*
X225110Y328255D01*
X225231Y328266D01*
X225353Y328283D01*
X225470Y328305D01*
X225519Y328316D01*
X225569Y328333D01*
X225580Y328338D01*
X225608Y328349D01*
X225647Y328377D01*
X225702Y328410D01*
X225758Y328449D01*
X225818Y328504D01*
X225879Y328571D01*
X225929Y328648D01*
X225935Y328659D01*
X225951Y328687D01*
X225968Y328737D01*
X225990Y328803D01*
X226018Y328881D01*
X226034Y328981D01*
X226051Y329086D01*
X226056Y329202D01*
Y329258D01*
X226051Y329291D01*
Y329341D01*
X226045Y329390D01*
X226023Y329512D01*
X225996Y329645D01*
X225951Y329772D01*
X225890Y329894D01*
X225852Y329950D01*
X225807Y329999D01*
X225802Y330005D01*
X225796Y330010D01*
X225780Y330022D01*
X225758Y330038D01*
X225724Y330055D01*
X225691Y330077D01*
X225641Y330099D01*
X225591Y330121D01*
X225530Y330143D01*
X225459Y330160D01*
X225375Y330182D01*
X225287Y330199D01*
X225187Y330215D01*
X225082Y330227D01*
X224960Y330238D01*
X224833D01*
X222618D01*
Y330747D01*
X224833D01*
X224838D01*
X224860D01*
X224888D01*
X224927D01*
X224977Y330741D01*
D02*
G37*
G36*
X294464Y427243D02*
Y427237D01*
Y427220D01*
Y427198D01*
Y427165D01*
X294458Y427121D01*
Y427076D01*
X294447Y426971D01*
X294436Y426849D01*
X294414Y426722D01*
X294380Y426606D01*
X294342Y426495D01*
Y426489D01*
X294336Y426484D01*
X294320Y426451D01*
X294292Y426406D01*
X294253Y426345D01*
X294198Y426285D01*
X294137Y426218D01*
X294059Y426152D01*
X293971Y426096D01*
X293960Y426091D01*
X293926Y426074D01*
X293877Y426052D01*
X293805Y426030D01*
X293716Y426002D01*
X293616Y425980D01*
X293506Y425963D01*
X293384Y425958D01*
X293334D01*
X293301Y425963D01*
X293256Y425969D01*
X293212Y425975D01*
X293096Y425997D01*
X292974Y426030D01*
X292847Y426080D01*
X292780Y426113D01*
X292719Y426152D01*
X292664Y426196D01*
X292609Y426246D01*
X292603Y426251D01*
X292598Y426257D01*
X292586Y426279D01*
X292570Y426301D01*
X292548Y426329D01*
X292526Y426368D01*
X292503Y426412D01*
X292476Y426462D01*
X292453Y426517D01*
X292431Y426584D01*
X292409Y426650D01*
X292387Y426727D01*
X292376Y426811D01*
X292359Y426905D01*
X292354Y426999D01*
Y427104D01*
X292813Y427170D01*
Y427165D01*
Y427154D01*
Y427132D01*
X292819Y427099D01*
X292824Y427065D01*
Y427027D01*
X292841Y426932D01*
X292858Y426833D01*
X292891Y426733D01*
X292924Y426645D01*
X292946Y426606D01*
X292974Y426572D01*
X292980Y426567D01*
X293002Y426550D01*
X293035Y426523D01*
X293079Y426495D01*
X293140Y426462D01*
X293207Y426440D01*
X293290Y426418D01*
X293378Y426412D01*
X293412D01*
X293445Y426418D01*
X293494Y426423D01*
X293544Y426434D01*
X293600Y426445D01*
X293655Y426467D01*
X293710Y426495D01*
X293716Y426501D01*
X293733Y426512D01*
X293755Y426534D01*
X293788Y426556D01*
X293816Y426595D01*
X293849Y426633D01*
X293877Y426678D01*
X293899Y426733D01*
Y426739D01*
X293910Y426761D01*
X293915Y426800D01*
X293926Y426849D01*
X293937Y426916D01*
X293943Y426999D01*
X293954Y427099D01*
Y427215D01*
Y429856D01*
X294464D01*
Y427243D01*
D02*
G37*
G36*
X296462Y429867D02*
X296507Y429862D01*
X296562Y429856D01*
X296623Y429845D01*
X296684Y429834D01*
X296828Y429795D01*
X296972Y429740D01*
X297044Y429707D01*
X297116Y429668D01*
X297182Y429618D01*
X297243Y429563D01*
X297249Y429557D01*
X297260Y429552D01*
X297271Y429529D01*
X297293Y429507D01*
X297321Y429479D01*
X297348Y429441D01*
X297376Y429402D01*
X297409Y429352D01*
X297465Y429247D01*
X297520Y429114D01*
X297542Y429048D01*
X297553Y428970D01*
X297564Y428893D01*
X297570Y428810D01*
Y428798D01*
Y428771D01*
X297564Y428727D01*
X297559Y428666D01*
X297548Y428599D01*
X297526Y428522D01*
X297504Y428438D01*
X297470Y428355D01*
X297465Y428344D01*
X297454Y428317D01*
X297432Y428272D01*
X297398Y428212D01*
X297354Y428145D01*
X297299Y428062D01*
X297232Y427979D01*
X297155Y427885D01*
X297144Y427874D01*
X297116Y427840D01*
X297088Y427813D01*
X297061Y427785D01*
X297027Y427752D01*
X296983Y427708D01*
X296939Y427663D01*
X296883Y427613D01*
X296828Y427558D01*
X296761Y427497D01*
X296689Y427436D01*
X296612Y427364D01*
X296523Y427292D01*
X296435Y427215D01*
X296429Y427209D01*
X296418Y427198D01*
X296396Y427182D01*
X296368Y427159D01*
X296335Y427126D01*
X296296Y427093D01*
X296208Y427021D01*
X296114Y426938D01*
X296025Y426855D01*
X295947Y426783D01*
X295914Y426755D01*
X295887Y426727D01*
X295881Y426722D01*
X295865Y426705D01*
X295842Y426683D01*
X295815Y426650D01*
X295787Y426611D01*
X295754Y426572D01*
X295687Y426478D01*
X297575D01*
Y426024D01*
X295034D01*
Y426030D01*
Y426052D01*
Y426085D01*
X295039Y426129D01*
X295045Y426179D01*
X295056Y426235D01*
X295067Y426290D01*
X295089Y426351D01*
Y426357D01*
X295095Y426362D01*
X295106Y426395D01*
X295128Y426445D01*
X295161Y426512D01*
X295205Y426589D01*
X295261Y426678D01*
X295322Y426766D01*
X295399Y426860D01*
Y426866D01*
X295410Y426871D01*
X295438Y426905D01*
X295488Y426955D01*
X295560Y427027D01*
X295643Y427110D01*
X295748Y427209D01*
X295875Y427320D01*
X296014Y427436D01*
X296019Y427442D01*
X296042Y427458D01*
X296075Y427486D01*
X296114Y427519D01*
X296164Y427564D01*
X296224Y427613D01*
X296285Y427669D01*
X296357Y427730D01*
X296496Y427863D01*
X296634Y427996D01*
X296701Y428062D01*
X296761Y428129D01*
X296817Y428189D01*
X296861Y428250D01*
Y428256D01*
X296872Y428261D01*
X296883Y428278D01*
X296894Y428300D01*
X296933Y428361D01*
X296977Y428433D01*
X297016Y428522D01*
X297055Y428616D01*
X297077Y428721D01*
X297088Y428821D01*
Y428826D01*
Y428832D01*
X297083Y428865D01*
X297077Y428920D01*
X297061Y428981D01*
X297038Y429059D01*
X297000Y429136D01*
X296950Y429214D01*
X296883Y429291D01*
X296872Y429302D01*
X296845Y429324D01*
X296806Y429352D01*
X296745Y429391D01*
X296667Y429424D01*
X296579Y429457D01*
X296474Y429479D01*
X296357Y429485D01*
X296324D01*
X296302Y429479D01*
X296236Y429474D01*
X296158Y429457D01*
X296075Y429435D01*
X295981Y429397D01*
X295892Y429347D01*
X295809Y429280D01*
X295798Y429269D01*
X295776Y429241D01*
X295743Y429197D01*
X295709Y429131D01*
X295671Y429053D01*
X295637Y428954D01*
X295615Y428843D01*
X295604Y428715D01*
X295123Y428765D01*
Y428771D01*
X295128Y428787D01*
Y428815D01*
X295133Y428854D01*
X295145Y428898D01*
X295156Y428948D01*
X295172Y429009D01*
X295189Y429070D01*
X295233Y429203D01*
X295300Y429336D01*
X295338Y429402D01*
X295388Y429468D01*
X295438Y429529D01*
X295494Y429585D01*
X295499Y429590D01*
X295510Y429596D01*
X295527Y429612D01*
X295554Y429629D01*
X295588Y429651D01*
X295626Y429673D01*
X295671Y429701D01*
X295726Y429729D01*
X295787Y429756D01*
X295853Y429784D01*
X295925Y429806D01*
X296003Y429828D01*
X296086Y429845D01*
X296175Y429862D01*
X296269Y429867D01*
X296368Y429873D01*
X296424D01*
X296462Y429867D01*
D02*
G37*
G36*
X390622Y410204D02*
Y410199D01*
Y410182D01*
Y410160D01*
Y410127D01*
X390616Y410082D01*
Y410038D01*
X390605Y409933D01*
X390594Y409811D01*
X390572Y409684D01*
X390539Y409567D01*
X390500Y409457D01*
Y409451D01*
X390494Y409446D01*
X390478Y409412D01*
X390450Y409368D01*
X390411Y409307D01*
X390356Y409246D01*
X390295Y409180D01*
X390218Y409113D01*
X390129Y409058D01*
X390118Y409052D01*
X390085Y409036D01*
X390035Y409014D01*
X389963Y408992D01*
X389874Y408964D01*
X389775Y408942D01*
X389664Y408925D01*
X389542Y408920D01*
X389492D01*
X389459Y408925D01*
X389415Y408931D01*
X389370Y408936D01*
X389254Y408958D01*
X389132Y408992D01*
X389005Y409041D01*
X388938Y409075D01*
X388877Y409113D01*
X388822Y409158D01*
X388767Y409207D01*
X388761Y409213D01*
X388756Y409219D01*
X388745Y409241D01*
X388728Y409263D01*
X388706Y409291D01*
X388684Y409329D01*
X388661Y409374D01*
X388634Y409423D01*
X388612Y409479D01*
X388590Y409545D01*
X388567Y409612D01*
X388545Y409689D01*
X388534Y409772D01*
X388517Y409866D01*
X388512Y409961D01*
Y410066D01*
X388972Y410132D01*
Y410127D01*
Y410116D01*
Y410093D01*
X388977Y410060D01*
X388983Y410027D01*
Y409988D01*
X388999Y409894D01*
X389016Y409794D01*
X389049Y409695D01*
X389082Y409606D01*
X389104Y409567D01*
X389132Y409534D01*
X389138Y409529D01*
X389160Y409512D01*
X389193Y409484D01*
X389237Y409457D01*
X389298Y409423D01*
X389365Y409401D01*
X389448Y409379D01*
X389536Y409374D01*
X389570D01*
X389603Y409379D01*
X389653Y409385D01*
X389702Y409396D01*
X389758Y409407D01*
X389813Y409429D01*
X389869Y409457D01*
X389874Y409462D01*
X389891Y409473D01*
X389913Y409495D01*
X389946Y409518D01*
X389974Y409556D01*
X390007Y409595D01*
X390035Y409639D01*
X390057Y409695D01*
Y409700D01*
X390068Y409722D01*
X390074Y409761D01*
X390085Y409811D01*
X390096Y409878D01*
X390101Y409961D01*
X390112Y410060D01*
Y410177D01*
Y412818D01*
X390622D01*
Y410204D01*
D02*
G37*
G36*
X393772Y412397D02*
X393767Y412391D01*
X393756Y412380D01*
X393734Y412358D01*
X393711Y412325D01*
X393678Y412286D01*
X393634Y412242D01*
X393590Y412187D01*
X393540Y412120D01*
X393490Y412054D01*
X393429Y411976D01*
X393368Y411888D01*
X393307Y411799D01*
X393241Y411699D01*
X393174Y411594D01*
X393108Y411478D01*
X393041Y411362D01*
X393036Y411356D01*
X393025Y411334D01*
X393008Y411301D01*
X392980Y411251D01*
X392953Y411190D01*
X392920Y411123D01*
X392881Y411046D01*
X392842Y410957D01*
X392798Y410858D01*
X392748Y410758D01*
X392704Y410647D01*
X392659Y410531D01*
X392571Y410293D01*
X392488Y410038D01*
Y410033D01*
X392482Y410016D01*
X392477Y409988D01*
X392466Y409955D01*
X392454Y409911D01*
X392443Y409855D01*
X392427Y409794D01*
X392416Y409728D01*
X392399Y409650D01*
X392383Y409567D01*
X392355Y409390D01*
X392327Y409196D01*
X392310Y408986D01*
X391829D01*
Y408992D01*
Y409008D01*
Y409030D01*
X391834Y409063D01*
Y409108D01*
X391840Y409163D01*
X391845Y409224D01*
X391851Y409291D01*
X391862Y409368D01*
X391873Y409446D01*
X391890Y409540D01*
X391906Y409634D01*
X391923Y409734D01*
X391945Y409844D01*
X392000Y410071D01*
Y410077D01*
X392006Y410099D01*
X392017Y410132D01*
X392034Y410182D01*
X392050Y410237D01*
X392072Y410304D01*
X392095Y410381D01*
X392128Y410464D01*
X392161Y410559D01*
X392194Y410653D01*
X392277Y410863D01*
X392377Y411085D01*
X392488Y411306D01*
X392493Y411312D01*
X392504Y411334D01*
X392521Y411362D01*
X392543Y411406D01*
X392571Y411456D01*
X392609Y411516D01*
X392648Y411583D01*
X392693Y411655D01*
X392798Y411815D01*
X392909Y411982D01*
X393036Y412153D01*
X393169Y412314D01*
X391292D01*
Y412768D01*
X393772D01*
Y412397D01*
D02*
G37*
G36*
X107759Y40315D02*
X107797D01*
X107842Y40310D01*
X107947Y40287D01*
X108063Y40260D01*
X108185Y40216D01*
X108307Y40149D01*
X108368Y40110D01*
X108423Y40066D01*
X108428Y40060D01*
X108434Y40055D01*
X108451Y40038D01*
X108467Y40022D01*
X108495Y39994D01*
X108517Y39961D01*
X108578Y39883D01*
X108639Y39784D01*
X108694Y39662D01*
X108744Y39523D01*
X108777Y39368D01*
X108307Y39330D01*
Y39335D01*
X108301Y39341D01*
X108296Y39374D01*
X108279Y39424D01*
X108257Y39485D01*
X108235Y39551D01*
X108201Y39617D01*
X108163Y39678D01*
X108124Y39728D01*
X108113Y39739D01*
X108091Y39761D01*
X108052Y39795D01*
X107997Y39833D01*
X107925Y39867D01*
X107847Y39900D01*
X107753Y39922D01*
X107653Y39933D01*
X107614D01*
X107570Y39927D01*
X107520Y39917D01*
X107454Y39900D01*
X107388Y39878D01*
X107321Y39850D01*
X107255Y39806D01*
X107243Y39800D01*
X107216Y39778D01*
X107177Y39739D01*
X107127Y39684D01*
X107072Y39617D01*
X107011Y39540D01*
X106956Y39440D01*
X106900Y39330D01*
Y39324D01*
X106895Y39313D01*
X106889Y39296D01*
X106878Y39274D01*
X106873Y39241D01*
X106861Y39202D01*
X106850Y39158D01*
X106839Y39102D01*
X106823Y39042D01*
X106812Y38975D01*
X106800Y38903D01*
X106795Y38826D01*
X106784Y38737D01*
X106778Y38648D01*
X106773Y38549D01*
Y38449D01*
X106778Y38455D01*
X106800Y38488D01*
X106839Y38532D01*
X106889Y38588D01*
X106945Y38654D01*
X107016Y38715D01*
X107094Y38776D01*
X107183Y38831D01*
X107188D01*
X107194Y38837D01*
X107227Y38853D01*
X107277Y38870D01*
X107343Y38898D01*
X107421Y38920D01*
X107509Y38936D01*
X107603Y38953D01*
X107703Y38958D01*
X107747D01*
X107781Y38953D01*
X107825Y38947D01*
X107869Y38942D01*
X107925Y38931D01*
X107980Y38914D01*
X108107Y38876D01*
X108174Y38848D01*
X108240Y38809D01*
X108307Y38770D01*
X108379Y38726D01*
X108445Y38671D01*
X108506Y38610D01*
X108511Y38604D01*
X108523Y38593D01*
X108539Y38577D01*
X108556Y38549D01*
X108583Y38510D01*
X108611Y38471D01*
X108639Y38421D01*
X108672Y38366D01*
X108705Y38305D01*
X108733Y38239D01*
X108761Y38161D01*
X108788Y38084D01*
X108805Y38001D01*
X108822Y37906D01*
X108833Y37812D01*
X108838Y37713D01*
Y37707D01*
Y37696D01*
Y37679D01*
Y37652D01*
X108833Y37619D01*
Y37585D01*
X108816Y37497D01*
X108799Y37392D01*
X108772Y37281D01*
X108733Y37159D01*
X108678Y37043D01*
Y37037D01*
X108672Y37032D01*
X108661Y37015D01*
X108650Y36993D01*
X108617Y36937D01*
X108567Y36865D01*
X108506Y36788D01*
X108434Y36710D01*
X108345Y36633D01*
X108251Y36566D01*
X108246D01*
X108240Y36561D01*
X108224Y36550D01*
X108201Y36544D01*
X108146Y36517D01*
X108074Y36489D01*
X107980Y36456D01*
X107875Y36434D01*
X107759Y36411D01*
X107631Y36406D01*
X107603D01*
X107576Y36411D01*
X107531D01*
X107482Y36417D01*
X107426Y36428D01*
X107360Y36445D01*
X107293Y36461D01*
X107216Y36483D01*
X107138Y36511D01*
X107061Y36544D01*
X106978Y36589D01*
X106900Y36638D01*
X106823Y36694D01*
X106745Y36760D01*
X106673Y36838D01*
X106668Y36843D01*
X106657Y36860D01*
X106640Y36882D01*
X106618Y36921D01*
X106585Y36971D01*
X106557Y37026D01*
X106524Y37098D01*
X106490Y37176D01*
X106452Y37270D01*
X106419Y37375D01*
X106391Y37491D01*
X106363Y37619D01*
X106335Y37762D01*
X106319Y37917D01*
X106308Y38084D01*
X106302Y38261D01*
Y38266D01*
Y38272D01*
Y38289D01*
Y38311D01*
X106308Y38366D01*
Y38444D01*
X106313Y38532D01*
X106324Y38637D01*
X106335Y38754D01*
X106352Y38881D01*
X106374Y39008D01*
X106402Y39147D01*
X106435Y39280D01*
X106474Y39413D01*
X106524Y39540D01*
X106579Y39662D01*
X106640Y39778D01*
X106712Y39878D01*
X106718Y39883D01*
X106728Y39894D01*
X106751Y39917D01*
X106778Y39950D01*
X106812Y39983D01*
X106856Y40016D01*
X106911Y40060D01*
X106967Y40099D01*
X107033Y40138D01*
X107105Y40182D01*
X107188Y40216D01*
X107271Y40254D01*
X107365Y40282D01*
X107465Y40304D01*
X107570Y40315D01*
X107681Y40321D01*
X107725D01*
X107759Y40315D01*
D02*
G37*
G36*
X105688Y37690D02*
Y37685D01*
Y37668D01*
Y37646D01*
Y37613D01*
X105682Y37569D01*
Y37524D01*
X105671Y37419D01*
X105660Y37297D01*
X105638Y37170D01*
X105604Y37054D01*
X105566Y36943D01*
Y36937D01*
X105560Y36932D01*
X105544Y36899D01*
X105516Y36854D01*
X105477Y36793D01*
X105422Y36733D01*
X105361Y36666D01*
X105283Y36600D01*
X105195Y36544D01*
X105184Y36539D01*
X105150Y36522D01*
X105101Y36500D01*
X105029Y36478D01*
X104940Y36450D01*
X104840Y36428D01*
X104730Y36411D01*
X104608Y36406D01*
X104558D01*
X104525Y36411D01*
X104480Y36417D01*
X104436Y36423D01*
X104320Y36445D01*
X104198Y36478D01*
X104071Y36528D01*
X104004Y36561D01*
X103943Y36600D01*
X103888Y36644D01*
X103833Y36694D01*
X103827Y36699D01*
X103821Y36705D01*
X103810Y36727D01*
X103794Y36749D01*
X103772Y36777D01*
X103750Y36816D01*
X103727Y36860D01*
X103700Y36910D01*
X103678Y36965D01*
X103655Y37032D01*
X103633Y37098D01*
X103611Y37176D01*
X103600Y37259D01*
X103583Y37353D01*
X103578Y37447D01*
Y37552D01*
X104038Y37619D01*
Y37613D01*
Y37602D01*
Y37580D01*
X104043Y37547D01*
X104049Y37513D01*
Y37475D01*
X104065Y37380D01*
X104082Y37281D01*
X104115Y37181D01*
X104148Y37092D01*
X104170Y37054D01*
X104198Y37020D01*
X104204Y37015D01*
X104226Y36998D01*
X104259Y36971D01*
X104303Y36943D01*
X104364Y36910D01*
X104431Y36888D01*
X104514Y36865D01*
X104602Y36860D01*
X104635D01*
X104669Y36865D01*
X104719Y36871D01*
X104768Y36882D01*
X104824Y36893D01*
X104879Y36915D01*
X104935Y36943D01*
X104940Y36948D01*
X104957Y36960D01*
X104979Y36982D01*
X105012Y37004D01*
X105040Y37043D01*
X105073Y37081D01*
X105101Y37126D01*
X105123Y37181D01*
Y37187D01*
X105134Y37209D01*
X105139Y37248D01*
X105150Y37297D01*
X105162Y37364D01*
X105167Y37447D01*
X105178Y37547D01*
Y37663D01*
Y40304D01*
X105688D01*
Y37690D01*
D02*
G37*
G36*
X246972Y208020D02*
X247022D01*
X247082Y208015D01*
X247149Y208004D01*
X247226Y207993D01*
X247387Y207965D01*
X247553Y207921D01*
X247719Y207860D01*
X247797Y207821D01*
X247874Y207777D01*
X247880Y207771D01*
X247891Y207766D01*
X247913Y207749D01*
X247935Y207727D01*
X247968Y207705D01*
X248007Y207672D01*
X248051Y207633D01*
X248096Y207589D01*
X248140Y207539D01*
X248190Y207489D01*
X248290Y207362D01*
X248384Y207212D01*
X248467Y207046D01*
Y207041D01*
X248478Y207024D01*
X248483Y206996D01*
X248500Y206963D01*
X248511Y206919D01*
X248528Y206863D01*
X248550Y206802D01*
X248566Y206736D01*
X248583Y206664D01*
X248605Y206581D01*
X248633Y206409D01*
X248655Y206215D01*
X248666Y206016D01*
Y206010D01*
Y205988D01*
Y205955D01*
X248661Y205916D01*
Y205861D01*
X248655Y205806D01*
X248650Y205734D01*
X248638Y205662D01*
X248611Y205501D01*
X248572Y205324D01*
X248517Y205147D01*
X248439Y204975D01*
X248433Y204970D01*
X248428Y204953D01*
X248417Y204931D01*
X248395Y204903D01*
X248373Y204864D01*
X248345Y204820D01*
X248273Y204720D01*
X248179Y204610D01*
X248068Y204499D01*
X247941Y204388D01*
X247791Y204294D01*
X247786Y204289D01*
X247769Y204283D01*
X247747Y204272D01*
X247719Y204255D01*
X247675Y204239D01*
X247631Y204222D01*
X247575Y204200D01*
X247514Y204178D01*
X247448Y204156D01*
X247376Y204133D01*
X247221Y204100D01*
X247044Y204072D01*
X246861Y204061D01*
X246806D01*
X246767Y204067D01*
X246717Y204072D01*
X246656Y204078D01*
X246595Y204084D01*
X246523Y204100D01*
X246374Y204133D01*
X246208Y204183D01*
X246124Y204216D01*
X246047Y204255D01*
X245970Y204305D01*
X245892Y204355D01*
X245886Y204360D01*
X245875Y204366D01*
X245853Y204383D01*
X245826Y204410D01*
X245798Y204438D01*
X245759Y204477D01*
X245720Y204521D01*
X245676Y204565D01*
X245632Y204621D01*
X245587Y204687D01*
X245538Y204754D01*
X245493Y204826D01*
X245455Y204909D01*
X245410Y204992D01*
X245377Y205080D01*
X245344Y205180D01*
X245842Y205296D01*
Y205291D01*
X245848Y205280D01*
X245859Y205257D01*
X245870Y205230D01*
X245881Y205197D01*
X245898Y205152D01*
X245942Y205064D01*
X245997Y204964D01*
X246064Y204864D01*
X246147Y204770D01*
X246235Y204687D01*
X246246Y204676D01*
X246280Y204654D01*
X246335Y204626D01*
X246407Y204587D01*
X246501Y204554D01*
X246606Y204521D01*
X246734Y204499D01*
X246872Y204493D01*
X246916D01*
X246944Y204499D01*
X246983D01*
X247027Y204504D01*
X247132Y204521D01*
X247249Y204543D01*
X247370Y204582D01*
X247498Y204637D01*
X247614Y204709D01*
X247619D01*
X247625Y204720D01*
X247664Y204748D01*
X247714Y204792D01*
X247775Y204859D01*
X247847Y204942D01*
X247913Y205036D01*
X247974Y205152D01*
X248029Y205280D01*
Y205285D01*
X248035Y205296D01*
X248040Y205313D01*
X248046Y205340D01*
X248057Y205374D01*
X248068Y205413D01*
X248085Y205507D01*
X248107Y205617D01*
X248129Y205739D01*
X248140Y205872D01*
X248146Y206016D01*
Y206022D01*
Y206038D01*
Y206066D01*
Y206099D01*
X248140Y206138D01*
Y206188D01*
X248134Y206243D01*
X248129Y206304D01*
X248112Y206437D01*
X248085Y206581D01*
X248051Y206725D01*
X248007Y206869D01*
Y206874D01*
X248002Y206885D01*
X247990Y206902D01*
X247980Y206930D01*
X247946Y206996D01*
X247896Y207074D01*
X247836Y207162D01*
X247758Y207256D01*
X247669Y207339D01*
X247564Y207417D01*
X247559D01*
X247548Y207423D01*
X247531Y207434D01*
X247509Y207445D01*
X247481Y207456D01*
X247448Y207472D01*
X247370Y207506D01*
X247271Y207539D01*
X247160Y207567D01*
X247038Y207589D01*
X246911Y207594D01*
X246872D01*
X246839Y207589D01*
X246800D01*
X246761Y207583D01*
X246662Y207561D01*
X246545Y207533D01*
X246429Y207489D01*
X246307Y207428D01*
X246246Y207395D01*
X246191Y207351D01*
X246185Y207345D01*
X246180Y207339D01*
X246163Y207323D01*
X246141Y207306D01*
X246119Y207279D01*
X246091Y207245D01*
X246058Y207212D01*
X246030Y207168D01*
X245997Y207118D01*
X245958Y207063D01*
X245925Y207007D01*
X245892Y206941D01*
X245864Y206869D01*
X245837Y206791D01*
X245809Y206708D01*
X245787Y206620D01*
X245277Y206747D01*
Y206752D01*
X245283Y206775D01*
X245294Y206808D01*
X245310Y206852D01*
X245327Y206902D01*
X245349Y206963D01*
X245377Y207029D01*
X245410Y207101D01*
X245488Y207256D01*
X245587Y207411D01*
X245648Y207489D01*
X245709Y207567D01*
X245776Y207633D01*
X245853Y207699D01*
X245859Y207705D01*
X245870Y207716D01*
X245898Y207727D01*
X245925Y207749D01*
X245970Y207777D01*
X246014Y207805D01*
X246075Y207832D01*
X246136Y207860D01*
X246208Y207893D01*
X246285Y207921D01*
X246368Y207949D01*
X246457Y207976D01*
X246551Y207998D01*
X246651Y208009D01*
X246756Y208020D01*
X246866Y208026D01*
X246927D01*
X246972Y208020D01*
D02*
G37*
G36*
X243544Y204964D02*
X243550Y204970D01*
X243577Y204992D01*
X243611Y205025D01*
X243666Y205064D01*
X243727Y205114D01*
X243804Y205169D01*
X243893Y205230D01*
X243993Y205291D01*
X243998D01*
X244004Y205296D01*
X244037Y205318D01*
X244092Y205346D01*
X244159Y205379D01*
X244236Y205418D01*
X244319Y205457D01*
X244402Y205496D01*
X244485Y205529D01*
Y205075D01*
X244480D01*
X244469Y205064D01*
X244447Y205058D01*
X244419Y205042D01*
X244386Y205025D01*
X244347Y205003D01*
X244253Y204947D01*
X244142Y204886D01*
X244031Y204809D01*
X243915Y204720D01*
X243799Y204626D01*
X243793Y204621D01*
X243788Y204615D01*
X243771Y204599D01*
X243749Y204582D01*
X243699Y204527D01*
X243633Y204460D01*
X243566Y204383D01*
X243494Y204294D01*
X243433Y204205D01*
X243378Y204111D01*
X243074D01*
Y207960D01*
X243544D01*
Y204964D01*
D02*
G37*
G36*
X241933Y207954D02*
Y207932D01*
Y207899D01*
X241927Y207854D01*
X241922Y207805D01*
X241911Y207749D01*
X241900Y207694D01*
X241877Y207633D01*
Y207627D01*
X241872Y207622D01*
X241861Y207589D01*
X241839Y207539D01*
X241805Y207472D01*
X241761Y207395D01*
X241706Y207306D01*
X241645Y207218D01*
X241567Y207124D01*
Y207118D01*
X241556Y207112D01*
X241529Y207079D01*
X241479Y207029D01*
X241407Y206957D01*
X241324Y206874D01*
X241218Y206775D01*
X241091Y206664D01*
X240953Y206548D01*
X240947Y206542D01*
X240925Y206525D01*
X240892Y206498D01*
X240853Y206465D01*
X240803Y206420D01*
X240742Y206371D01*
X240681Y206315D01*
X240609Y206254D01*
X240471Y206121D01*
X240333Y205988D01*
X240266Y205922D01*
X240205Y205856D01*
X240150Y205795D01*
X240106Y205734D01*
Y205728D01*
X240095Y205723D01*
X240083Y205706D01*
X240072Y205684D01*
X240034Y205623D01*
X239989Y205551D01*
X239951Y205462D01*
X239912Y205368D01*
X239890Y205263D01*
X239879Y205163D01*
Y205158D01*
Y205152D01*
X239884Y205119D01*
X239890Y205064D01*
X239906Y205003D01*
X239928Y204925D01*
X239967Y204848D01*
X240017Y204770D01*
X240083Y204693D01*
X240095Y204682D01*
X240122Y204660D01*
X240161Y204632D01*
X240222Y204593D01*
X240299Y204560D01*
X240388Y204527D01*
X240493Y204504D01*
X240609Y204499D01*
X240643D01*
X240665Y204504D01*
X240731Y204510D01*
X240809Y204527D01*
X240892Y204549D01*
X240986Y204587D01*
X241075Y204637D01*
X241158Y204704D01*
X241169Y204715D01*
X241191Y204743D01*
X241224Y204787D01*
X241257Y204853D01*
X241296Y204931D01*
X241329Y205030D01*
X241351Y205141D01*
X241362Y205269D01*
X241844Y205219D01*
Y205213D01*
X241839Y205197D01*
Y205169D01*
X241833Y205130D01*
X241822Y205086D01*
X241811Y205036D01*
X241794Y204975D01*
X241778Y204914D01*
X241733Y204781D01*
X241667Y204648D01*
X241628Y204582D01*
X241579Y204515D01*
X241529Y204455D01*
X241473Y204399D01*
X241468Y204394D01*
X241457Y204388D01*
X241440Y204371D01*
X241412Y204355D01*
X241379Y204333D01*
X241340Y204311D01*
X241296Y204283D01*
X241241Y204255D01*
X241180Y204228D01*
X241113Y204200D01*
X241041Y204178D01*
X240964Y204156D01*
X240881Y204139D01*
X240792Y204122D01*
X240698Y204117D01*
X240598Y204111D01*
X240543D01*
X240504Y204117D01*
X240460Y204122D01*
X240405Y204128D01*
X240344Y204139D01*
X240283Y204150D01*
X240139Y204189D01*
X239995Y204244D01*
X239923Y204277D01*
X239851Y204316D01*
X239784Y204366D01*
X239723Y204421D01*
X239718Y204427D01*
X239707Y204432D01*
X239696Y204455D01*
X239674Y204477D01*
X239646Y204504D01*
X239618Y204543D01*
X239591Y204582D01*
X239557Y204632D01*
X239502Y204737D01*
X239447Y204870D01*
X239424Y204936D01*
X239413Y205014D01*
X239402Y205091D01*
X239397Y205174D01*
Y205186D01*
Y205213D01*
X239402Y205257D01*
X239408Y205318D01*
X239419Y205385D01*
X239441Y205462D01*
X239463Y205545D01*
X239496Y205629D01*
X239502Y205639D01*
X239513Y205667D01*
X239535Y205711D01*
X239569Y205772D01*
X239613Y205839D01*
X239668Y205922D01*
X239735Y206005D01*
X239812Y206099D01*
X239823Y206110D01*
X239851Y206143D01*
X239879Y206171D01*
X239906Y206199D01*
X239939Y206232D01*
X239984Y206276D01*
X240028Y206321D01*
X240083Y206371D01*
X240139Y206426D01*
X240205Y206487D01*
X240277Y206548D01*
X240355Y206620D01*
X240443Y206692D01*
X240532Y206769D01*
X240537Y206775D01*
X240548Y206786D01*
X240571Y206802D01*
X240598Y206824D01*
X240632Y206858D01*
X240670Y206891D01*
X240759Y206963D01*
X240853Y207046D01*
X240942Y207129D01*
X241019Y207201D01*
X241052Y207229D01*
X241080Y207256D01*
X241086Y207262D01*
X241102Y207279D01*
X241124Y207301D01*
X241152Y207334D01*
X241180Y207373D01*
X241213Y207411D01*
X241280Y207506D01*
X239391D01*
Y207960D01*
X241933D01*
Y207954D01*
D02*
G37*
G36*
X96597Y350261D02*
X96653D01*
X96708Y350255D01*
X96780Y350249D01*
X96852Y350238D01*
X97013Y350211D01*
X97190Y350172D01*
X97367Y350117D01*
X97539Y350039D01*
X97544Y350033D01*
X97561Y350028D01*
X97583Y350017D01*
X97611Y349995D01*
X97650Y349973D01*
X97694Y349945D01*
X97794Y349873D01*
X97904Y349779D01*
X98015Y349668D01*
X98126Y349541D01*
X98220Y349391D01*
X98225Y349386D01*
X98231Y349369D01*
X98242Y349347D01*
X98259Y349319D01*
X98275Y349275D01*
X98292Y349231D01*
X98314Y349175D01*
X98336Y349114D01*
X98358Y349048D01*
X98380Y348976D01*
X98414Y348821D01*
X98441Y348644D01*
X98453Y348461D01*
Y348406D01*
X98447Y348367D01*
X98441Y348317D01*
X98436Y348256D01*
X98430Y348195D01*
X98414Y348123D01*
X98380Y347974D01*
X98331Y347808D01*
X98298Y347724D01*
X98259Y347647D01*
X98209Y347570D01*
X98159Y347492D01*
X98153Y347486D01*
X98148Y347475D01*
X98131Y347453D01*
X98104Y347425D01*
X98076Y347398D01*
X98037Y347359D01*
X97993Y347320D01*
X97949Y347276D01*
X97893Y347232D01*
X97827Y347187D01*
X97760Y347138D01*
X97688Y347093D01*
X97605Y347054D01*
X97522Y347010D01*
X97434Y346977D01*
X97334Y346944D01*
X97218Y347442D01*
X97223D01*
X97234Y347448D01*
X97256Y347459D01*
X97284Y347470D01*
X97317Y347481D01*
X97362Y347497D01*
X97450Y347542D01*
X97550Y347597D01*
X97650Y347664D01*
X97744Y347747D01*
X97827Y347835D01*
X97838Y347846D01*
X97860Y347879D01*
X97888Y347935D01*
X97927Y348007D01*
X97960Y348101D01*
X97993Y348206D01*
X98015Y348334D01*
X98021Y348472D01*
Y348516D01*
X98015Y348544D01*
Y348583D01*
X98010Y348627D01*
X97993Y348732D01*
X97971Y348849D01*
X97932Y348970D01*
X97877Y349098D01*
X97805Y349214D01*
Y349220D01*
X97794Y349225D01*
X97766Y349264D01*
X97722Y349314D01*
X97655Y349375D01*
X97572Y349447D01*
X97478Y349513D01*
X97362Y349574D01*
X97234Y349629D01*
X97229D01*
X97218Y349635D01*
X97201Y349640D01*
X97173Y349646D01*
X97140Y349657D01*
X97101Y349668D01*
X97007Y349685D01*
X96897Y349707D01*
X96775Y349729D01*
X96642Y349740D01*
X96498Y349746D01*
X96492D01*
X96476D01*
X96448D01*
X96415D01*
X96376Y349740D01*
X96326D01*
X96271Y349734D01*
X96210Y349729D01*
X96077Y349712D01*
X95933Y349685D01*
X95789Y349651D01*
X95645Y349607D01*
X95640D01*
X95628Y349602D01*
X95612Y349590D01*
X95584Y349580D01*
X95518Y349546D01*
X95440Y349496D01*
X95352Y349436D01*
X95258Y349358D01*
X95175Y349269D01*
X95097Y349164D01*
Y349159D01*
X95091Y349148D01*
X95080Y349131D01*
X95069Y349109D01*
X95058Y349081D01*
X95042Y349048D01*
X95008Y348970D01*
X94975Y348871D01*
X94948Y348760D01*
X94925Y348638D01*
X94920Y348511D01*
Y348472D01*
X94925Y348439D01*
Y348400D01*
X94931Y348361D01*
X94953Y348262D01*
X94981Y348145D01*
X95025Y348029D01*
X95086Y347907D01*
X95119Y347846D01*
X95163Y347791D01*
X95169Y347785D01*
X95175Y347780D01*
X95191Y347763D01*
X95208Y347741D01*
X95235Y347719D01*
X95269Y347691D01*
X95302Y347658D01*
X95346Y347630D01*
X95396Y347597D01*
X95451Y347558D01*
X95507Y347525D01*
X95573Y347492D01*
X95645Y347464D01*
X95723Y347437D01*
X95806Y347409D01*
X95894Y347387D01*
X95767Y346877D01*
X95761D01*
X95739Y346883D01*
X95706Y346894D01*
X95662Y346911D01*
X95612Y346927D01*
X95551Y346949D01*
X95485Y346977D01*
X95413Y347010D01*
X95258Y347088D01*
X95103Y347187D01*
X95025Y347248D01*
X94948Y347309D01*
X94881Y347376D01*
X94815Y347453D01*
X94809Y347459D01*
X94798Y347470D01*
X94787Y347497D01*
X94765Y347525D01*
X94737Y347570D01*
X94709Y347614D01*
X94682Y347675D01*
X94654Y347736D01*
X94621Y347808D01*
X94593Y347885D01*
X94565Y347968D01*
X94538Y348057D01*
X94516Y348151D01*
X94504Y348251D01*
X94493Y348356D01*
X94488Y348466D01*
Y348527D01*
X94493Y348572D01*
Y348621D01*
X94499Y348682D01*
X94510Y348749D01*
X94521Y348826D01*
X94549Y348987D01*
X94593Y349153D01*
X94654Y349319D01*
X94693Y349397D01*
X94737Y349474D01*
X94743Y349480D01*
X94748Y349491D01*
X94765Y349513D01*
X94787Y349535D01*
X94809Y349568D01*
X94842Y349607D01*
X94881Y349651D01*
X94925Y349696D01*
X94975Y349740D01*
X95025Y349790D01*
X95152Y349889D01*
X95302Y349984D01*
X95468Y350067D01*
X95473D01*
X95490Y350078D01*
X95518Y350083D01*
X95551Y350100D01*
X95595Y350111D01*
X95651Y350128D01*
X95712Y350150D01*
X95778Y350166D01*
X95850Y350183D01*
X95933Y350205D01*
X96105Y350233D01*
X96299Y350255D01*
X96498Y350266D01*
X96503D01*
X96526D01*
X96559D01*
X96597Y350261D01*
D02*
G37*
G36*
X95628Y345969D02*
X95623D01*
X95612Y345964D01*
X95590Y345958D01*
X95562Y345953D01*
X95529Y345947D01*
X95490Y345936D01*
X95407Y345908D01*
X95307Y345869D01*
X95213Y345820D01*
X95125Y345764D01*
X95047Y345698D01*
X95042Y345687D01*
X95019Y345665D01*
X94992Y345620D01*
X94964Y345565D01*
X94931Y345499D01*
X94903Y345415D01*
X94881Y345321D01*
X94875Y345222D01*
Y345188D01*
X94881Y345166D01*
X94887Y345105D01*
X94903Y345028D01*
X94931Y344939D01*
X94970Y344845D01*
X95025Y344751D01*
X95103Y344662D01*
X95114Y344651D01*
X95147Y344624D01*
X95197Y344590D01*
X95263Y344546D01*
X95346Y344502D01*
X95440Y344469D01*
X95551Y344441D01*
X95673Y344430D01*
X95678D01*
X95689D01*
X95706D01*
X95728Y344435D01*
X95789Y344441D01*
X95861Y344458D01*
X95950Y344480D01*
X96038Y344519D01*
X96127Y344574D01*
X96210Y344646D01*
X96221Y344657D01*
X96243Y344685D01*
X96276Y344729D01*
X96315Y344790D01*
X96354Y344867D01*
X96387Y344961D01*
X96409Y345067D01*
X96420Y345183D01*
Y345233D01*
X96415Y345271D01*
X96409Y345321D01*
X96398Y345377D01*
X96387Y345443D01*
X96370Y345515D01*
X96786Y345460D01*
Y345432D01*
X96780Y345410D01*
Y345338D01*
X96791Y345277D01*
X96802Y345205D01*
X96819Y345122D01*
X96847Y345028D01*
X96885Y344939D01*
X96935Y344845D01*
Y344840D01*
X96941Y344834D01*
X96963Y344806D01*
X97002Y344768D01*
X97052Y344723D01*
X97124Y344679D01*
X97207Y344640D01*
X97301Y344613D01*
X97356Y344602D01*
X97417D01*
X97423D01*
X97428D01*
X97461D01*
X97506Y344613D01*
X97567Y344624D01*
X97633Y344646D01*
X97705Y344674D01*
X97777Y344718D01*
X97843Y344779D01*
X97849Y344784D01*
X97871Y344812D01*
X97899Y344851D01*
X97932Y344901D01*
X97960Y344967D01*
X97987Y345045D01*
X98010Y345133D01*
X98015Y345233D01*
Y345277D01*
X98004Y345327D01*
X97993Y345393D01*
X97971Y345465D01*
X97943Y345537D01*
X97899Y345615D01*
X97843Y345687D01*
X97838Y345692D01*
X97810Y345714D01*
X97771Y345748D01*
X97716Y345787D01*
X97644Y345825D01*
X97556Y345864D01*
X97450Y345897D01*
X97329Y345919D01*
X97411Y346390D01*
X97417D01*
X97434Y346385D01*
X97456Y346379D01*
X97489Y346373D01*
X97528Y346362D01*
X97572Y346346D01*
X97677Y346312D01*
X97799Y346257D01*
X97921Y346191D01*
X98037Y346108D01*
X98142Y346002D01*
X98148Y345997D01*
X98153Y345986D01*
X98165Y345969D01*
X98181Y345947D01*
X98203Y345919D01*
X98225Y345881D01*
X98248Y345842D01*
X98275Y345792D01*
X98320Y345681D01*
X98364Y345554D01*
X98392Y345404D01*
X98403Y345327D01*
Y345188D01*
X98397Y345128D01*
X98386Y345056D01*
X98370Y344967D01*
X98342Y344867D01*
X98308Y344768D01*
X98264Y344668D01*
Y344662D01*
X98259Y344657D01*
X98242Y344624D01*
X98209Y344574D01*
X98170Y344519D01*
X98115Y344452D01*
X98054Y344386D01*
X97982Y344319D01*
X97899Y344264D01*
X97888Y344258D01*
X97860Y344242D01*
X97810Y344220D01*
X97749Y344192D01*
X97677Y344164D01*
X97594Y344142D01*
X97500Y344125D01*
X97406Y344120D01*
X97395D01*
X97362D01*
X97317Y344125D01*
X97256Y344136D01*
X97184Y344153D01*
X97107Y344181D01*
X97029Y344214D01*
X96952Y344258D01*
X96941Y344264D01*
X96919Y344280D01*
X96880Y344314D01*
X96836Y344358D01*
X96786Y344413D01*
X96730Y344480D01*
X96681Y344557D01*
X96631Y344651D01*
Y344646D01*
X96625Y344635D01*
X96620Y344618D01*
X96614Y344596D01*
X96592Y344535D01*
X96559Y344458D01*
X96515Y344369D01*
X96459Y344280D01*
X96387Y344197D01*
X96304Y344120D01*
X96293Y344114D01*
X96260Y344092D01*
X96204Y344059D01*
X96132Y344026D01*
X96044Y343992D01*
X95939Y343959D01*
X95817Y343937D01*
X95684Y343932D01*
X95678D01*
X95662D01*
X95634D01*
X95601Y343937D01*
X95557Y343943D01*
X95507Y343954D01*
X95451Y343965D01*
X95390Y343976D01*
X95258Y344020D01*
X95186Y344053D01*
X95119Y344087D01*
X95047Y344131D01*
X94975Y344181D01*
X94903Y344236D01*
X94837Y344302D01*
X94831Y344308D01*
X94820Y344319D01*
X94803Y344341D01*
X94781Y344369D01*
X94754Y344402D01*
X94726Y344446D01*
X94693Y344496D01*
X94665Y344557D01*
X94632Y344618D01*
X94599Y344690D01*
X94571Y344762D01*
X94543Y344845D01*
X94521Y344934D01*
X94504Y345028D01*
X94493Y345122D01*
X94488Y345227D01*
Y345277D01*
X94493Y345310D01*
X94499Y345355D01*
X94504Y345404D01*
X94516Y345460D01*
X94527Y345521D01*
X94560Y345654D01*
X94615Y345792D01*
X94649Y345864D01*
X94687Y345930D01*
X94737Y345997D01*
X94787Y346063D01*
X94792Y346069D01*
X94803Y346080D01*
X94820Y346097D01*
X94842Y346113D01*
X94870Y346141D01*
X94909Y346169D01*
X94948Y346202D01*
X94997Y346235D01*
X95053Y346268D01*
X95108Y346301D01*
X95241Y346362D01*
X95396Y346412D01*
X95479Y346429D01*
X95568Y346440D01*
X95628Y345969D01*
D02*
G37*
G36*
X212421Y386582D02*
X212477D01*
X212532Y386577D01*
X212604Y386572D01*
X212676Y386560D01*
X212837Y386533D01*
X213014Y386494D01*
X213191Y386439D01*
X213363Y386361D01*
X213368Y386356D01*
X213385Y386350D01*
X213407Y386339D01*
X213435Y386317D01*
X213474Y386295D01*
X213518Y386267D01*
X213618Y386195D01*
X213728Y386101D01*
X213839Y385990D01*
X213950Y385863D01*
X214044Y385713D01*
X214049Y385708D01*
X214055Y385691D01*
X214066Y385669D01*
X214083Y385641D01*
X214099Y385597D01*
X214116Y385553D01*
X214138Y385497D01*
X214160Y385436D01*
X214182Y385370D01*
X214205Y385298D01*
X214238Y385143D01*
X214265Y384966D01*
X214277Y384783D01*
Y384728D01*
X214271Y384689D01*
X214265Y384639D01*
X214260Y384578D01*
X214254Y384517D01*
X214238Y384445D01*
X214205Y384296D01*
X214155Y384130D01*
X214121Y384047D01*
X214083Y383969D01*
X214033Y383891D01*
X213983Y383814D01*
X213978Y383808D01*
X213972Y383797D01*
X213955Y383775D01*
X213928Y383747D01*
X213900Y383720D01*
X213861Y383681D01*
X213817Y383642D01*
X213773Y383598D01*
X213717Y383554D01*
X213651Y383509D01*
X213584Y383460D01*
X213512Y383415D01*
X213429Y383377D01*
X213346Y383332D01*
X213258Y383299D01*
X213158Y383266D01*
X213042Y383764D01*
X213047D01*
X213058Y383770D01*
X213081Y383781D01*
X213108Y383792D01*
X213141Y383803D01*
X213186Y383820D01*
X213274Y383864D01*
X213374Y383919D01*
X213474Y383986D01*
X213568Y384069D01*
X213651Y384157D01*
X213662Y384168D01*
X213684Y384202D01*
X213712Y384257D01*
X213750Y384329D01*
X213784Y384423D01*
X213817Y384528D01*
X213839Y384656D01*
X213845Y384794D01*
Y384838D01*
X213839Y384866D01*
Y384905D01*
X213834Y384949D01*
X213817Y385054D01*
X213795Y385171D01*
X213756Y385292D01*
X213701Y385420D01*
X213629Y385536D01*
Y385541D01*
X213618Y385547D01*
X213590Y385586D01*
X213546Y385636D01*
X213479Y385697D01*
X213396Y385769D01*
X213302Y385835D01*
X213186Y385896D01*
X213058Y385951D01*
X213053D01*
X213042Y385957D01*
X213025Y385962D01*
X212997Y385968D01*
X212964Y385979D01*
X212925Y385990D01*
X212831Y386007D01*
X212721Y386029D01*
X212599Y386051D01*
X212466Y386062D01*
X212322Y386068D01*
X212316D01*
X212300D01*
X212272D01*
X212239D01*
X212200Y386062D01*
X212150D01*
X212095Y386057D01*
X212034Y386051D01*
X211901Y386034D01*
X211757Y386007D01*
X211613Y385973D01*
X211469Y385929D01*
X211464D01*
X211453Y385924D01*
X211436Y385913D01*
X211408Y385901D01*
X211342Y385868D01*
X211264Y385818D01*
X211176Y385757D01*
X211082Y385680D01*
X210998Y385591D01*
X210921Y385486D01*
Y385481D01*
X210915Y385470D01*
X210904Y385453D01*
X210893Y385431D01*
X210882Y385403D01*
X210866Y385370D01*
X210832Y385292D01*
X210799Y385193D01*
X210772Y385082D01*
X210749Y384960D01*
X210744Y384833D01*
Y384794D01*
X210749Y384761D01*
Y384722D01*
X210755Y384683D01*
X210777Y384584D01*
X210805Y384467D01*
X210849Y384351D01*
X210910Y384229D01*
X210943Y384168D01*
X210987Y384113D01*
X210993Y384107D01*
X210998Y384102D01*
X211015Y384085D01*
X211032Y384063D01*
X211059Y384041D01*
X211093Y384013D01*
X211126Y383980D01*
X211170Y383952D01*
X211220Y383919D01*
X211275Y383880D01*
X211331Y383847D01*
X211397Y383814D01*
X211469Y383786D01*
X211547Y383759D01*
X211630Y383731D01*
X211718Y383709D01*
X211591Y383199D01*
X211585D01*
X211563Y383205D01*
X211530Y383216D01*
X211486Y383232D01*
X211436Y383249D01*
X211375Y383271D01*
X211309Y383299D01*
X211237Y383332D01*
X211082Y383410D01*
X210926Y383509D01*
X210849Y383570D01*
X210772Y383631D01*
X210705Y383698D01*
X210639Y383775D01*
X210633Y383781D01*
X210622Y383792D01*
X210611Y383820D01*
X210589Y383847D01*
X210561Y383891D01*
X210533Y383936D01*
X210506Y383997D01*
X210478Y384058D01*
X210445Y384130D01*
X210417Y384207D01*
X210389Y384290D01*
X210362Y384379D01*
X210340Y384473D01*
X210329Y384572D01*
X210317Y384678D01*
X210312Y384789D01*
Y384849D01*
X210317Y384894D01*
Y384944D01*
X210323Y385004D01*
X210334Y385071D01*
X210345Y385148D01*
X210373Y385309D01*
X210417Y385475D01*
X210478Y385641D01*
X210517Y385719D01*
X210561Y385796D01*
X210567Y385802D01*
X210572Y385813D01*
X210589Y385835D01*
X210611Y385857D01*
X210633Y385890D01*
X210666Y385929D01*
X210705Y385973D01*
X210749Y386018D01*
X210799Y386062D01*
X210849Y386112D01*
X210976Y386212D01*
X211126Y386306D01*
X211292Y386389D01*
X211297D01*
X211314Y386400D01*
X211342Y386405D01*
X211375Y386422D01*
X211419Y386433D01*
X211475Y386450D01*
X211536Y386472D01*
X211602Y386488D01*
X211674Y386505D01*
X211757Y386527D01*
X211929Y386555D01*
X212122Y386577D01*
X212322Y386588D01*
X212327D01*
X212350D01*
X212383D01*
X212421Y386582D01*
D02*
G37*
G36*
X210483Y382828D02*
X210533Y382823D01*
X210589Y382812D01*
X210644Y382801D01*
X210705Y382779D01*
X210711D01*
X210716Y382773D01*
X210749Y382762D01*
X210799Y382740D01*
X210866Y382706D01*
X210943Y382662D01*
X211032Y382607D01*
X211120Y382546D01*
X211214Y382468D01*
X211220D01*
X211225Y382457D01*
X211259Y382430D01*
X211309Y382380D01*
X211381Y382308D01*
X211464Y382225D01*
X211563Y382120D01*
X211674Y381992D01*
X211790Y381854D01*
X211796Y381848D01*
X211812Y381826D01*
X211840Y381793D01*
X211873Y381754D01*
X211918Y381704D01*
X211968Y381643D01*
X212023Y381582D01*
X212084Y381511D01*
X212217Y381372D01*
X212350Y381234D01*
X212416Y381167D01*
X212482Y381106D01*
X212543Y381051D01*
X212604Y381007D01*
X212610D01*
X212615Y380995D01*
X212632Y380984D01*
X212654Y380973D01*
X212715Y380935D01*
X212787Y380890D01*
X212876Y380852D01*
X212970Y380813D01*
X213075Y380791D01*
X213175Y380780D01*
X213180D01*
X213186D01*
X213219Y380785D01*
X213274Y380791D01*
X213335Y380807D01*
X213413Y380829D01*
X213490Y380868D01*
X213568Y380918D01*
X213645Y380984D01*
X213656Y380995D01*
X213678Y381023D01*
X213706Y381062D01*
X213745Y381123D01*
X213778Y381200D01*
X213811Y381289D01*
X213834Y381394D01*
X213839Y381511D01*
Y381544D01*
X213834Y381566D01*
X213828Y381632D01*
X213811Y381710D01*
X213789Y381793D01*
X213750Y381887D01*
X213701Y381976D01*
X213634Y382059D01*
X213623Y382070D01*
X213595Y382092D01*
X213551Y382125D01*
X213485Y382158D01*
X213407Y382197D01*
X213307Y382230D01*
X213197Y382252D01*
X213069Y382263D01*
X213119Y382745D01*
X213125D01*
X213141Y382740D01*
X213169D01*
X213208Y382734D01*
X213252Y382723D01*
X213302Y382712D01*
X213363Y382695D01*
X213424Y382679D01*
X213557Y382635D01*
X213690Y382568D01*
X213756Y382529D01*
X213822Y382480D01*
X213883Y382430D01*
X213939Y382374D01*
X213944Y382369D01*
X213950Y382358D01*
X213966Y382341D01*
X213983Y382313D01*
X214005Y382280D01*
X214027Y382241D01*
X214055Y382197D01*
X214083Y382142D01*
X214110Y382081D01*
X214138Y382014D01*
X214160Y381942D01*
X214182Y381865D01*
X214199Y381782D01*
X214216Y381693D01*
X214221Y381599D01*
X214227Y381499D01*
Y381444D01*
X214221Y381405D01*
X214216Y381361D01*
X214210Y381306D01*
X214199Y381245D01*
X214188Y381184D01*
X214149Y381040D01*
X214094Y380896D01*
X214061Y380824D01*
X214022Y380752D01*
X213972Y380685D01*
X213917Y380625D01*
X213911Y380619D01*
X213906Y380608D01*
X213883Y380597D01*
X213861Y380575D01*
X213834Y380547D01*
X213795Y380519D01*
X213756Y380492D01*
X213706Y380458D01*
X213601Y380403D01*
X213468Y380348D01*
X213402Y380326D01*
X213324Y380314D01*
X213247Y380303D01*
X213164Y380298D01*
X213153D01*
X213125D01*
X213081Y380303D01*
X213020Y380309D01*
X212953Y380320D01*
X212876Y380342D01*
X212792Y380364D01*
X212710Y380397D01*
X212698Y380403D01*
X212671Y380414D01*
X212626Y380436D01*
X212565Y380470D01*
X212499Y380514D01*
X212416Y380569D01*
X212333Y380636D01*
X212239Y380713D01*
X212228Y380724D01*
X212194Y380752D01*
X212167Y380780D01*
X212139Y380807D01*
X212106Y380840D01*
X212062Y380885D01*
X212017Y380929D01*
X211968Y380984D01*
X211912Y381040D01*
X211851Y381106D01*
X211790Y381178D01*
X211718Y381256D01*
X211646Y381344D01*
X211569Y381433D01*
X211563Y381438D01*
X211552Y381450D01*
X211536Y381472D01*
X211513Y381499D01*
X211480Y381533D01*
X211447Y381571D01*
X211375Y381660D01*
X211292Y381754D01*
X211209Y381843D01*
X211137Y381920D01*
X211109Y381953D01*
X211082Y381981D01*
X211076Y381987D01*
X211059Y382003D01*
X211037Y382025D01*
X211004Y382053D01*
X210965Y382081D01*
X210926Y382114D01*
X210832Y382180D01*
Y380292D01*
X210378D01*
Y382834D01*
X210384D01*
X210406D01*
X210439D01*
X210483Y382828D01*
D02*
G37*
G36*
Y379849D02*
X210533Y379844D01*
X210589Y379833D01*
X210644Y379822D01*
X210705Y379799D01*
X210711D01*
X210716Y379794D01*
X210749Y379783D01*
X210799Y379761D01*
X210866Y379728D01*
X210943Y379683D01*
X211032Y379628D01*
X211120Y379567D01*
X211214Y379489D01*
X211220D01*
X211225Y379478D01*
X211259Y379451D01*
X211309Y379401D01*
X211381Y379329D01*
X211464Y379246D01*
X211563Y379141D01*
X211674Y379013D01*
X211790Y378875D01*
X211796Y378869D01*
X211812Y378847D01*
X211840Y378814D01*
X211873Y378775D01*
X211918Y378725D01*
X211968Y378664D01*
X212023Y378603D01*
X212084Y378531D01*
X212217Y378393D01*
X212350Y378255D01*
X212416Y378188D01*
X212482Y378127D01*
X212543Y378072D01*
X212604Y378028D01*
X212610D01*
X212615Y378017D01*
X212632Y378005D01*
X212654Y377994D01*
X212715Y377956D01*
X212787Y377911D01*
X212876Y377873D01*
X212970Y377834D01*
X213075Y377812D01*
X213175Y377800D01*
X213180D01*
X213186D01*
X213219Y377806D01*
X213274Y377812D01*
X213335Y377828D01*
X213413Y377850D01*
X213490Y377889D01*
X213568Y377939D01*
X213645Y378005D01*
X213656Y378017D01*
X213678Y378044D01*
X213706Y378083D01*
X213745Y378144D01*
X213778Y378221D01*
X213811Y378310D01*
X213834Y378415D01*
X213839Y378531D01*
Y378565D01*
X213834Y378587D01*
X213828Y378653D01*
X213811Y378731D01*
X213789Y378814D01*
X213750Y378908D01*
X213701Y378997D01*
X213634Y379080D01*
X213623Y379091D01*
X213595Y379113D01*
X213551Y379146D01*
X213485Y379179D01*
X213407Y379218D01*
X213307Y379251D01*
X213197Y379273D01*
X213069Y379285D01*
X213119Y379766D01*
X213125D01*
X213141Y379761D01*
X213169D01*
X213208Y379755D01*
X213252Y379744D01*
X213302Y379733D01*
X213363Y379716D01*
X213424Y379700D01*
X213557Y379655D01*
X213690Y379589D01*
X213756Y379550D01*
X213822Y379501D01*
X213883Y379451D01*
X213939Y379395D01*
X213944Y379390D01*
X213950Y379379D01*
X213966Y379362D01*
X213983Y379334D01*
X214005Y379301D01*
X214027Y379262D01*
X214055Y379218D01*
X214083Y379163D01*
X214110Y379102D01*
X214138Y379035D01*
X214160Y378963D01*
X214182Y378886D01*
X214199Y378803D01*
X214216Y378714D01*
X214221Y378620D01*
X214227Y378520D01*
Y378465D01*
X214221Y378426D01*
X214216Y378382D01*
X214210Y378327D01*
X214199Y378266D01*
X214188Y378205D01*
X214149Y378061D01*
X214094Y377917D01*
X214061Y377845D01*
X214022Y377773D01*
X213972Y377706D01*
X213917Y377645D01*
X213911Y377640D01*
X213906Y377629D01*
X213883Y377618D01*
X213861Y377596D01*
X213834Y377568D01*
X213795Y377540D01*
X213756Y377513D01*
X213706Y377479D01*
X213601Y377424D01*
X213468Y377369D01*
X213402Y377346D01*
X213324Y377335D01*
X213247Y377324D01*
X213164Y377319D01*
X213153D01*
X213125D01*
X213081Y377324D01*
X213020Y377330D01*
X212953Y377341D01*
X212876Y377363D01*
X212792Y377385D01*
X212710Y377419D01*
X212698Y377424D01*
X212671Y377435D01*
X212626Y377457D01*
X212565Y377491D01*
X212499Y377535D01*
X212416Y377590D01*
X212333Y377657D01*
X212239Y377734D01*
X212228Y377745D01*
X212194Y377773D01*
X212167Y377800D01*
X212139Y377828D01*
X212106Y377861D01*
X212062Y377906D01*
X212017Y377950D01*
X211968Y378005D01*
X211912Y378061D01*
X211851Y378127D01*
X211790Y378199D01*
X211718Y378277D01*
X211646Y378365D01*
X211569Y378454D01*
X211563Y378460D01*
X211552Y378470D01*
X211536Y378493D01*
X211513Y378520D01*
X211480Y378554D01*
X211447Y378592D01*
X211375Y378681D01*
X211292Y378775D01*
X211209Y378864D01*
X211137Y378941D01*
X211109Y378974D01*
X211082Y379002D01*
X211076Y379008D01*
X211059Y379024D01*
X211037Y379046D01*
X211004Y379074D01*
X210965Y379102D01*
X210926Y379135D01*
X210832Y379202D01*
Y377313D01*
X210378D01*
Y379855D01*
X210384D01*
X210406D01*
X210439D01*
X210483Y379849D01*
D02*
G37*
G36*
X153791Y120799D02*
X153841Y120793D01*
X153902Y120788D01*
X153963Y120782D01*
X154035Y120766D01*
X154184Y120732D01*
X154350Y120683D01*
X154433Y120649D01*
X154511Y120611D01*
X154588Y120561D01*
X154666Y120511D01*
X154671Y120506D01*
X154683Y120500D01*
X154705Y120483D01*
X154733Y120456D01*
X154760Y120428D01*
X154799Y120389D01*
X154838Y120345D01*
X154882Y120301D01*
X154926Y120245D01*
X154971Y120179D01*
X155020Y120112D01*
X155065Y120040D01*
X155103Y119957D01*
X155148Y119874D01*
X155181Y119786D01*
X155214Y119686D01*
X154716Y119570D01*
Y119575D01*
X154710Y119586D01*
X154699Y119608D01*
X154688Y119636D01*
X154677Y119669D01*
X154661Y119714D01*
X154616Y119802D01*
X154561Y119902D01*
X154494Y120002D01*
X154411Y120096D01*
X154323Y120179D01*
X154312Y120190D01*
X154278Y120212D01*
X154223Y120240D01*
X154151Y120279D01*
X154057Y120312D01*
X153952Y120345D01*
X153824Y120367D01*
X153686Y120373D01*
X153642D01*
X153614Y120367D01*
X153575D01*
X153531Y120361D01*
X153426Y120345D01*
X153309Y120323D01*
X153188Y120284D01*
X153060Y120229D01*
X152944Y120157D01*
X152938D01*
X152933Y120146D01*
X152894Y120118D01*
X152844Y120074D01*
X152783Y120007D01*
X152711Y119924D01*
X152645Y119830D01*
X152584Y119714D01*
X152529Y119586D01*
Y119581D01*
X152523Y119570D01*
X152518Y119553D01*
X152512Y119525D01*
X152501Y119492D01*
X152490Y119453D01*
X152473Y119359D01*
X152451Y119249D01*
X152429Y119127D01*
X152418Y118994D01*
X152412Y118850D01*
Y118844D01*
Y118828D01*
Y118800D01*
Y118767D01*
X152418Y118728D01*
Y118678D01*
X152423Y118623D01*
X152429Y118562D01*
X152446Y118429D01*
X152473Y118285D01*
X152507Y118141D01*
X152551Y117997D01*
Y117992D01*
X152556Y117980D01*
X152567Y117964D01*
X152578Y117936D01*
X152612Y117870D01*
X152662Y117792D01*
X152723Y117704D01*
X152800Y117610D01*
X152889Y117527D01*
X152994Y117449D01*
X152999D01*
X153010Y117443D01*
X153027Y117432D01*
X153049Y117421D01*
X153077Y117410D01*
X153110Y117394D01*
X153188Y117360D01*
X153287Y117327D01*
X153398Y117299D01*
X153520Y117277D01*
X153647Y117272D01*
X153686D01*
X153719Y117277D01*
X153758D01*
X153797Y117283D01*
X153896Y117305D01*
X154013Y117333D01*
X154129Y117377D01*
X154251Y117438D01*
X154312Y117471D01*
X154367Y117515D01*
X154373Y117521D01*
X154378Y117527D01*
X154395Y117543D01*
X154417Y117560D01*
X154439Y117587D01*
X154467Y117621D01*
X154500Y117654D01*
X154528Y117698D01*
X154561Y117748D01*
X154600Y117803D01*
X154633Y117859D01*
X154666Y117925D01*
X154694Y117997D01*
X154721Y118075D01*
X154749Y118158D01*
X154771Y118246D01*
X155281Y118119D01*
Y118113D01*
X155275Y118091D01*
X155264Y118058D01*
X155247Y118014D01*
X155231Y117964D01*
X155209Y117903D01*
X155181Y117837D01*
X155148Y117765D01*
X155070Y117610D01*
X154971Y117455D01*
X154910Y117377D01*
X154849Y117299D01*
X154782Y117233D01*
X154705Y117167D01*
X154699Y117161D01*
X154688Y117150D01*
X154661Y117139D01*
X154633Y117117D01*
X154588Y117089D01*
X154544Y117061D01*
X154483Y117034D01*
X154422Y117006D01*
X154350Y116973D01*
X154273Y116945D01*
X154190Y116917D01*
X154101Y116890D01*
X154007Y116868D01*
X153907Y116856D01*
X153802Y116845D01*
X153692Y116840D01*
X153631D01*
X153586Y116845D01*
X153536D01*
X153476Y116851D01*
X153409Y116862D01*
X153331Y116873D01*
X153171Y116901D01*
X153005Y116945D01*
X152839Y117006D01*
X152761Y117045D01*
X152684Y117089D01*
X152678Y117095D01*
X152667Y117100D01*
X152645Y117117D01*
X152623Y117139D01*
X152590Y117161D01*
X152551Y117194D01*
X152507Y117233D01*
X152462Y117277D01*
X152418Y117327D01*
X152368Y117377D01*
X152268Y117504D01*
X152174Y117654D01*
X152091Y117820D01*
Y117825D01*
X152080Y117842D01*
X152075Y117870D01*
X152058Y117903D01*
X152047Y117947D01*
X152030Y118003D01*
X152008Y118064D01*
X151992Y118130D01*
X151975Y118202D01*
X151953Y118285D01*
X151925Y118457D01*
X151903Y118651D01*
X151892Y118850D01*
Y118855D01*
Y118878D01*
Y118911D01*
X151897Y118949D01*
Y119005D01*
X151903Y119060D01*
X151909Y119132D01*
X151920Y119204D01*
X151947Y119365D01*
X151986Y119542D01*
X152041Y119719D01*
X152119Y119891D01*
X152124Y119896D01*
X152130Y119913D01*
X152141Y119935D01*
X152163Y119963D01*
X152185Y120002D01*
X152213Y120046D01*
X152285Y120146D01*
X152379Y120256D01*
X152490Y120367D01*
X152617Y120478D01*
X152767Y120572D01*
X152772Y120577D01*
X152789Y120583D01*
X152811Y120594D01*
X152839Y120611D01*
X152883Y120627D01*
X152927Y120644D01*
X152983Y120666D01*
X153044Y120688D01*
X153110Y120710D01*
X153182Y120732D01*
X153337Y120766D01*
X153514Y120793D01*
X153697Y120805D01*
X153752D01*
X153791Y120799D01*
D02*
G37*
G36*
X156981Y120749D02*
X157008D01*
X157047Y120744D01*
X157141Y120727D01*
X157246Y120705D01*
X157363Y120666D01*
X157479Y120616D01*
X157595Y120550D01*
X157601D01*
X157606Y120539D01*
X157623Y120528D01*
X157645Y120511D01*
X157700Y120467D01*
X157772Y120406D01*
X157844Y120323D01*
X157927Y120223D01*
X157999Y120107D01*
X158066Y119974D01*
Y119968D01*
X158071Y119957D01*
X158083Y119935D01*
X158094Y119908D01*
X158105Y119869D01*
X158121Y119819D01*
X158132Y119763D01*
X158149Y119703D01*
X158166Y119631D01*
X158182Y119548D01*
X158193Y119459D01*
X158204Y119365D01*
X158215Y119260D01*
X158226Y119149D01*
X158232Y119027D01*
Y118900D01*
Y118894D01*
Y118867D01*
Y118828D01*
Y118778D01*
X158226Y118717D01*
Y118645D01*
X158221Y118562D01*
X158210Y118479D01*
X158193Y118291D01*
X158166Y118091D01*
X158127Y117903D01*
X158099Y117809D01*
X158071Y117726D01*
Y117720D01*
X158066Y117709D01*
X158055Y117687D01*
X158044Y117654D01*
X158027Y117621D01*
X158005Y117576D01*
X157950Y117482D01*
X157883Y117377D01*
X157806Y117266D01*
X157706Y117161D01*
X157595Y117067D01*
X157590D01*
X157579Y117056D01*
X157562Y117045D01*
X157540Y117034D01*
X157507Y117017D01*
X157473Y116995D01*
X157429Y116973D01*
X157385Y116956D01*
X157280Y116912D01*
X157152Y116873D01*
X157014Y116851D01*
X156859Y116840D01*
X156814D01*
X156787Y116845D01*
X156748D01*
X156704Y116851D01*
X156599Y116873D01*
X156482Y116901D01*
X156360Y116945D01*
X156239Y117006D01*
X156178Y117045D01*
X156122Y117089D01*
X156117Y117095D01*
X156111Y117100D01*
X156095Y117117D01*
X156078Y117133D01*
X156056Y117161D01*
X156028Y117194D01*
X155973Y117272D01*
X155917Y117371D01*
X155862Y117493D01*
X155818Y117632D01*
X155785Y117792D01*
X156239Y117831D01*
Y117825D01*
X156244Y117814D01*
Y117803D01*
X156250Y117781D01*
X156266Y117720D01*
X156288Y117654D01*
X156316Y117576D01*
X156355Y117499D01*
X156399Y117427D01*
X156454Y117366D01*
X156460Y117360D01*
X156482Y117344D01*
X156521Y117322D01*
X156565Y117299D01*
X156626Y117272D01*
X156698Y117250D01*
X156781Y117233D01*
X156870Y117227D01*
X156909D01*
X156947Y117233D01*
X156997Y117239D01*
X157058Y117250D01*
X157119Y117266D01*
X157185Y117288D01*
X157246Y117322D01*
X157252Y117327D01*
X157274Y117338D01*
X157307Y117360D01*
X157340Y117394D01*
X157385Y117432D01*
X157429Y117477D01*
X157473Y117527D01*
X157518Y117587D01*
X157523Y117593D01*
X157534Y117621D01*
X157556Y117659D01*
X157579Y117709D01*
X157606Y117776D01*
X157634Y117853D01*
X157662Y117942D01*
X157689Y118041D01*
Y118047D01*
X157695Y118053D01*
Y118069D01*
X157700Y118091D01*
X157711Y118147D01*
X157728Y118219D01*
X157739Y118307D01*
X157750Y118401D01*
X157756Y118507D01*
X157761Y118617D01*
Y118623D01*
Y118639D01*
Y118667D01*
Y118711D01*
X157756Y118700D01*
X157734Y118673D01*
X157700Y118634D01*
X157662Y118579D01*
X157606Y118523D01*
X157540Y118462D01*
X157462Y118401D01*
X157374Y118346D01*
X157363Y118341D01*
X157329Y118324D01*
X157280Y118302D01*
X157219Y118279D01*
X157136Y118252D01*
X157047Y118230D01*
X156947Y118213D01*
X156842Y118208D01*
X156798D01*
X156765Y118213D01*
X156720Y118219D01*
X156676Y118224D01*
X156621Y118235D01*
X156565Y118252D01*
X156438Y118291D01*
X156371Y118318D01*
X156305Y118351D01*
X156233Y118390D01*
X156167Y118440D01*
X156100Y118490D01*
X156039Y118551D01*
X156034Y118556D01*
X156023Y118567D01*
X156011Y118584D01*
X155989Y118612D01*
X155962Y118651D01*
X155934Y118689D01*
X155906Y118739D01*
X155879Y118794D01*
X155845Y118855D01*
X155818Y118922D01*
X155790Y118999D01*
X155762Y119077D01*
X155740Y119165D01*
X155729Y119260D01*
X155718Y119354D01*
X155712Y119459D01*
Y119465D01*
Y119487D01*
Y119514D01*
X155718Y119553D01*
X155724Y119603D01*
X155729Y119664D01*
X155740Y119725D01*
X155757Y119797D01*
X155796Y119941D01*
X155823Y120018D01*
X155857Y120101D01*
X155895Y120179D01*
X155945Y120251D01*
X155995Y120328D01*
X156056Y120395D01*
X156061Y120400D01*
X156073Y120411D01*
X156089Y120428D01*
X156117Y120450D01*
X156150Y120478D01*
X156194Y120511D01*
X156239Y120539D01*
X156294Y120577D01*
X156349Y120611D01*
X156416Y120638D01*
X156565Y120699D01*
X156643Y120722D01*
X156731Y120738D01*
X156820Y120749D01*
X156914Y120755D01*
X156953D01*
X156981Y120749D01*
D02*
G37*
G36*
X206913Y116177D02*
X206985Y116166D01*
X207074Y116150D01*
X207174Y116122D01*
X207273Y116088D01*
X207373Y116044D01*
X207379D01*
X207384Y116039D01*
X207417Y116022D01*
X207467Y115989D01*
X207522Y115950D01*
X207589Y115895D01*
X207655Y115834D01*
X207722Y115762D01*
X207777Y115679D01*
X207783Y115668D01*
X207799Y115640D01*
X207822Y115590D01*
X207849Y115529D01*
X207877Y115457D01*
X207899Y115374D01*
X207916Y115280D01*
X207921Y115186D01*
Y115175D01*
Y115142D01*
X207916Y115097D01*
X207904Y115036D01*
X207888Y114965D01*
X207860Y114887D01*
X207827Y114809D01*
X207783Y114732D01*
X207777Y114721D01*
X207761Y114699D01*
X207727Y114660D01*
X207683Y114616D01*
X207628Y114566D01*
X207561Y114510D01*
X207484Y114461D01*
X207390Y114411D01*
X207395D01*
X207406Y114405D01*
X207423Y114400D01*
X207445Y114394D01*
X207506Y114372D01*
X207583Y114339D01*
X207672Y114295D01*
X207761Y114239D01*
X207844Y114167D01*
X207921Y114084D01*
X207927Y114073D01*
X207949Y114040D01*
X207982Y113984D01*
X208015Y113912D01*
X208048Y113824D01*
X208082Y113719D01*
X208104Y113597D01*
X208109Y113464D01*
Y113458D01*
Y113442D01*
Y113414D01*
X208104Y113381D01*
X208098Y113337D01*
X208087Y113287D01*
X208076Y113231D01*
X208065Y113170D01*
X208021Y113038D01*
X207988Y112966D01*
X207954Y112899D01*
X207910Y112827D01*
X207860Y112755D01*
X207805Y112683D01*
X207738Y112617D01*
X207733Y112611D01*
X207722Y112600D01*
X207700Y112584D01*
X207672Y112561D01*
X207639Y112534D01*
X207594Y112506D01*
X207545Y112473D01*
X207484Y112445D01*
X207423Y112412D01*
X207351Y112379D01*
X207279Y112351D01*
X207196Y112323D01*
X207107Y112301D01*
X207013Y112284D01*
X206919Y112273D01*
X206814Y112268D01*
X206764D01*
X206731Y112273D01*
X206686Y112279D01*
X206637Y112284D01*
X206581Y112296D01*
X206520Y112307D01*
X206387Y112340D01*
X206249Y112395D01*
X206177Y112429D01*
X206110Y112467D01*
X206044Y112517D01*
X205978Y112567D01*
X205972Y112572D01*
X205961Y112584D01*
X205944Y112600D01*
X205928Y112622D01*
X205900Y112650D01*
X205872Y112689D01*
X205839Y112727D01*
X205806Y112777D01*
X205773Y112833D01*
X205739Y112888D01*
X205679Y113021D01*
X205629Y113176D01*
X205612Y113259D01*
X205601Y113348D01*
X206072Y113408D01*
Y113403D01*
X206077Y113392D01*
X206083Y113370D01*
X206088Y113342D01*
X206094Y113309D01*
X206105Y113270D01*
X206133Y113187D01*
X206171Y113087D01*
X206221Y112993D01*
X206277Y112905D01*
X206343Y112827D01*
X206354Y112822D01*
X206376Y112799D01*
X206420Y112772D01*
X206476Y112744D01*
X206542Y112711D01*
X206625Y112683D01*
X206720Y112661D01*
X206819Y112655D01*
X206852D01*
X206875Y112661D01*
X206936Y112667D01*
X207013Y112683D01*
X207102Y112711D01*
X207196Y112750D01*
X207290Y112805D01*
X207379Y112882D01*
X207390Y112894D01*
X207417Y112927D01*
X207451Y112977D01*
X207495Y113043D01*
X207539Y113126D01*
X207572Y113220D01*
X207600Y113331D01*
X207611Y113453D01*
Y113458D01*
Y113469D01*
Y113486D01*
X207605Y113508D01*
X207600Y113569D01*
X207583Y113641D01*
X207561Y113730D01*
X207522Y113818D01*
X207467Y113907D01*
X207395Y113990D01*
X207384Y114001D01*
X207356Y114023D01*
X207312Y114056D01*
X207251Y114095D01*
X207174Y114134D01*
X207080Y114167D01*
X206974Y114189D01*
X206858Y114200D01*
X206808D01*
X206769Y114195D01*
X206720Y114189D01*
X206664Y114178D01*
X206598Y114167D01*
X206526Y114150D01*
X206581Y114566D01*
X206609D01*
X206631Y114560D01*
X206703D01*
X206764Y114571D01*
X206836Y114582D01*
X206919Y114599D01*
X207013Y114627D01*
X207102Y114665D01*
X207196Y114715D01*
X207201D01*
X207207Y114721D01*
X207234Y114743D01*
X207273Y114782D01*
X207318Y114832D01*
X207362Y114904D01*
X207401Y114987D01*
X207428Y115081D01*
X207439Y115136D01*
Y115197D01*
Y115203D01*
Y115208D01*
Y115241D01*
X207428Y115286D01*
X207417Y115347D01*
X207395Y115413D01*
X207367Y115485D01*
X207323Y115557D01*
X207262Y115623D01*
X207257Y115629D01*
X207229Y115651D01*
X207190Y115679D01*
X207140Y115712D01*
X207074Y115740D01*
X206996Y115767D01*
X206908Y115789D01*
X206808Y115795D01*
X206764D01*
X206714Y115784D01*
X206648Y115773D01*
X206576Y115751D01*
X206504Y115723D01*
X206426Y115679D01*
X206354Y115623D01*
X206349Y115618D01*
X206326Y115590D01*
X206293Y115551D01*
X206254Y115496D01*
X206216Y115424D01*
X206177Y115336D01*
X206144Y115230D01*
X206122Y115108D01*
X205651Y115191D01*
Y115197D01*
X205656Y115214D01*
X205662Y115236D01*
X205667Y115269D01*
X205679Y115308D01*
X205695Y115352D01*
X205728Y115457D01*
X205784Y115579D01*
X205850Y115701D01*
X205933Y115817D01*
X206038Y115922D01*
X206044Y115928D01*
X206055Y115934D01*
X206072Y115945D01*
X206094Y115961D01*
X206122Y115983D01*
X206160Y116005D01*
X206199Y116028D01*
X206249Y116055D01*
X206360Y116100D01*
X206487Y116144D01*
X206637Y116172D01*
X206714Y116183D01*
X206852D01*
X206913Y116177D01*
D02*
G37*
G36*
X204942Y113951D02*
Y113946D01*
Y113924D01*
Y113896D01*
Y113857D01*
X204937Y113807D01*
Y113752D01*
X204931Y113685D01*
X204925Y113619D01*
X204909Y113469D01*
X204887Y113314D01*
X204853Y113165D01*
X204831Y113093D01*
X204809Y113027D01*
Y113021D01*
X204804Y113010D01*
X204793Y112993D01*
X204781Y112971D01*
X204748Y112910D01*
X204699Y112833D01*
X204632Y112744D01*
X204555Y112655D01*
X204455Y112561D01*
X204333Y112478D01*
X204328D01*
X204316Y112467D01*
X204300Y112462D01*
X204272Y112445D01*
X204239Y112429D01*
X204195Y112412D01*
X204150Y112395D01*
X204095Y112373D01*
X204034Y112351D01*
X203968Y112334D01*
X203896Y112318D01*
X203813Y112301D01*
X203729Y112290D01*
X203641Y112279D01*
X203442Y112268D01*
X203392D01*
X203353Y112273D01*
X203309D01*
X203253Y112279D01*
X203192Y112284D01*
X203131Y112290D01*
X202993Y112312D01*
X202843Y112345D01*
X202700Y112390D01*
X202561Y112451D01*
X202556D01*
X202544Y112462D01*
X202528Y112473D01*
X202506Y112484D01*
X202445Y112528D01*
X202373Y112589D01*
X202290Y112667D01*
X202212Y112755D01*
X202135Y112866D01*
X202074Y112988D01*
Y112993D01*
X202068Y113004D01*
X202063Y113027D01*
X202052Y113054D01*
X202041Y113087D01*
X202029Y113132D01*
X202013Y113181D01*
X202002Y113242D01*
X201991Y113309D01*
X201974Y113381D01*
X201963Y113458D01*
X201952Y113541D01*
X201941Y113636D01*
X201935Y113735D01*
X201930Y113840D01*
Y113951D01*
Y116166D01*
X202439D01*
Y113951D01*
Y113946D01*
Y113929D01*
Y113901D01*
Y113868D01*
X202445Y113829D01*
Y113779D01*
X202450Y113674D01*
X202461Y113553D01*
X202478Y113431D01*
X202500Y113314D01*
X202511Y113265D01*
X202528Y113215D01*
X202533Y113204D01*
X202544Y113176D01*
X202572Y113137D01*
X202605Y113082D01*
X202644Y113027D01*
X202700Y112966D01*
X202766Y112905D01*
X202843Y112855D01*
X202855Y112849D01*
X202882Y112833D01*
X202932Y112816D01*
X202999Y112794D01*
X203076Y112766D01*
X203176Y112750D01*
X203281Y112733D01*
X203397Y112727D01*
X203453D01*
X203486Y112733D01*
X203536D01*
X203585Y112739D01*
X203707Y112761D01*
X203840Y112788D01*
X203968Y112833D01*
X204089Y112894D01*
X204145Y112932D01*
X204195Y112977D01*
X204200Y112982D01*
X204206Y112988D01*
X204217Y113004D01*
X204233Y113027D01*
X204250Y113060D01*
X204272Y113093D01*
X204294Y113143D01*
X204316Y113193D01*
X204339Y113253D01*
X204355Y113326D01*
X204377Y113408D01*
X204394Y113497D01*
X204410Y113597D01*
X204422Y113702D01*
X204433Y113824D01*
Y113951D01*
Y116166D01*
X204942D01*
Y113951D01*
D02*
G37*
G36*
X146746Y196315D02*
X143750D01*
X143756Y196309D01*
X143778Y196282D01*
X143811Y196248D01*
X143850Y196193D01*
X143899Y196132D01*
X143955Y196054D01*
X144016Y195966D01*
X144077Y195866D01*
Y195861D01*
X144082Y195855D01*
X144104Y195822D01*
X144132Y195767D01*
X144165Y195700D01*
X144204Y195623D01*
X144243Y195540D01*
X144282Y195457D01*
X144315Y195373D01*
X143861D01*
Y195379D01*
X143850Y195390D01*
X143844Y195412D01*
X143827Y195440D01*
X143811Y195473D01*
X143789Y195512D01*
X143733Y195606D01*
X143673Y195717D01*
X143595Y195828D01*
X143506Y195944D01*
X143412Y196060D01*
X143407Y196066D01*
X143401Y196071D01*
X143385Y196088D01*
X143368Y196110D01*
X143313Y196160D01*
X143246Y196226D01*
X143169Y196293D01*
X143080Y196365D01*
X142991Y196425D01*
X142897Y196481D01*
Y196786D01*
X146746D01*
Y196315D01*
D02*
G37*
G36*
Y193336D02*
X143750D01*
X143756Y193330D01*
X143778Y193303D01*
X143811Y193269D01*
X143850Y193214D01*
X143899Y193153D01*
X143955Y193076D01*
X144016Y192987D01*
X144077Y192887D01*
Y192882D01*
X144082Y192876D01*
X144104Y192843D01*
X144132Y192788D01*
X144165Y192721D01*
X144204Y192644D01*
X144243Y192561D01*
X144282Y192477D01*
X144315Y192395D01*
X143861D01*
Y192400D01*
X143850Y192411D01*
X143844Y192433D01*
X143827Y192461D01*
X143811Y192494D01*
X143789Y192533D01*
X143733Y192627D01*
X143673Y192738D01*
X143595Y192848D01*
X143506Y192965D01*
X143412Y193081D01*
X143407Y193087D01*
X143401Y193092D01*
X143385Y193109D01*
X143368Y193131D01*
X143313Y193181D01*
X143246Y193247D01*
X143169Y193314D01*
X143080Y193386D01*
X142991Y193447D01*
X142897Y193502D01*
Y193806D01*
X146746D01*
Y193336D01*
D02*
G37*
G36*
X145561Y191597D02*
X145594Y191586D01*
X145638Y191569D01*
X145688Y191553D01*
X145749Y191531D01*
X145815Y191503D01*
X145887Y191470D01*
X146042Y191392D01*
X146197Y191293D01*
X146275Y191232D01*
X146353Y191171D01*
X146419Y191104D01*
X146485Y191027D01*
X146491Y191021D01*
X146502Y191010D01*
X146513Y190982D01*
X146535Y190955D01*
X146563Y190910D01*
X146591Y190866D01*
X146618Y190805D01*
X146646Y190744D01*
X146679Y190672D01*
X146707Y190595D01*
X146735Y190512D01*
X146762Y190423D01*
X146784Y190329D01*
X146796Y190229D01*
X146806Y190124D01*
X146812Y190014D01*
Y189953D01*
X146806Y189908D01*
Y189858D01*
X146801Y189797D01*
X146790Y189731D01*
X146779Y189653D01*
X146751Y189493D01*
X146707Y189327D01*
X146646Y189161D01*
X146607Y189083D01*
X146563Y189006D01*
X146557Y189000D01*
X146552Y188989D01*
X146535Y188967D01*
X146513Y188945D01*
X146491Y188912D01*
X146458Y188873D01*
X146419Y188829D01*
X146375Y188784D01*
X146325Y188740D01*
X146275Y188690D01*
X146148Y188590D01*
X145998Y188496D01*
X145832Y188413D01*
X145827D01*
X145810Y188402D01*
X145782Y188397D01*
X145749Y188380D01*
X145705Y188369D01*
X145649Y188352D01*
X145588Y188330D01*
X145522Y188314D01*
X145450Y188297D01*
X145367Y188275D01*
X145195Y188247D01*
X145001Y188225D01*
X144802Y188214D01*
X144796D01*
X144774D01*
X144741D01*
X144702Y188219D01*
X144647D01*
X144592Y188225D01*
X144520Y188230D01*
X144448Y188242D01*
X144287Y188269D01*
X144110Y188308D01*
X143933Y188363D01*
X143761Y188441D01*
X143756Y188446D01*
X143739Y188452D01*
X143717Y188463D01*
X143689Y188485D01*
X143650Y188507D01*
X143606Y188535D01*
X143506Y188607D01*
X143396Y188701D01*
X143285Y188812D01*
X143174Y188939D01*
X143080Y189089D01*
X143075Y189094D01*
X143069Y189111D01*
X143058Y189133D01*
X143041Y189161D01*
X143025Y189205D01*
X143008Y189249D01*
X142986Y189305D01*
X142964Y189366D01*
X142942Y189432D01*
X142919Y189504D01*
X142886Y189659D01*
X142858Y189836D01*
X142847Y190019D01*
Y190074D01*
X142853Y190113D01*
X142858Y190163D01*
X142864Y190224D01*
X142870Y190285D01*
X142886Y190357D01*
X142919Y190506D01*
X142969Y190672D01*
X143003Y190755D01*
X143041Y190833D01*
X143091Y190910D01*
X143141Y190988D01*
X143146Y190993D01*
X143152Y191005D01*
X143169Y191027D01*
X143196Y191054D01*
X143224Y191082D01*
X143263Y191121D01*
X143307Y191160D01*
X143351Y191204D01*
X143407Y191248D01*
X143473Y191293D01*
X143540Y191342D01*
X143612Y191387D01*
X143695Y191425D01*
X143778Y191470D01*
X143866Y191503D01*
X143966Y191536D01*
X144082Y191038D01*
X144077D01*
X144066Y191032D01*
X144044Y191021D01*
X144016Y191010D01*
X143983Y190999D01*
X143938Y190982D01*
X143850Y190938D01*
X143750Y190883D01*
X143650Y190816D01*
X143556Y190733D01*
X143473Y190645D01*
X143462Y190634D01*
X143440Y190600D01*
X143412Y190545D01*
X143373Y190473D01*
X143340Y190379D01*
X143307Y190274D01*
X143285Y190146D01*
X143279Y190008D01*
Y189964D01*
X143285Y189936D01*
Y189897D01*
X143290Y189853D01*
X143307Y189748D01*
X143329Y189631D01*
X143368Y189510D01*
X143423Y189382D01*
X143495Y189266D01*
Y189260D01*
X143506Y189255D01*
X143534Y189216D01*
X143578Y189166D01*
X143645Y189105D01*
X143728Y189033D01*
X143822Y188967D01*
X143938Y188906D01*
X144066Y188851D01*
X144071D01*
X144082Y188845D01*
X144099Y188840D01*
X144127Y188834D01*
X144160Y188823D01*
X144199Y188812D01*
X144293Y188795D01*
X144403Y188773D01*
X144525Y188751D01*
X144658Y188740D01*
X144802Y188734D01*
X144808D01*
X144824D01*
X144852D01*
X144885D01*
X144924Y188740D01*
X144974D01*
X145029Y188745D01*
X145090Y188751D01*
X145223Y188768D01*
X145367Y188795D01*
X145511Y188829D01*
X145655Y188873D01*
X145660D01*
X145671Y188878D01*
X145688Y188889D01*
X145716Y188901D01*
X145782Y188934D01*
X145860Y188983D01*
X145948Y189044D01*
X146042Y189122D01*
X146125Y189211D01*
X146203Y189316D01*
Y189321D01*
X146208Y189332D01*
X146220Y189349D01*
X146231Y189371D01*
X146242Y189399D01*
X146258Y189432D01*
X146292Y189510D01*
X146325Y189609D01*
X146353Y189720D01*
X146375Y189842D01*
X146380Y189969D01*
Y190008D01*
X146375Y190041D01*
Y190080D01*
X146369Y190119D01*
X146347Y190218D01*
X146319Y190335D01*
X146275Y190451D01*
X146214Y190573D01*
X146181Y190634D01*
X146137Y190689D01*
X146131Y190695D01*
X146125Y190700D01*
X146109Y190717D01*
X146092Y190739D01*
X146065Y190761D01*
X146031Y190789D01*
X145998Y190822D01*
X145954Y190850D01*
X145904Y190883D01*
X145849Y190922D01*
X145793Y190955D01*
X145727Y190988D01*
X145655Y191016D01*
X145577Y191043D01*
X145494Y191071D01*
X145406Y191093D01*
X145533Y191603D01*
X145539D01*
X145561Y191597D01*
D02*
G37*
G36*
X492757Y130778D02*
X492801Y130772D01*
X492851Y130766D01*
X492912Y130755D01*
X492972Y130744D01*
X493116Y130711D01*
X493266Y130656D01*
X493344Y130623D01*
X493415Y130578D01*
X493493Y130534D01*
X493565Y130479D01*
X493571Y130473D01*
X493587Y130462D01*
X493609Y130440D01*
X493637Y130412D01*
X493670Y130373D01*
X493714Y130329D01*
X493753Y130274D01*
X493797Y130213D01*
X493842Y130146D01*
X493881Y130069D01*
X493919Y129986D01*
X493958Y129897D01*
X493986Y129803D01*
X494008Y129698D01*
X494025Y129587D01*
X494030Y129471D01*
Y129421D01*
X494025Y129382D01*
X494019Y129338D01*
X494013Y129288D01*
X494008Y129227D01*
X493991Y129166D01*
X493958Y129028D01*
X493908Y128889D01*
X493875Y128817D01*
X493836Y128745D01*
X493792Y128679D01*
X493742Y128612D01*
X493737Y128607D01*
X493731Y128596D01*
X493709Y128585D01*
X493687Y128563D01*
X493659Y128535D01*
X493626Y128507D01*
X493582Y128474D01*
X493532Y128446D01*
X493482Y128413D01*
X493421Y128380D01*
X493288Y128319D01*
X493133Y128269D01*
X493050Y128253D01*
X492961Y128242D01*
X492923Y128734D01*
X492928D01*
X492939D01*
X492956Y128740D01*
X492984Y128745D01*
X493045Y128762D01*
X493128Y128784D01*
X493211Y128817D01*
X493305Y128862D01*
X493388Y128917D01*
X493465Y128983D01*
X493471Y128995D01*
X493493Y129017D01*
X493521Y129061D01*
X493554Y129122D01*
X493587Y129188D01*
X493615Y129271D01*
X493637Y129366D01*
X493643Y129471D01*
Y129504D01*
X493637Y129526D01*
X493631Y129593D01*
X493609Y129670D01*
X493582Y129764D01*
X493537Y129858D01*
X493471Y129958D01*
X493432Y130002D01*
X493388Y130047D01*
X493382Y130052D01*
X493377Y130058D01*
X493360Y130069D01*
X493344Y130085D01*
X493283Y130124D01*
X493205Y130169D01*
X493111Y130207D01*
X492995Y130246D01*
X492856Y130274D01*
X492784Y130285D01*
X492707D01*
X492701D01*
X492690D01*
X492668D01*
X492640Y130279D01*
X492607D01*
X492568Y130274D01*
X492480Y130257D01*
X492374Y130229D01*
X492269Y130191D01*
X492170Y130135D01*
X492076Y130058D01*
X492070D01*
X492064Y130047D01*
X492037Y130019D01*
X491998Y129969D01*
X491954Y129903D01*
X491915Y129814D01*
X491876Y129714D01*
X491848Y129598D01*
X491837Y129532D01*
Y129426D01*
X491843Y129382D01*
X491848Y129327D01*
X491865Y129260D01*
X491882Y129194D01*
X491909Y129122D01*
X491943Y129050D01*
X491948Y129044D01*
X491959Y129022D01*
X491987Y128989D01*
X492015Y128945D01*
X492053Y128900D01*
X492103Y128856D01*
X492153Y128806D01*
X492214Y128768D01*
X492153Y128325D01*
X490182Y128696D01*
Y130600D01*
X490630D01*
Y129067D01*
X491666Y128862D01*
X491660Y128867D01*
X491655Y128878D01*
X491644Y128895D01*
X491627Y128923D01*
X491610Y128956D01*
X491588Y128995D01*
X491544Y129083D01*
X491500Y129194D01*
X491461Y129316D01*
X491433Y129449D01*
X491422Y129515D01*
Y129637D01*
X491428Y129670D01*
X491433Y129714D01*
X491439Y129764D01*
X491450Y129820D01*
X491466Y129881D01*
X491505Y130013D01*
X491533Y130085D01*
X491572Y130157D01*
X491610Y130229D01*
X491655Y130301D01*
X491710Y130368D01*
X491771Y130434D01*
X491777Y130440D01*
X491787Y130451D01*
X491804Y130468D01*
X491832Y130490D01*
X491871Y130517D01*
X491909Y130545D01*
X491959Y130578D01*
X492015Y130611D01*
X492076Y130639D01*
X492142Y130672D01*
X492219Y130700D01*
X492297Y130728D01*
X492380Y130750D01*
X492474Y130766D01*
X492568Y130778D01*
X492668Y130783D01*
X492673D01*
X492690D01*
X492718D01*
X492757Y130778D01*
D02*
G37*
G36*
X493964Y126564D02*
X490968D01*
X490974Y126558D01*
X490996Y126531D01*
X491029Y126497D01*
X491068Y126442D01*
X491118Y126381D01*
X491173Y126304D01*
X491234Y126215D01*
X491295Y126115D01*
Y126110D01*
X491300Y126104D01*
X491322Y126071D01*
X491350Y126016D01*
X491383Y125949D01*
X491422Y125872D01*
X491461Y125788D01*
X491500Y125705D01*
X491533Y125622D01*
X491079D01*
Y125628D01*
X491068Y125639D01*
X491062Y125661D01*
X491046Y125689D01*
X491029Y125722D01*
X491007Y125761D01*
X490951Y125855D01*
X490891Y125966D01*
X490813Y126076D01*
X490724Y126193D01*
X490630Y126309D01*
X490625Y126315D01*
X490619Y126320D01*
X490603Y126337D01*
X490586Y126359D01*
X490531Y126409D01*
X490464Y126475D01*
X490387Y126542D01*
X490298Y126614D01*
X490209Y126674D01*
X490115Y126730D01*
Y127034D01*
X493964D01*
Y126564D01*
D02*
G37*
G36*
X492779Y124825D02*
X492812Y124814D01*
X492856Y124797D01*
X492906Y124781D01*
X492967Y124759D01*
X493033Y124731D01*
X493105Y124698D01*
X493260Y124620D01*
X493415Y124521D01*
X493493Y124460D01*
X493571Y124399D01*
X493637Y124332D01*
X493703Y124255D01*
X493709Y124249D01*
X493720Y124238D01*
X493731Y124210D01*
X493753Y124183D01*
X493781Y124138D01*
X493809Y124094D01*
X493836Y124033D01*
X493864Y123972D01*
X493897Y123900D01*
X493925Y123823D01*
X493953Y123740D01*
X493980Y123651D01*
X494002Y123557D01*
X494013Y123457D01*
X494025Y123352D01*
X494030Y123241D01*
Y123181D01*
X494025Y123136D01*
Y123086D01*
X494019Y123026D01*
X494008Y122959D01*
X493997Y122881D01*
X493969Y122721D01*
X493925Y122555D01*
X493864Y122389D01*
X493825Y122311D01*
X493781Y122234D01*
X493775Y122228D01*
X493770Y122217D01*
X493753Y122195D01*
X493731Y122173D01*
X493709Y122140D01*
X493676Y122101D01*
X493637Y122057D01*
X493593Y122012D01*
X493543Y121968D01*
X493493Y121918D01*
X493366Y121818D01*
X493216Y121724D01*
X493050Y121641D01*
X493045D01*
X493028Y121630D01*
X493000Y121625D01*
X492967Y121608D01*
X492923Y121597D01*
X492867Y121580D01*
X492806Y121558D01*
X492740Y121542D01*
X492668Y121525D01*
X492585Y121503D01*
X492413Y121475D01*
X492219Y121453D01*
X492020Y121442D01*
X492015D01*
X491992D01*
X491959D01*
X491920Y121447D01*
X491865D01*
X491810Y121453D01*
X491738Y121459D01*
X491666Y121469D01*
X491505Y121497D01*
X491328Y121536D01*
X491151Y121591D01*
X490979Y121669D01*
X490974Y121674D01*
X490957Y121680D01*
X490935Y121691D01*
X490907Y121713D01*
X490868Y121735D01*
X490824Y121763D01*
X490724Y121835D01*
X490614Y121929D01*
X490503Y122040D01*
X490392Y122167D01*
X490298Y122317D01*
X490293Y122322D01*
X490287Y122339D01*
X490276Y122361D01*
X490259Y122389D01*
X490243Y122433D01*
X490226Y122477D01*
X490204Y122533D01*
X490182Y122594D01*
X490160Y122660D01*
X490137Y122732D01*
X490104Y122887D01*
X490076Y123064D01*
X490065Y123247D01*
Y123302D01*
X490071Y123341D01*
X490076Y123391D01*
X490082Y123452D01*
X490088Y123513D01*
X490104Y123585D01*
X490137Y123734D01*
X490187Y123900D01*
X490220Y123983D01*
X490259Y124061D01*
X490309Y124138D01*
X490359Y124216D01*
X490364Y124221D01*
X490370Y124233D01*
X490387Y124255D01*
X490414Y124282D01*
X490442Y124310D01*
X490481Y124349D01*
X490525Y124388D01*
X490569Y124432D01*
X490625Y124476D01*
X490691Y124521D01*
X490758Y124570D01*
X490830Y124615D01*
X490913Y124653D01*
X490996Y124698D01*
X491084Y124731D01*
X491184Y124764D01*
X491300Y124266D01*
X491295D01*
X491284Y124260D01*
X491261Y124249D01*
X491234Y124238D01*
X491201Y124227D01*
X491156Y124210D01*
X491068Y124166D01*
X490968Y124111D01*
X490868Y124044D01*
X490774Y123961D01*
X490691Y123873D01*
X490680Y123862D01*
X490658Y123828D01*
X490630Y123773D01*
X490592Y123701D01*
X490558Y123607D01*
X490525Y123502D01*
X490503Y123374D01*
X490497Y123236D01*
Y123192D01*
X490503Y123164D01*
Y123125D01*
X490508Y123081D01*
X490525Y122976D01*
X490547Y122859D01*
X490586Y122738D01*
X490641Y122610D01*
X490713Y122494D01*
Y122488D01*
X490724Y122483D01*
X490752Y122444D01*
X490796Y122394D01*
X490863Y122333D01*
X490946Y122261D01*
X491040Y122195D01*
X491156Y122134D01*
X491284Y122079D01*
X491289D01*
X491300Y122073D01*
X491317Y122067D01*
X491345Y122062D01*
X491378Y122051D01*
X491417Y122040D01*
X491511Y122023D01*
X491621Y122001D01*
X491743Y121979D01*
X491876Y121968D01*
X492020Y121962D01*
X492026D01*
X492042D01*
X492070D01*
X492103D01*
X492142Y121968D01*
X492192D01*
X492247Y121973D01*
X492308Y121979D01*
X492441Y121996D01*
X492585Y122023D01*
X492729Y122057D01*
X492873Y122101D01*
X492878D01*
X492889Y122106D01*
X492906Y122117D01*
X492934Y122128D01*
X493000Y122162D01*
X493078Y122212D01*
X493166Y122272D01*
X493260Y122350D01*
X493344Y122438D01*
X493421Y122544D01*
Y122549D01*
X493427Y122560D01*
X493438Y122577D01*
X493449Y122599D01*
X493460Y122627D01*
X493476Y122660D01*
X493510Y122738D01*
X493543Y122837D01*
X493571Y122948D01*
X493593Y123070D01*
X493598Y123197D01*
Y123236D01*
X493593Y123269D01*
Y123308D01*
X493587Y123347D01*
X493565Y123446D01*
X493537Y123563D01*
X493493Y123679D01*
X493432Y123801D01*
X493399Y123862D01*
X493355Y123917D01*
X493349Y123923D01*
X493344Y123928D01*
X493327Y123945D01*
X493310Y123967D01*
X493283Y123989D01*
X493249Y124017D01*
X493216Y124050D01*
X493172Y124078D01*
X493122Y124111D01*
X493067Y124150D01*
X493011Y124183D01*
X492945Y124216D01*
X492873Y124244D01*
X492795Y124271D01*
X492712Y124299D01*
X492624Y124321D01*
X492751Y124831D01*
X492757D01*
X492779Y124825D01*
D02*
G37*
G36*
X229545Y52319D02*
X229589Y52313D01*
X229639Y52308D01*
X229694Y52296D01*
X229755Y52285D01*
X229888Y52252D01*
X230026Y52197D01*
X230098Y52164D01*
X230165Y52125D01*
X230231Y52075D01*
X230298Y52025D01*
X230303Y52020D01*
X230314Y52009D01*
X230331Y51992D01*
X230347Y51970D01*
X230375Y51942D01*
X230403Y51903D01*
X230436Y51865D01*
X230469Y51815D01*
X230502Y51759D01*
X230536Y51704D01*
X230597Y51571D01*
X230646Y51416D01*
X230663Y51333D01*
X230674Y51244D01*
X230203Y51183D01*
Y51189D01*
X230198Y51200D01*
X230192Y51222D01*
X230187Y51250D01*
X230181Y51283D01*
X230170Y51322D01*
X230142Y51405D01*
X230104Y51505D01*
X230054Y51599D01*
X229998Y51687D01*
X229932Y51765D01*
X229921Y51770D01*
X229899Y51792D01*
X229855Y51820D01*
X229799Y51848D01*
X229733Y51881D01*
X229650Y51909D01*
X229556Y51931D01*
X229456Y51936D01*
X229423D01*
X229401Y51931D01*
X229340Y51925D01*
X229262Y51909D01*
X229174Y51881D01*
X229079Y51842D01*
X228985Y51787D01*
X228897Y51709D01*
X228886Y51698D01*
X228858Y51665D01*
X228825Y51615D01*
X228780Y51549D01*
X228736Y51466D01*
X228703Y51372D01*
X228675Y51261D01*
X228664Y51139D01*
Y51134D01*
Y51122D01*
Y51106D01*
X228670Y51084D01*
X228675Y51023D01*
X228692Y50951D01*
X228714Y50862D01*
X228753Y50774D01*
X228808Y50685D01*
X228880Y50602D01*
X228891Y50591D01*
X228919Y50569D01*
X228963Y50536D01*
X229024Y50497D01*
X229102Y50458D01*
X229196Y50425D01*
X229301Y50403D01*
X229417Y50392D01*
X229467D01*
X229506Y50397D01*
X229556Y50403D01*
X229611Y50414D01*
X229677Y50425D01*
X229749Y50441D01*
X229694Y50026D01*
X229666D01*
X229644Y50032D01*
X229572D01*
X229511Y50021D01*
X229439Y50009D01*
X229356Y49993D01*
X229262Y49965D01*
X229174Y49927D01*
X229079Y49877D01*
X229074D01*
X229068Y49871D01*
X229041Y49849D01*
X229002Y49810D01*
X228958Y49760D01*
X228913Y49688D01*
X228874Y49605D01*
X228847Y49511D01*
X228836Y49456D01*
Y49395D01*
Y49389D01*
Y49384D01*
Y49351D01*
X228847Y49306D01*
X228858Y49245D01*
X228880Y49179D01*
X228908Y49107D01*
X228952Y49035D01*
X229013Y48969D01*
X229018Y48963D01*
X229046Y48941D01*
X229085Y48913D01*
X229135Y48880D01*
X229201Y48852D01*
X229279Y48825D01*
X229367Y48802D01*
X229467Y48797D01*
X229511D01*
X229561Y48808D01*
X229628Y48819D01*
X229699Y48841D01*
X229771Y48869D01*
X229849Y48913D01*
X229921Y48969D01*
X229927Y48974D01*
X229949Y49002D01*
X229982Y49040D01*
X230021Y49096D01*
X230060Y49168D01*
X230098Y49257D01*
X230131Y49362D01*
X230154Y49483D01*
X230624Y49400D01*
Y49395D01*
X230619Y49378D01*
X230613Y49356D01*
X230608Y49323D01*
X230597Y49284D01*
X230580Y49240D01*
X230547Y49135D01*
X230491Y49013D01*
X230425Y48891D01*
X230342Y48775D01*
X230237Y48670D01*
X230231Y48664D01*
X230220Y48658D01*
X230203Y48647D01*
X230181Y48631D01*
X230154Y48609D01*
X230115Y48587D01*
X230076Y48564D01*
X230026Y48537D01*
X229916Y48492D01*
X229788Y48448D01*
X229639Y48420D01*
X229561Y48409D01*
X229423D01*
X229362Y48415D01*
X229290Y48426D01*
X229201Y48443D01*
X229102Y48470D01*
X229002Y48503D01*
X228902Y48548D01*
X228897D01*
X228891Y48553D01*
X228858Y48570D01*
X228808Y48603D01*
X228753Y48642D01*
X228686Y48697D01*
X228620Y48758D01*
X228553Y48830D01*
X228498Y48913D01*
X228492Y48924D01*
X228476Y48952D01*
X228454Y49002D01*
X228426Y49063D01*
X228398Y49135D01*
X228376Y49218D01*
X228360Y49312D01*
X228354Y49406D01*
Y49417D01*
Y49450D01*
X228360Y49495D01*
X228371Y49556D01*
X228387Y49627D01*
X228415Y49705D01*
X228448Y49783D01*
X228492Y49860D01*
X228498Y49871D01*
X228515Y49893D01*
X228548Y49932D01*
X228592Y49976D01*
X228647Y50026D01*
X228714Y50082D01*
X228791Y50131D01*
X228886Y50181D01*
X228880D01*
X228869Y50187D01*
X228852Y50192D01*
X228830Y50198D01*
X228769Y50220D01*
X228692Y50253D01*
X228603Y50297D01*
X228515Y50353D01*
X228431Y50425D01*
X228354Y50508D01*
X228349Y50519D01*
X228326Y50552D01*
X228293Y50608D01*
X228260Y50679D01*
X228227Y50768D01*
X228193Y50873D01*
X228171Y50995D01*
X228166Y51128D01*
Y51134D01*
Y51150D01*
Y51178D01*
X228171Y51211D01*
X228177Y51255D01*
X228188Y51305D01*
X228199Y51361D01*
X228210Y51421D01*
X228254Y51554D01*
X228288Y51626D01*
X228321Y51693D01*
X228365Y51765D01*
X228415Y51837D01*
X228470Y51909D01*
X228537Y51975D01*
X228542Y51981D01*
X228553Y51992D01*
X228575Y52009D01*
X228603Y52031D01*
X228636Y52058D01*
X228681Y52086D01*
X228731Y52119D01*
X228791Y52147D01*
X228852Y52180D01*
X228924Y52213D01*
X228996Y52241D01*
X229079Y52269D01*
X229168Y52291D01*
X229262Y52308D01*
X229356Y52319D01*
X229461Y52324D01*
X229511D01*
X229545Y52319D01*
D02*
G37*
G36*
X232479D02*
X232523Y52313D01*
X232568Y52308D01*
X232684Y52285D01*
X232806Y52252D01*
X232933Y52202D01*
X233000Y52169D01*
X233061Y52130D01*
X233116Y52086D01*
X233171Y52036D01*
X233177Y52031D01*
X233182Y52025D01*
X233193Y52003D01*
X233210Y51981D01*
X233232Y51953D01*
X233254Y51914D01*
X233277Y51870D01*
X233304Y51820D01*
X233326Y51765D01*
X233349Y51698D01*
X233371Y51632D01*
X233393Y51554D01*
X233404Y51471D01*
X233421Y51377D01*
X233426Y51283D01*
Y51178D01*
X232966Y51111D01*
Y51117D01*
Y51128D01*
Y51150D01*
X232961Y51183D01*
X232955Y51217D01*
Y51255D01*
X232939Y51350D01*
X232922Y51449D01*
X232889Y51549D01*
X232856Y51638D01*
X232834Y51676D01*
X232806Y51709D01*
X232800Y51715D01*
X232778Y51732D01*
X232745Y51759D01*
X232701Y51787D01*
X232640Y51820D01*
X232573Y51842D01*
X232490Y51865D01*
X232402Y51870D01*
X232369D01*
X232335Y51865D01*
X232285Y51859D01*
X232236Y51848D01*
X232180Y51837D01*
X232125Y51815D01*
X232069Y51787D01*
X232064Y51781D01*
X232047Y51770D01*
X232025Y51748D01*
X231992Y51726D01*
X231964Y51687D01*
X231931Y51649D01*
X231903Y51604D01*
X231881Y51549D01*
Y51543D01*
X231870Y51521D01*
X231865Y51482D01*
X231854Y51433D01*
X231842Y51366D01*
X231837Y51283D01*
X231826Y51183D01*
Y51067D01*
Y48426D01*
X231316D01*
Y51039D01*
Y51045D01*
Y51062D01*
Y51084D01*
Y51117D01*
X231322Y51161D01*
Y51206D01*
X231333Y51311D01*
X231344Y51433D01*
X231366Y51560D01*
X231399Y51676D01*
X231438Y51787D01*
Y51792D01*
X231444Y51798D01*
X231460Y51831D01*
X231488Y51876D01*
X231527Y51936D01*
X231582Y51997D01*
X231643Y52064D01*
X231721Y52130D01*
X231809Y52186D01*
X231820Y52191D01*
X231854Y52208D01*
X231903Y52230D01*
X231975Y52252D01*
X232064Y52280D01*
X232164Y52302D01*
X232274Y52319D01*
X232396Y52324D01*
X232446D01*
X232479Y52319D01*
D02*
G37*
G36*
X433964Y37777D02*
Y37771D01*
Y37754D01*
Y37732D01*
Y37699D01*
X433958Y37655D01*
Y37610D01*
X433947Y37505D01*
X433936Y37383D01*
X433914Y37256D01*
X433881Y37140D01*
X433842Y37029D01*
Y37023D01*
X433836Y37018D01*
X433820Y36985D01*
X433792Y36940D01*
X433753Y36879D01*
X433698Y36819D01*
X433637Y36752D01*
X433559Y36686D01*
X433471Y36630D01*
X433460Y36625D01*
X433426Y36608D01*
X433377Y36586D01*
X433305Y36564D01*
X433216Y36536D01*
X433116Y36514D01*
X433006Y36497D01*
X432884Y36492D01*
X432834D01*
X432801Y36497D01*
X432756Y36503D01*
X432712Y36509D01*
X432596Y36531D01*
X432474Y36564D01*
X432347Y36614D01*
X432280Y36647D01*
X432219Y36686D01*
X432164Y36730D01*
X432109Y36780D01*
X432103Y36785D01*
X432098Y36791D01*
X432086Y36813D01*
X432070Y36835D01*
X432048Y36863D01*
X432025Y36902D01*
X432003Y36946D01*
X431976Y36996D01*
X431954Y37051D01*
X431931Y37118D01*
X431909Y37184D01*
X431887Y37262D01*
X431876Y37345D01*
X431859Y37439D01*
X431854Y37533D01*
Y37638D01*
X432313Y37705D01*
Y37699D01*
Y37688D01*
Y37666D01*
X432319Y37633D01*
X432324Y37599D01*
Y37561D01*
X432341Y37466D01*
X432358Y37367D01*
X432391Y37267D01*
X432424Y37178D01*
X432446Y37140D01*
X432474Y37106D01*
X432480Y37101D01*
X432502Y37084D01*
X432535Y37057D01*
X432579Y37029D01*
X432640Y36996D01*
X432707Y36974D01*
X432790Y36951D01*
X432878Y36946D01*
X432911D01*
X432945Y36951D01*
X432994Y36957D01*
X433044Y36968D01*
X433100Y36979D01*
X433155Y37001D01*
X433210Y37029D01*
X433216Y37034D01*
X433233Y37046D01*
X433255Y37068D01*
X433288Y37090D01*
X433316Y37129D01*
X433349Y37167D01*
X433377Y37212D01*
X433399Y37267D01*
Y37273D01*
X433410Y37295D01*
X433415Y37334D01*
X433426Y37383D01*
X433438Y37450D01*
X433443Y37533D01*
X433454Y37633D01*
Y37749D01*
Y40390D01*
X433964D01*
Y37777D01*
D02*
G37*
G36*
X436577Y37909D02*
X437098D01*
Y37478D01*
X436577D01*
Y36558D01*
X436106D01*
Y37478D01*
X434440D01*
Y37909D01*
X436195Y40390D01*
X436577D01*
Y37909D01*
D02*
G37*
%LPC*%
G36*
X107609Y38543D02*
X107576D01*
X107554Y38538D01*
X107498Y38532D01*
X107421Y38516D01*
X107338Y38488D01*
X107243Y38444D01*
X107155Y38388D01*
X107066Y38311D01*
X107055Y38300D01*
X107033Y38272D01*
X106994Y38222D01*
X106956Y38150D01*
X106917Y38067D01*
X106878Y37962D01*
X106856Y37845D01*
X106845Y37713D01*
Y37702D01*
Y37674D01*
X106850Y37624D01*
X106856Y37563D01*
X106867Y37491D01*
X106889Y37414D01*
X106911Y37331D01*
X106945Y37248D01*
X106950Y37236D01*
X106967Y37209D01*
X106989Y37170D01*
X107022Y37120D01*
X107061Y37070D01*
X107111Y37009D01*
X107166Y36960D01*
X107232Y36910D01*
X107243Y36904D01*
X107266Y36893D01*
X107304Y36871D01*
X107354Y36854D01*
X107410Y36832D01*
X107476Y36810D01*
X107548Y36799D01*
X107626Y36793D01*
X107653D01*
X107675Y36799D01*
X107731Y36804D01*
X107803Y36821D01*
X107880Y36854D01*
X107969Y36893D01*
X108057Y36954D01*
X108102Y36987D01*
X108140Y37032D01*
Y37037D01*
X108152Y37043D01*
X108174Y37076D01*
X108207Y37131D01*
X108251Y37203D01*
X108290Y37297D01*
X108323Y37408D01*
X108345Y37536D01*
X108357Y37685D01*
Y37690D01*
Y37702D01*
Y37724D01*
X108351Y37751D01*
Y37785D01*
X108345Y37823D01*
X108329Y37912D01*
X108307Y38012D01*
X108268Y38117D01*
X108212Y38217D01*
X108140Y38311D01*
X108130Y38322D01*
X108102Y38349D01*
X108057Y38383D01*
X107997Y38427D01*
X107919Y38471D01*
X107830Y38505D01*
X107725Y38532D01*
X107609Y38543D01*
D02*
G37*
G36*
X157030Y120367D02*
X156942D01*
X156920Y120361D01*
X156859Y120356D01*
X156787Y120334D01*
X156698Y120306D01*
X156604Y120256D01*
X156510Y120195D01*
X156466Y120151D01*
X156421Y120107D01*
Y120101D01*
X156410Y120096D01*
X156399Y120079D01*
X156388Y120063D01*
X156349Y120007D01*
X156311Y119930D01*
X156266Y119836D01*
X156228Y119719D01*
X156205Y119586D01*
X156194Y119442D01*
Y119437D01*
Y119426D01*
Y119409D01*
X156200Y119381D01*
Y119348D01*
X156205Y119315D01*
X156222Y119232D01*
X156250Y119138D01*
X156283Y119038D01*
X156338Y118939D01*
X156410Y118850D01*
X156421Y118839D01*
X156449Y118817D01*
X156499Y118778D01*
X156560Y118739D01*
X156643Y118695D01*
X156737Y118656D01*
X156842Y118634D01*
X156958Y118623D01*
X156992D01*
X157014Y118628D01*
X157075Y118634D01*
X157147Y118651D01*
X157235Y118678D01*
X157324Y118717D01*
X157413Y118772D01*
X157495Y118850D01*
X157507Y118861D01*
X157529Y118894D01*
X157562Y118944D01*
X157606Y119016D01*
X157645Y119105D01*
X157678Y119210D01*
X157700Y119337D01*
X157711Y119481D01*
Y119487D01*
Y119498D01*
Y119520D01*
X157706Y119548D01*
Y119586D01*
X157700Y119625D01*
X157684Y119714D01*
X157662Y119819D01*
X157623Y119930D01*
X157568Y120035D01*
X157495Y120129D01*
Y120134D01*
X157484Y120140D01*
X157457Y120168D01*
X157413Y120206D01*
X157352Y120251D01*
X157274Y120289D01*
X157185Y120328D01*
X157086Y120356D01*
X157030Y120367D01*
D02*
G37*
G36*
X436106Y39626D02*
X434899Y37909D01*
X436106D01*
Y39626D01*
D02*
G37*
%LPD*%
D12*
X65432Y381392D02*
Y440892D01*
Y381392D02*
X191432D01*
Y440892D01*
X65432D02*
X191432D01*
X382082Y190914D02*
Y210914D01*
Y190914D02*
X422082D01*
Y210914D01*
X382082D02*
X422082D01*
X88664Y284531D02*
X122664D01*
Y326593D01*
X88664D02*
X122664D01*
X88664Y284531D02*
Y326593D01*
X87950Y257716D02*
Y277716D01*
Y257716D02*
X127950D01*
Y277716D01*
X87950D02*
X127950D01*
X215712Y278798D02*
X255712D01*
X215712D02*
Y298798D01*
X255712D01*
Y278798D02*
Y298798D01*
X207016Y302204D02*
X246016D01*
Y353266D01*
X207016D02*
X246016D01*
X207016Y302204D02*
Y353266D01*
X263454Y440158D02*
X321254D01*
Y411758D02*
Y440158D01*
X263454Y411758D02*
X321254D01*
X263454D02*
Y440158D01*
X338012Y381052D02*
Y440552D01*
Y381052D02*
X439012D01*
Y440552D01*
X338012D02*
X439012D01*
X65578Y6656D02*
Y66156D01*
Y6656D02*
X141578D01*
Y66156D01*
X65578D02*
X141578D01*
X228666Y198026D02*
X268666D01*
X228666D02*
Y218026D01*
X268666D01*
Y198026D02*
Y218026D01*
X104488Y330266D02*
Y370266D01*
X84488Y330266D02*
X104488D01*
X84488D02*
Y370266D01*
X104488D01*
X200312Y406588D02*
X220312D01*
X200312Y366588D02*
Y406588D01*
Y366588D02*
X220312D01*
Y406588D01*
X131892Y106840D02*
Y126840D01*
Y106840D02*
X171892D01*
Y126840D01*
X131892D02*
X171892D01*
X176399Y131768D02*
X227461D01*
Y92768D02*
Y131768D01*
X176399Y92768D02*
X227461D01*
X176399D02*
Y131768D01*
X136812Y168214D02*
X156812D01*
Y208214D01*
X136812D02*
X156812D01*
X136812Y168214D02*
Y208214D01*
X484030Y101442D02*
X504030D01*
Y141442D01*
X484030D02*
X504030D01*
X484030Y101442D02*
Y141442D01*
X262326Y38124D02*
Y66524D01*
X204526D02*
X262326D01*
X204526Y38124D02*
Y66524D01*
Y38124D02*
X262326D01*
X368854Y66242D02*
X494854D01*
Y6742D02*
Y66242D01*
X368854Y6742D02*
X494854D01*
X368854D02*
Y66242D01*
M02*
