G04*
G04 #@! TF.GenerationSoftware,Altium Limited,Altium Designer,24.5.2 (23)*
G04*
G04 Layer_Color=8388736*
%FSLAX44Y44*%
%MOMM*%
G71*
G04*
G04 #@! TF.SameCoordinates,4C0C2288-5299-42BB-A2D6-562D11BE746C*
G04*
G04*
G04 #@! TF.FilePolarity,Negative*
G04*
G01*
G75*
%ADD19R,0.9500X1.7000*%
G04:AMPARAMS|DCode=21|XSize=1.5052mm|YSize=0.4549mm|CornerRadius=0.2275mm|HoleSize=0mm|Usage=FLASHONLY|Rotation=90.000|XOffset=0mm|YOffset=0mm|HoleType=Round|Shape=RoundedRectangle|*
%AMROUNDEDRECTD21*
21,1,1.5052,0.0000,0,0,90.0*
21,1,1.0503,0.4549,0,0,90.0*
1,1,0.4549,0.0000,0.5252*
1,1,0.4549,0.0000,-0.5252*
1,1,0.4549,0.0000,-0.5252*
1,1,0.4549,0.0000,0.5252*
%
%ADD21ROUNDEDRECTD21*%
%ADD22R,0.4549X1.5052*%
G04:AMPARAMS|DCode=24|XSize=1.8052mm|YSize=0.465mm|CornerRadius=0.2325mm|HoleSize=0mm|Usage=FLASHONLY|Rotation=90.000|XOffset=0mm|YOffset=0mm|HoleType=Round|Shape=RoundedRectangle|*
%AMROUNDEDRECTD24*
21,1,1.8052,0.0000,0,0,90.0*
21,1,1.3402,0.4650,0,0,90.0*
1,1,0.4650,0.0000,0.6701*
1,1,0.4650,0.0000,-0.6701*
1,1,0.4650,0.0000,-0.6701*
1,1,0.4650,0.0000,0.6701*
%
%ADD24ROUNDEDRECTD24*%
%ADD25R,0.4650X1.8052*%
%ADD29R,1.7000X0.9500*%
%ADD33R,1.8052X0.4650*%
G04:AMPARAMS|DCode=34|XSize=1.8052mm|YSize=0.465mm|CornerRadius=0.2325mm|HoleSize=0mm|Usage=FLASHONLY|Rotation=0.000|XOffset=0mm|YOffset=0mm|HoleType=Round|Shape=RoundedRectangle|*
%AMROUNDEDRECTD34*
21,1,1.8052,0.0000,0,0,0.0*
21,1,1.3402,0.4650,0,0,0.0*
1,1,0.4650,0.6701,0.0000*
1,1,0.4650,-0.6701,0.0000*
1,1,0.4650,-0.6701,0.0000*
1,1,0.4650,0.6701,0.0000*
%
%ADD34ROUNDEDRECTD34*%
%ADD40R,1.2532X1.6532*%
%ADD41R,1.9032X1.3532*%
%ADD42R,1.0232X2.0232*%
%ADD43R,2.0066X1.3208*%
%ADD44R,1.9532X1.3032*%
%ADD45R,7.2032X7.2032*%
%ADD46R,1.7032X2.7032*%
%ADD47R,2.0232X1.2232*%
%ADD48R,1.3208X2.0066*%
%ADD49R,1.3532X1.9032*%
%ADD50R,0.9532X1.2032*%
%ADD51O,2.1532X0.8032*%
%ADD52O,0.8032X2.1532*%
%ADD53R,0.5032X1.6032*%
%ADD54R,1.2232X2.0232*%
%ADD55R,1.4032X0.8032*%
%ADD56R,1.4000X1.4000*%
%ADD57C,1.4000*%
%ADD58C,3.9032*%
%ADD59R,1.5700X1.5700*%
%ADD60C,1.5700*%
%ADD61C,1.5500*%
%ADD62R,1.5500X1.5500*%
%ADD63R,2.0032X2.0032*%
%ADD64C,2.0032*%
%ADD65C,1.4732*%
%ADD66C,1.2032*%
D19*
X416082Y200914D02*
D03*
X388082D02*
D03*
X121950Y267716D02*
D03*
X93950D02*
D03*
X249712Y288798D02*
D03*
X221712D02*
D03*
X262666Y208026D02*
D03*
X234666D02*
D03*
X165892Y116840D02*
D03*
X137892D02*
D03*
D21*
X95914Y316567D02*
D03*
X102414D02*
D03*
X108914D02*
D03*
X115414D02*
D03*
Y294557D02*
D03*
X108914D02*
D03*
X102414D02*
D03*
D22*
X95914D02*
D03*
D24*
X216766Y339240D02*
D03*
X223266D02*
D03*
X229766D02*
D03*
X236266D02*
D03*
Y316230D02*
D03*
X229766D02*
D03*
X223266D02*
D03*
D25*
X216766D02*
D03*
D29*
X94488Y364266D02*
D03*
Y336266D02*
D03*
X210312Y372588D02*
D03*
Y400588D02*
D03*
X146812Y202214D02*
D03*
Y174214D02*
D03*
X494030Y135442D02*
D03*
Y107442D02*
D03*
D33*
X190425Y122018D02*
D03*
D34*
Y115518D02*
D03*
Y109018D02*
D03*
Y102518D02*
D03*
X213435D02*
D03*
Y109018D02*
D03*
Y115518D02*
D03*
Y122018D02*
D03*
D40*
X566716Y258482D02*
D03*
Y236982D02*
D03*
X585216D02*
D03*
Y258482D02*
D03*
D41*
X196088Y295924D02*
D03*
Y265924D02*
D03*
X259334Y399810D02*
D03*
Y369810D02*
D03*
X234696Y400064D02*
D03*
Y370064D02*
D03*
X179070Y60720D02*
D03*
Y30720D02*
D03*
X172466Y266192D02*
D03*
Y296192D02*
D03*
D42*
X388860Y228092D02*
D03*
X418860D02*
D03*
X555230Y180848D02*
D03*
X585230D02*
D03*
D43*
X137160Y316992D02*
D03*
Y287020D02*
D03*
X132588Y367538D02*
D03*
Y337566D02*
D03*
X247396Y266192D02*
D03*
Y236220D02*
D03*
X47498Y350012D02*
D03*
Y320040D02*
D03*
X530098Y249682D02*
D03*
Y279654D02*
D03*
D44*
X71374Y363982D02*
D03*
Y335982D02*
D03*
X218440Y269778D02*
D03*
Y241778D02*
D03*
D45*
X94996Y182626D02*
D03*
D46*
X117996Y120126D02*
D03*
X71996D02*
D03*
D47*
X72390Y297210D02*
D03*
Y269210D02*
D03*
D48*
X184658Y223774D02*
D03*
X214630D02*
D03*
X196342Y167640D02*
D03*
X166370D02*
D03*
X585978Y209042D02*
D03*
X556006D02*
D03*
D49*
X210552Y141986D02*
D03*
X240552D02*
D03*
X179592Y143256D02*
D03*
X149592D02*
D03*
D50*
X378506Y114272D02*
D03*
Y174272D02*
D03*
X416006Y114272D02*
D03*
Y174272D02*
D03*
D51*
X526176Y177568D02*
D03*
Y185568D02*
D03*
Y193568D02*
D03*
Y201568D02*
D03*
Y209568D02*
D03*
Y217568D02*
D03*
Y225568D02*
D03*
Y233568D02*
D03*
X441176D02*
D03*
Y225568D02*
D03*
Y217568D02*
D03*
Y209568D02*
D03*
Y201568D02*
D03*
Y193568D02*
D03*
Y185568D02*
D03*
Y177568D02*
D03*
D52*
X511676Y248068D02*
D03*
X503676D02*
D03*
X495676D02*
D03*
X487676D02*
D03*
X479676D02*
D03*
X471676D02*
D03*
X463676D02*
D03*
X455676D02*
D03*
Y163068D02*
D03*
X463676D02*
D03*
X471676D02*
D03*
X479676D02*
D03*
X487676D02*
D03*
X495676D02*
D03*
X503676D02*
D03*
X511676D02*
D03*
D53*
X190594Y362614D02*
D03*
X185594D02*
D03*
X180594D02*
D03*
X175594D02*
D03*
X170594D02*
D03*
Y318614D02*
D03*
X175594D02*
D03*
X180594D02*
D03*
X185594D02*
D03*
X190594D02*
D03*
D54*
X97820Y90678D02*
D03*
X69820D02*
D03*
X116048Y90932D02*
D03*
X144048D02*
D03*
D55*
X184604Y206096D02*
D03*
Y196596D02*
D03*
Y187096D02*
D03*
X209604D02*
D03*
Y206096D02*
D03*
D56*
X165932Y405892D02*
D03*
X363512Y416052D02*
D03*
X469354Y31242D02*
D03*
D57*
X140932Y405892D02*
D03*
X115932D02*
D03*
X90932D02*
D03*
X413512Y416052D02*
D03*
X388512D02*
D03*
X394354Y31242D02*
D03*
X419354D02*
D03*
X444354D02*
D03*
D58*
X582168Y406654D02*
D03*
X30000Y30000D02*
D03*
X580000D02*
D03*
X30000Y420000D02*
D03*
D59*
X279654Y425958D02*
D03*
X246126Y52324D02*
D03*
D60*
X305054Y425958D02*
D03*
X220726Y52324D02*
D03*
D61*
X116078Y41656D02*
D03*
D62*
X91078D02*
D03*
D63*
X472948Y280416D02*
D03*
D64*
X498348D02*
D03*
X472948Y305816D02*
D03*
X498348D02*
D03*
X472948Y331216D02*
D03*
X498348D02*
D03*
D65*
X110236Y350774D02*
D03*
X85852Y247650D02*
D03*
X435610Y161544D02*
D03*
X249428Y189230D02*
D03*
X281178Y212598D02*
D03*
X68326Y227584D02*
D03*
X183642Y249576D02*
D03*
X136906Y268288D02*
D03*
X143764Y249936D02*
D03*
X490474Y89916D02*
D03*
X451866Y95250D02*
D03*
X267970Y143002D02*
D03*
X266700Y307594D02*
D03*
X400050Y137160D02*
D03*
X167894Y188976D02*
D03*
X162324Y374867D02*
D03*
X188468Y397510D02*
D03*
X173482Y390144D02*
D03*
X156464Y304546D02*
D03*
X497840Y206502D02*
D03*
X452628Y285750D02*
D03*
X466852Y220726D02*
D03*
X477266Y188722D02*
D03*
X172720Y85598D02*
D03*
X150876Y70104D02*
D03*
X137922Y383794D02*
D03*
X276860Y291338D02*
D03*
D66*
X252730Y414528D02*
D03*
X230495Y125984D02*
D03*
X165100Y224028D02*
D03*
X221742Y414274D02*
D03*
M02*
