G04*
G04 #@! TF.GenerationSoftware,Altium Limited,Altium Designer,24.5.2 (23)*
G04*
G04 Layer_Color=2752767*
%FSLAX44Y44*%
%MOMM*%
G71*
G04*
G04 #@! TF.SameCoordinates,4C0C2288-5299-42BB-A2D6-562D11BE746C*
G04*
G04*
G04 #@! TF.FilePolarity,Positive*
G04*
G01*
G75*
%ADD79C,0.1693*%
%ADD80C,0.1270*%
D79*
X171012Y405892D02*
G03*
X171012Y405892I-5080J0D01*
G01*
X146012D02*
G03*
X146012Y405892I-5080J0D01*
G01*
X121012D02*
G03*
X121012Y405892I-5080J0D01*
G01*
X96012D02*
G03*
X96012Y405892I-5080J0D01*
G01*
X418592Y416052D02*
G03*
X418592Y416052I-5080J0D01*
G01*
X393592D02*
G03*
X393592Y416052I-5080J0D01*
G01*
X368592D02*
G03*
X368592Y416052I-5080J0D01*
G01*
X399434Y31242D02*
G03*
X399434Y31242I-5080J0D01*
G01*
X424434D02*
G03*
X424434Y31242I-5080J0D01*
G01*
X449434D02*
G03*
X449434Y31242I-5080J0D01*
G01*
X474434D02*
G03*
X474434Y31242I-5080J0D01*
G01*
D80*
X579628Y404114D02*
Y401574D01*
X584708D01*
Y404114D01*
X587248D01*
Y409194D01*
X584708D01*
Y411734D01*
X579628D01*
Y409194D01*
X577088D01*
Y404114D01*
X579628D01*
X279654Y420878D02*
X282194Y423418D01*
X284734D01*
X282194Y425958D01*
X284734Y428498D01*
X282194D01*
X279654Y431038D01*
X277114Y428498D01*
X274574D01*
X277114Y425958D01*
X274574Y423418D01*
X277114D01*
X279654Y420878D01*
X305054D02*
X307594Y423418D01*
X310134D01*
X307594Y425958D01*
X310134Y428498D01*
X307594D01*
X305054Y431038D01*
X302514Y428498D01*
X299974D01*
X302514Y425958D01*
X299974Y423418D01*
X302514D01*
X305054Y420878D01*
X110998Y36576D02*
Y46736D01*
X121158D01*
Y36576D01*
X110998D01*
X85998D02*
Y46736D01*
X96158D01*
Y36576D01*
X85998D01*
X27460Y27460D02*
Y24920D01*
X32540D01*
Y27460D01*
X35080D01*
Y32540D01*
X32540D01*
Y35080D01*
X27460D01*
Y32540D01*
X24920D01*
Y27460D01*
X27460D01*
X577460D02*
Y24920D01*
X582540D01*
Y27460D01*
X585080D01*
Y32540D01*
X582540D01*
Y35080D01*
X577460D01*
Y32540D01*
X574920D01*
Y27460D01*
X577460D01*
X27460Y417460D02*
Y414920D01*
X32540D01*
Y417460D01*
X35080D01*
Y422540D01*
X32540D01*
Y425080D01*
X27460D01*
Y422540D01*
X24920D01*
Y417460D01*
X27460D01*
X472948Y275336D02*
X467868Y285496D01*
X478028D01*
X472948Y275336D01*
X498348D02*
X493268Y285496D01*
X503428D01*
X498348Y275336D01*
X472948Y300736D02*
X467868Y310896D01*
X478028D01*
X472948Y300736D01*
X498348D02*
X493268Y310896D01*
X503428D01*
X498348Y300736D01*
X472948Y326136D02*
X467868Y336296D01*
X478028D01*
X472948Y326136D01*
X498348D02*
X493268Y336296D01*
X503428D01*
X498348Y326136D01*
X220726Y47244D02*
X223266Y49784D01*
X225806D01*
X223266Y52324D01*
X225806Y54864D01*
X223266D01*
X220726Y57404D01*
X218186Y54864D01*
X215646D01*
X218186Y52324D01*
X215646Y49784D01*
X218186D01*
X220726Y47244D01*
X246126D02*
X248666Y49784D01*
X251206D01*
X248666Y52324D01*
X251206Y54864D01*
X248666D01*
X246126Y57404D01*
X243586Y54864D01*
X241046D01*
X243586Y52324D01*
X241046Y49784D01*
X243586D01*
X246126Y47244D01*
X105156Y345694D02*
X107696Y350774D01*
X105156Y355854D01*
X110236Y353314D01*
X115316Y355854D01*
X112776Y350774D01*
X115316Y345694D01*
X110236Y348234D01*
X105156Y345694D01*
X80772Y242570D02*
X83312Y247650D01*
X80772Y252730D01*
X85852Y250190D01*
X90932Y252730D01*
X88392Y247650D01*
X90932Y242570D01*
X85852Y245110D01*
X80772Y242570D01*
X247650Y409448D02*
X250190D01*
X252730Y411988D01*
X255270Y409448D01*
X257810D01*
Y411988D01*
X255270Y414528D01*
X257810Y417068D01*
Y419608D01*
X255270D01*
X252730Y417068D01*
X250190Y419608D01*
X247650D01*
Y417068D01*
X250190Y414528D01*
X247650Y411988D01*
Y409448D01*
X430530Y156464D02*
X433070Y161544D01*
X430530Y166624D01*
X435610Y164084D01*
X440690Y166624D01*
X438150Y161544D01*
X440690Y156464D01*
X435610Y159004D01*
X430530Y156464D01*
X244348Y184150D02*
X246888Y189230D01*
X244348Y194310D01*
X249428Y191770D01*
X254508Y194310D01*
X251968Y189230D01*
X254508Y184150D01*
X249428Y186690D01*
X244348Y184150D01*
X276098Y207518D02*
X278638Y212598D01*
X276098Y217678D01*
X281178Y215138D01*
X286258Y217678D01*
X283718Y212598D01*
X286258Y207518D01*
X281178Y210058D01*
X276098Y207518D01*
X225415Y120904D02*
X227955D01*
X230495Y123444D01*
X233035Y120904D01*
X235575D01*
Y123444D01*
X233035Y125984D01*
X235575Y128524D01*
Y131064D01*
X233035D01*
X230495Y128524D01*
X227955Y131064D01*
X225415D01*
Y128524D01*
X227955Y125984D01*
X225415Y123444D01*
Y120904D01*
X160020Y218948D02*
X162560D01*
X165100Y221488D01*
X167640Y218948D01*
X170180D01*
Y221488D01*
X167640Y224028D01*
X170180Y226568D01*
Y229108D01*
X167640D01*
X165100Y226568D01*
X162560Y229108D01*
X160020D01*
Y226568D01*
X162560Y224028D01*
X160020Y221488D01*
Y218948D01*
X216662Y409194D02*
X219202D01*
X221742Y411734D01*
X224282Y409194D01*
X226822D01*
Y411734D01*
X224282Y414274D01*
X226822Y416814D01*
Y419354D01*
X224282D01*
X221742Y416814D01*
X219202Y419354D01*
X216662D01*
Y416814D01*
X219202Y414274D01*
X216662Y411734D01*
Y409194D01*
X63246Y222504D02*
X65786Y227584D01*
X63246Y232664D01*
X68326Y230124D01*
X73406Y232664D01*
X70866Y227584D01*
X73406Y222504D01*
X68326Y225044D01*
X63246Y222504D01*
X178562Y244496D02*
X181102Y249576D01*
X178562Y254656D01*
X183642Y252116D01*
X188722Y254656D01*
X186182Y249576D01*
X188722Y244496D01*
X183642Y247036D01*
X178562Y244496D01*
X131826Y263207D02*
X134366Y268288D01*
X131826Y273368D01*
X136906Y270828D01*
X141986Y273368D01*
X139446Y268288D01*
X141986Y263207D01*
X136906Y265748D01*
X131826Y263207D01*
X138684Y244856D02*
X141224Y249936D01*
X138684Y255016D01*
X143764Y252476D01*
X148844Y255016D01*
X146304Y249936D01*
X148844Y244856D01*
X143764Y247396D01*
X138684Y244856D01*
X485394Y84836D02*
X487934Y89916D01*
X485394Y94996D01*
X490474Y92456D01*
X495554Y94996D01*
X493014Y89916D01*
X495554Y84836D01*
X490474Y87376D01*
X485394Y84836D01*
X446786Y90170D02*
X449326Y95250D01*
X446786Y100330D01*
X451866Y97790D01*
X456946Y100330D01*
X454406Y95250D01*
X456946Y90170D01*
X451866Y92710D01*
X446786Y90170D01*
X262890Y137922D02*
X265430Y143002D01*
X262890Y148082D01*
X267970Y145542D01*
X273050Y148082D01*
X270510Y143002D01*
X273050Y137922D01*
X267970Y140462D01*
X262890Y137922D01*
X261620Y302514D02*
X264160Y307594D01*
X261620Y312674D01*
X266700Y310134D01*
X271780Y312674D01*
X269240Y307594D01*
X271780Y302514D01*
X266700Y305054D01*
X261620Y302514D01*
X394970Y132080D02*
X397510Y137160D01*
X394970Y142240D01*
X400050Y139700D01*
X405130Y142240D01*
X402590Y137160D01*
X405130Y132080D01*
X400050Y134620D01*
X394970Y132080D01*
X162814Y183896D02*
X165354Y188976D01*
X162814Y194056D01*
X167894Y191516D01*
X172974Y194056D01*
X170434Y188976D01*
X172974Y183896D01*
X167894Y186436D01*
X162814Y183896D01*
X157244Y369787D02*
X159784Y374867D01*
X157244Y379947D01*
X162324Y377407D01*
X167404Y379947D01*
X164864Y374867D01*
X167404Y369787D01*
X162324Y372327D01*
X157244Y369787D01*
X183388Y392430D02*
X185928Y397510D01*
X183388Y402590D01*
X188468Y400050D01*
X193548Y402590D01*
X191008Y397510D01*
X193548Y392430D01*
X188468Y394970D01*
X183388Y392430D01*
X168402Y385064D02*
X170942Y390144D01*
X168402Y395224D01*
X173482Y392684D01*
X178562Y395224D01*
X176022Y390144D01*
X178562Y385064D01*
X173482Y387604D01*
X168402Y385064D01*
X151384Y299466D02*
X153924Y304546D01*
X151384Y309626D01*
X156464Y307086D01*
X161544Y309626D01*
X159004Y304546D01*
X161544Y299466D01*
X156464Y302006D01*
X151384Y299466D01*
X492760Y201422D02*
X495300Y206502D01*
X492760Y211582D01*
X497840Y209042D01*
X502920Y211582D01*
X500380Y206502D01*
X502920Y201422D01*
X497840Y203962D01*
X492760Y201422D01*
X447548Y280670D02*
X450088Y285750D01*
X447548Y290830D01*
X452628Y288290D01*
X457708Y290830D01*
X455168Y285750D01*
X457708Y280670D01*
X452628Y283210D01*
X447548Y280670D01*
X461772Y215646D02*
X464312Y220726D01*
X461772Y225806D01*
X466852Y223266D01*
X471932Y225806D01*
X469392Y220726D01*
X471932Y215646D01*
X466852Y218186D01*
X461772Y215646D01*
X472186Y183642D02*
X474726Y188722D01*
X472186Y193802D01*
X477266Y191262D01*
X482346Y193802D01*
X479806Y188722D01*
X482346Y183642D01*
X477266Y186182D01*
X472186Y183642D01*
X167640Y80518D02*
X170180Y85598D01*
X167640Y90678D01*
X172720Y88138D01*
X177800Y90678D01*
X175260Y85598D01*
X177800Y80518D01*
X172720Y83058D01*
X167640Y80518D01*
X145796Y65024D02*
X148336Y70104D01*
X145796Y75184D01*
X150876Y72644D01*
X155956Y75184D01*
X153416Y70104D01*
X155956Y65024D01*
X150876Y67564D01*
X145796Y65024D01*
X132842Y378714D02*
X135382Y383794D01*
X132842Y388874D01*
X137922Y386334D01*
X143002Y388874D01*
X140462Y383794D01*
X143002Y378714D01*
X137922Y381254D01*
X132842Y378714D01*
X271780Y286258D02*
X274320Y291338D01*
X271780Y296418D01*
X276860Y293878D01*
X281940Y296418D01*
X279400Y291338D01*
X281940Y286258D01*
X276860Y288798D01*
X271780Y286258D01*
M02*
