G04*
G04 #@! TF.GenerationSoftware,Altium Limited,Altium Designer,24.5.2 (23)*
G04*
G04 Layer_Color=16711935*
%FSLAX44Y44*%
%MOMM*%
G71*
G04*
G04 #@! TF.SameCoordinates,4C0C2288-5299-42BB-A2D6-562D11BE746C*
G04*
G04*
G04 #@! TF.FilePolarity,Negative*
G04*
G01*
G75*
%ADD56R,1.4000X1.4000*%
%ADD57C,1.4000*%
%ADD58C,3.9032*%
%ADD59R,1.5700X1.5700*%
%ADD60C,1.5700*%
%ADD61C,1.5500*%
%ADD62R,1.5500X1.5500*%
%ADD63R,2.0032X2.0032*%
%ADD64C,2.0032*%
%ADD65C,1.4732*%
%ADD66C,1.2032*%
D56*
X165932Y405892D02*
D03*
X363512Y416052D02*
D03*
X469354Y31242D02*
D03*
D57*
X140932Y405892D02*
D03*
X115932D02*
D03*
X90932D02*
D03*
X413512Y416052D02*
D03*
X388512D02*
D03*
X394354Y31242D02*
D03*
X419354D02*
D03*
X444354D02*
D03*
D58*
X582168Y406654D02*
D03*
X30000Y30000D02*
D03*
X580000D02*
D03*
X30000Y420000D02*
D03*
D59*
X279654Y425958D02*
D03*
X246126Y52324D02*
D03*
D60*
X305054Y425958D02*
D03*
X220726Y52324D02*
D03*
D61*
X116078Y41656D02*
D03*
D62*
X91078D02*
D03*
D63*
X472948Y280416D02*
D03*
D64*
X498348D02*
D03*
X472948Y305816D02*
D03*
X498348D02*
D03*
X472948Y331216D02*
D03*
X498348D02*
D03*
D65*
X110236Y350774D02*
D03*
X85852Y247650D02*
D03*
X435610Y161544D02*
D03*
X249428Y189230D02*
D03*
X281178Y212598D02*
D03*
X68326Y227584D02*
D03*
X183642Y249576D02*
D03*
X136906Y268288D02*
D03*
X143764Y249936D02*
D03*
X490474Y89916D02*
D03*
X451866Y95250D02*
D03*
X267970Y143002D02*
D03*
X266700Y307594D02*
D03*
X400050Y137160D02*
D03*
X167894Y188976D02*
D03*
X162324Y374867D02*
D03*
X188468Y397510D02*
D03*
X173482Y390144D02*
D03*
X156464Y304546D02*
D03*
X497840Y206502D02*
D03*
X452628Y285750D02*
D03*
X466852Y220726D02*
D03*
X477266Y188722D02*
D03*
X172720Y85598D02*
D03*
X150876Y70104D02*
D03*
X137922Y383794D02*
D03*
X276860Y291338D02*
D03*
D66*
X252730Y414528D02*
D03*
X230495Y125984D02*
D03*
X165100Y224028D02*
D03*
X221742Y414274D02*
D03*
M02*
