G04*
G04 #@! TF.GenerationSoftware,Altium Limited,Altium Designer,24.5.2 (23)*
G04*
G04 Layer_Physical_Order=2*
G04 Layer_Color=16711680*
%FSLAX44Y44*%
%MOMM*%
G71*
G04*
G04 #@! TF.SameCoordinates,4C0C2288-5299-42BB-A2D6-562D11BE746C*
G04*
G04*
G04 #@! TF.FilePolarity,Positive*
G04*
G01*
G75*
%ADD15C,0.2540*%
%ADD56R,1.4000X1.4000*%
%ADD57C,1.4000*%
%ADD59R,1.5700X1.5700*%
%ADD60C,1.5700*%
%ADD61C,1.5500*%
%ADD62R,1.5500X1.5500*%
%ADD67C,0.3000*%
%ADD69C,0.4000*%
%ADD73C,3.7000*%
%ADD74R,1.8000X1.8000*%
%ADD75C,1.8000*%
%ADD76C,1.2700*%
%ADD77C,1.0000*%
D15*
X452628Y285750D02*
X452755D01*
X472821Y305816D01*
X472948D01*
D56*
X165932Y405892D02*
D03*
X363512Y416052D02*
D03*
X469354Y31242D02*
D03*
D57*
X140932Y405892D02*
D03*
X115932D02*
D03*
X90932D02*
D03*
X413512Y416052D02*
D03*
X388512D02*
D03*
X394354Y31242D02*
D03*
X419354D02*
D03*
X444354D02*
D03*
D59*
X279654Y425958D02*
D03*
X246126Y52324D02*
D03*
D60*
X305054Y425958D02*
D03*
X220726Y52324D02*
D03*
D61*
X116078Y41656D02*
D03*
D62*
X91078D02*
D03*
D67*
X510690Y303641D02*
G03*
X510690Y307993I-12342J2175D01*
G01*
X510687Y303626D02*
G03*
X510648Y303154I2961J-485D01*
G01*
Y283069D02*
G03*
X510690Y282593I3000J21D01*
G01*
X510691Y278248D02*
G03*
X510648Y277754I2957J-506D01*
G01*
X510691Y278248D02*
G03*
X510690Y282593I-12343J2168D01*
G01*
X510648Y308469D02*
G03*
X510690Y307993I3000J22D01*
G01*
X177285Y387611D02*
X185420Y379476D01*
X352190D02*
X388385Y415671D01*
X185420Y379476D02*
X352190D01*
X334302Y386842D02*
X363258Y415798D01*
X199644Y386842D02*
X334302D01*
X188722Y397764D02*
X199644Y386842D01*
X173736Y387604D02*
X173743Y387611D01*
X424929Y136410D02*
X477241Y188722D01*
X400824Y136410D02*
X424929D01*
X197640Y158839D02*
X230495Y125984D01*
X197640Y158839D02*
Y180312D01*
X510687Y303626D02*
X510690Y303641D01*
X510648Y283069D02*
Y303154D01*
Y219310D02*
Y277754D01*
X165100Y212852D02*
X197640Y180312D01*
X165100Y212852D02*
Y224028D01*
X167413Y189457D02*
Y203423D01*
X143764Y227072D02*
Y249936D01*
Y227072D02*
X167413Y203423D01*
Y189457D02*
X167894Y188976D01*
X173743Y387611D02*
X177285D01*
X162324Y374867D02*
X176510Y360680D01*
X358140D01*
X415201Y417741D01*
X159512Y249428D02*
X184489D01*
X143451Y265489D02*
X159512Y249428D01*
X136906Y268288D02*
X139531D01*
X142330Y265489D01*
X143451D01*
X483411Y267884D02*
X485816Y270289D01*
Y293309D01*
X498323Y305816D01*
X477253Y262054D02*
X483083Y267884D01*
X483411D01*
X497840Y206502D02*
X510648Y219310D01*
Y308469D02*
Y318916D01*
X477253Y188735D02*
Y262054D01*
X400062Y137172D02*
X400824Y136410D01*
X498348Y331216D02*
X510648Y318916D01*
D69*
X110236Y350774D02*
X111252D01*
X68326Y229176D02*
X85852Y246702D01*
Y247650D01*
X91724Y424688D02*
X116024Y400388D01*
X572408Y30000D02*
X580000D01*
X554854Y12446D02*
X572408Y30000D01*
X30000Y27968D02*
X45268Y12700D01*
X30000Y27968D02*
Y30000D01*
X45268Y12700D02*
X87122D01*
X116078Y41656D01*
X31750Y424688D02*
X91724D01*
X29210Y422148D02*
X31750Y424688D01*
X248920Y189738D02*
X249428Y189230D01*
X221742Y237998D02*
X248920Y210820D01*
Y189738D02*
Y210820D01*
X221742Y237998D02*
Y256032D01*
X276860Y291338D02*
X328422Y342900D01*
X241554Y256032D02*
X276860Y291338D01*
X221742Y256032D02*
X241554D01*
X328422Y342900D02*
X457476D01*
X141732Y291338D02*
X186436D01*
X221742Y256032D01*
X252603Y414401D02*
X252730Y414528D01*
X221869Y414401D02*
X252603D01*
X221742Y414274D02*
X221869Y414401D01*
X457014Y98044D02*
X482346D01*
X451866Y95250D02*
X454220D01*
X482346Y98044D02*
X490474Y89916D01*
X454220Y95250D02*
X457014Y98044D01*
X469354Y31242D02*
X490474Y52362D01*
Y89916D01*
X439166Y255778D02*
Y292608D01*
X465802Y221776D02*
X466852Y220726D01*
X465802Y221776D02*
Y229142D01*
X439166Y255778D02*
X465802Y229142D01*
X116078Y41656D02*
X137922D01*
X150876Y54610D02*
Y70104D01*
X137922Y41656D02*
X150876Y54610D01*
Y70104D02*
X151893Y71121D01*
X570054Y421894D02*
X572456Y419492D01*
X263652Y304546D02*
X266700Y307594D01*
X156464Y304546D02*
X263652D01*
X68326Y227584D02*
Y229176D01*
X267970Y143002D02*
X281178Y156210D01*
Y212598D01*
X131191Y301879D02*
X141732Y291338D01*
X131191Y301879D02*
Y330835D01*
X457476Y342900D02*
X469160Y331216D01*
X110998Y351536D02*
Y380414D01*
X111252Y350774D02*
X131191Y330835D01*
X91024Y400388D02*
X110998Y380414D01*
X116024Y400388D02*
X119042D01*
X469160Y331216D02*
X472948D01*
Y327428D02*
Y331216D01*
X468754Y323234D02*
X472948Y327428D01*
X439166Y292608D02*
X468754Y322196D01*
Y323234D01*
X540512Y421894D02*
X570054D01*
X515620Y397002D02*
X540512Y421894D01*
X498348Y331216D02*
X515620Y348488D01*
Y397002D01*
X488150Y12446D02*
X554854D01*
X469354Y31242D02*
X488150Y12446D01*
X172720Y84638D02*
Y85598D01*
X151893Y71121D02*
X159203D01*
X172720Y84638D01*
X119042Y400388D02*
X135636Y383794D01*
X137922D01*
D73*
X582168Y406654D02*
D03*
X30000Y30000D02*
D03*
X580000D02*
D03*
X30000Y420000D02*
D03*
D74*
X472948Y280416D02*
D03*
D75*
X498348D02*
D03*
X472948Y305816D02*
D03*
X498348D02*
D03*
X472948Y331216D02*
D03*
X498348D02*
D03*
D76*
X110236Y350774D02*
D03*
X85852Y247650D02*
D03*
X435610Y161544D02*
D03*
X249428Y189230D02*
D03*
X281178Y212598D02*
D03*
X68326Y227584D02*
D03*
X183642Y249576D02*
D03*
X136906Y268288D02*
D03*
X143764Y249936D02*
D03*
X490474Y89916D02*
D03*
X451866Y95250D02*
D03*
X267970Y143002D02*
D03*
X266700Y307594D02*
D03*
X400050Y137160D02*
D03*
X167894Y188976D02*
D03*
X162324Y374867D02*
D03*
X188468Y397510D02*
D03*
X173482Y390144D02*
D03*
X156464Y304546D02*
D03*
X497840Y206502D02*
D03*
X452628Y285750D02*
D03*
X466852Y220726D02*
D03*
X477266Y188722D02*
D03*
X172720Y85598D02*
D03*
X150876Y70104D02*
D03*
X137922Y383794D02*
D03*
X276860Y291338D02*
D03*
D77*
X252730Y414528D02*
D03*
X230495Y125984D02*
D03*
X165100Y224028D02*
D03*
X221742Y414274D02*
D03*
M02*
