M48
;Layer_Color=9474304
;FILE_FORMAT=4:4
METRIC,LZ
;TYPE=PLATED
T01F00S00C0.5000
T02F00S00C0.7112
T03F00S00C0.9000
T04F00S00C1.0000
T05F00S00C1.0200
T06F00S00C1.2000
T07F00S00C3.2000
%
T01
X00230495Y00125984
X001651Y00224028
X00221742Y00414274
X0025273Y00414528
T02
X00150876Y00070104
X0017272Y00085598
X0026797Y00143002
X0040005Y0013716
X0043561Y00161544
X00451866Y0009525
X00490474Y00089916
X00477266Y00188722
X0049784Y00206502
X00466852Y00220726
X00452628Y0028575
X0027686Y00291338
X002667Y00307594
X00281178Y00212598
X00249428Y0018923
X00167894Y00188976
X00183642Y00249576
X00143764Y00249936
X00136906Y00268288
X00156464Y00304546
X00162324Y00374867
X00173482Y00390144
X00188468Y0039751
X00137922Y00383794
X00110236Y00350774
X00085852Y0024765
X00068326Y00227584
T03
X00394354Y00031242
X00419354
X00444354
X00469354
X00413512Y00416052
X00388512
X00363512
X00165932Y00405892
X00140932
X00115932
X00090932
T04
X00091078Y00041656
X00116078
T05
X00220726Y00052324
X00246126
X00305054Y00425958
X00279654
T06
X00472948Y00280416
X00498348
Y00305816
X00472948
Y00331216
X00498348
T07
X0003Y0003
X0058
X00582168Y00406654
X0003Y0042
M30
