G04*
G04 #@! TF.GenerationSoftware,Altium Limited,Altium Designer,23.6.0 (18)*
G04*
G04 Layer_Color=255*
%FSLAX44Y44*%
%MOMM*%
G71*
G04*
G04 #@! TF.SameCoordinates,5DEB40B8-84CC-45EF-9636-C6304030FE47*
G04*
G04*
G04 #@! TF.FilePolarity,Positive*
G04*
G01*
G75*
%ADD16R,1.1176X1.8034*%
%ADD17R,0.9500X1.7000*%
%ADD18R,1.7000X0.9500*%
%ADD19R,1.7000X1.1500*%
%ADD20R,1.7500X1.1000*%
%ADD21R,1.1500X1.7000*%
%ADD22R,0.7500X1.0000*%
%ADD23R,0.4650X1.8052*%
G04:AMPARAMS|DCode=24|XSize=1.8052mm|YSize=0.465mm|CornerRadius=0.2325mm|HoleSize=0mm|Usage=FLASHONLY|Rotation=90.000|XOffset=0mm|YOffset=0mm|HoleType=Round|Shape=RoundedRectangle|*
%AMROUNDEDRECTD24*
21,1,1.8052,0.0000,0,0,90.0*
21,1,1.3402,0.4650,0,0,90.0*
1,1,0.4650,0.0000,0.6701*
1,1,0.4650,0.0000,-0.6701*
1,1,0.4650,0.0000,-0.6701*
1,1,0.4650,0.0000,0.6701*
%
%ADD24ROUNDEDRECTD24*%
%ADD25R,0.4549X1.5052*%
G04:AMPARAMS|DCode=26|XSize=1.5052mm|YSize=0.4549mm|CornerRadius=0.2275mm|HoleSize=0mm|Usage=FLASHONLY|Rotation=90.000|XOffset=0mm|YOffset=0mm|HoleType=Round|Shape=RoundedRectangle|*
%AMROUNDEDRECTD26*
21,1,1.5052,0.0000,0,0,90.0*
21,1,1.0503,0.4549,0,0,90.0*
1,1,0.4549,0.0000,0.5252*
1,1,0.4549,0.0000,-0.5252*
1,1,0.4549,0.0000,-0.5252*
1,1,0.4549,0.0000,0.5252*
%
%ADD26ROUNDEDRECTD26*%
%ADD27R,1.8052X0.4650*%
G04:AMPARAMS|DCode=28|XSize=1.8052mm|YSize=0.465mm|CornerRadius=0.2325mm|HoleSize=0mm|Usage=FLASHONLY|Rotation=0.000|XOffset=0mm|YOffset=0mm|HoleType=Round|Shape=RoundedRectangle|*
%AMROUNDEDRECTD28*
21,1,1.8052,0.0000,0,0,0.0*
21,1,1.3402,0.4650,0,0,0.0*
1,1,0.4650,0.6701,0.0000*
1,1,0.4650,-0.6701,0.0000*
1,1,0.4650,-0.6701,0.0000*
1,1,0.4650,0.6701,0.0000*
%
%ADD28ROUNDEDRECTD28*%
%ADD29O,1.9500X0.6000*%
%ADD30O,0.6000X1.9500*%
%ADD31R,1.0500X1.4500*%
%ADD32R,1.5000X2.5000*%
%ADD33R,7.0000X7.0000*%
%ADD34R,0.3000X1.4000*%
%ADD35R,1.8034X1.1176*%
%ADD36R,1.8200X1.0200*%
%ADD37R,0.8200X1.8200*%
%ADD38R,1.0200X1.8200*%
%ADD39R,1.2000X0.6000*%
%ADD56C,1.5700*%
%ADD57R,1.5700X1.5700*%
%ADD58R,1.4000X1.4000*%
%ADD59C,1.4000*%
%ADD62R,1.5500X1.5500*%
%ADD63C,1.5500*%
%ADD71R,1.8000X1.8000*%
%ADD72C,1.8000*%
D16*
X184658Y223774D02*
D03*
X214630D02*
D03*
X196342Y167640D02*
D03*
X166370D02*
D03*
X585978Y209042D02*
D03*
X556006D02*
D03*
D17*
X234666Y208026D02*
D03*
X262666D02*
D03*
X165892Y116840D02*
D03*
X137892D02*
D03*
X221712Y288798D02*
D03*
X249712D02*
D03*
X93950Y267716D02*
D03*
X121950D02*
D03*
X388082Y200914D02*
D03*
X416082D02*
D03*
D18*
X210312Y372588D02*
D03*
Y400588D02*
D03*
X94488Y336266D02*
D03*
Y364266D02*
D03*
X146812Y202214D02*
D03*
Y174214D02*
D03*
X494030Y135442D02*
D03*
Y107442D02*
D03*
D19*
X259334Y369810D02*
D03*
Y399810D02*
D03*
X234696Y370064D02*
D03*
Y400064D02*
D03*
X179070Y60720D02*
D03*
Y30720D02*
D03*
X172466Y266192D02*
D03*
Y296192D02*
D03*
X196088Y265924D02*
D03*
Y295924D02*
D03*
D20*
X218440Y241778D02*
D03*
Y269778D02*
D03*
X71374Y335982D02*
D03*
Y363982D02*
D03*
D21*
X210552Y141986D02*
D03*
X240552D02*
D03*
X179592Y143256D02*
D03*
X149592D02*
D03*
D22*
X378506Y114272D02*
D03*
Y174272D02*
D03*
X416006Y114272D02*
D03*
Y174272D02*
D03*
D23*
X216766Y316230D02*
D03*
D24*
X223266D02*
D03*
X229766D02*
D03*
X236266D02*
D03*
Y339240D02*
D03*
X229766D02*
D03*
X223266D02*
D03*
X216766D02*
D03*
D25*
X95914Y294557D02*
D03*
D26*
X102414D02*
D03*
X108914D02*
D03*
X115414D02*
D03*
Y316567D02*
D03*
X108914D02*
D03*
X102414D02*
D03*
X95914D02*
D03*
D27*
X190425Y122018D02*
D03*
D28*
Y115518D02*
D03*
Y109018D02*
D03*
Y102518D02*
D03*
X213435D02*
D03*
Y109018D02*
D03*
Y115518D02*
D03*
Y122018D02*
D03*
D29*
X526176Y177568D02*
D03*
Y185568D02*
D03*
Y193568D02*
D03*
Y201568D02*
D03*
Y209568D02*
D03*
Y217568D02*
D03*
Y225568D02*
D03*
Y233568D02*
D03*
X441176D02*
D03*
Y225568D02*
D03*
Y217568D02*
D03*
Y209568D02*
D03*
Y201568D02*
D03*
Y193568D02*
D03*
Y185568D02*
D03*
Y177568D02*
D03*
D30*
X511676Y248068D02*
D03*
X503676D02*
D03*
X495676D02*
D03*
X487676D02*
D03*
X479676D02*
D03*
X471676D02*
D03*
X463676D02*
D03*
X455676D02*
D03*
Y163068D02*
D03*
X463676D02*
D03*
X471676D02*
D03*
X479676D02*
D03*
X487676D02*
D03*
X495676D02*
D03*
X503676D02*
D03*
X511676D02*
D03*
D31*
X585216Y258482D02*
D03*
Y236982D02*
D03*
X566716D02*
D03*
Y258482D02*
D03*
D32*
X71996Y120126D02*
D03*
X117996D02*
D03*
D33*
X94996Y182626D02*
D03*
D34*
X190594Y362614D02*
D03*
X185594D02*
D03*
X180594D02*
D03*
X175594D02*
D03*
X170594D02*
D03*
Y318614D02*
D03*
X175594D02*
D03*
X180594D02*
D03*
X185594D02*
D03*
X190594D02*
D03*
D35*
X247396Y236220D02*
D03*
Y266192D02*
D03*
X47498Y320040D02*
D03*
Y350012D02*
D03*
X137160Y287020D02*
D03*
Y316992D02*
D03*
X132588Y337566D02*
D03*
Y367538D02*
D03*
X530098Y249682D02*
D03*
Y279654D02*
D03*
D36*
X72390Y269210D02*
D03*
Y297210D02*
D03*
D37*
X555230Y180848D02*
D03*
X585230D02*
D03*
X418860Y228092D02*
D03*
X388860D02*
D03*
D38*
X97820Y90678D02*
D03*
X69820D02*
D03*
X116048Y90932D02*
D03*
X144048D02*
D03*
D39*
X184604Y206096D02*
D03*
Y196596D02*
D03*
Y187096D02*
D03*
X209604D02*
D03*
Y206096D02*
D03*
D56*
X305054Y425958D02*
D03*
X220726Y52324D02*
D03*
D57*
X279654Y425958D02*
D03*
X246126Y52324D02*
D03*
D58*
X363512Y416052D02*
D03*
X165932Y405892D02*
D03*
X469354Y31242D02*
D03*
D59*
X388512Y416052D02*
D03*
X413512D02*
D03*
X90932Y405892D02*
D03*
X115932D02*
D03*
X140932D02*
D03*
X394354Y31242D02*
D03*
X419354D02*
D03*
X444354D02*
D03*
D62*
X91078Y41656D02*
D03*
D63*
X116078D02*
D03*
D71*
X472948Y280416D02*
D03*
D72*
X498348D02*
D03*
X472948Y305816D02*
D03*
X498348D02*
D03*
X472948Y331216D02*
D03*
X498348D02*
D03*
M02*
