G04*
G04 #@! TF.GenerationSoftware,Altium Limited,Altium Designer,23.6.0 (18)*
G04*
G04 Layer_Color=128*
%FSLAX44Y44*%
%MOMM*%
G71*
G04*
G04 #@! TF.SameCoordinates,5DEB40B8-84CC-45EF-9636-C6304030FE47*
G04*
G04*
G04 #@! TF.FilePolarity,Positive*
G04*
G01*
G75*
%ADD76C,0.1270*%
D76*
X299954Y425958D02*
X310154D01*
X305054Y420858D02*
Y431058D01*
X274554Y425958D02*
X284754D01*
X279654Y420858D02*
Y431058D01*
X359012Y416052D02*
X368012D01*
X363512Y411552D02*
Y420552D01*
X384012Y416052D02*
X393012D01*
X388512Y411552D02*
Y420552D01*
X409012Y416052D02*
X418012D01*
X413512Y411552D02*
Y420552D01*
X86432Y405892D02*
X95432D01*
X90932Y401392D02*
Y410392D01*
X111432Y405892D02*
X120432D01*
X115932Y401392D02*
Y410392D01*
X136432Y405892D02*
X145432D01*
X140932Y401392D02*
Y410392D01*
X161432Y405892D02*
X170432D01*
X165932Y401392D02*
Y410392D01*
X466948Y280416D02*
X478948D01*
X472948Y274416D02*
Y286416D01*
X492348Y280416D02*
X504348D01*
X498348Y274416D02*
Y286416D01*
X466948Y305816D02*
X478948D01*
X472948Y299816D02*
Y311816D01*
X492348Y305816D02*
X504348D01*
X498348Y299816D02*
Y311816D01*
X466948Y331216D02*
X478948D01*
X472948Y325216D02*
Y337216D01*
X492348Y331216D02*
X504348D01*
X498348Y325216D02*
Y337216D01*
X215626Y52324D02*
X225826D01*
X220726Y47224D02*
Y57424D01*
X241026Y52324D02*
X251226D01*
X246126Y47224D02*
Y57424D01*
X389854Y31242D02*
X398854D01*
X394354Y26742D02*
Y35742D01*
X414854Y31242D02*
X423854D01*
X419354Y26742D02*
Y35742D01*
X439854Y31242D02*
X448854D01*
X444354Y26742D02*
Y35742D01*
X464854Y31242D02*
X473854D01*
X469354Y26742D02*
Y35742D01*
X86078Y41656D02*
X96078D01*
X91078Y36656D02*
Y46656D01*
X111078Y41656D02*
X121078D01*
X116078Y36656D02*
Y46656D01*
X245872Y189230D02*
X252984D01*
X249428Y185674D02*
Y192786D01*
X18544Y417322D02*
X50544D01*
X34544Y401322D02*
Y433322D01*
X219242Y414274D02*
X224242D01*
X221742Y411774D02*
Y416774D01*
X250230Y414528D02*
X255230D01*
X252730Y412028D02*
Y417028D01*
X64770Y227584D02*
X71882D01*
X68326Y224028D02*
Y231140D01*
X180086Y249576D02*
X187198D01*
X183642Y246020D02*
Y253132D01*
X133350Y268288D02*
X140462D01*
X136906Y264732D02*
Y271843D01*
X140208Y249936D02*
X147320D01*
X143764Y246380D02*
Y253492D01*
X486918Y89916D02*
X494030D01*
X490474Y86360D02*
Y93472D01*
X448310Y95250D02*
X455422D01*
X451866Y91694D02*
Y98806D01*
X264414Y143002D02*
X271526D01*
X267970Y139446D02*
Y146558D01*
X277622Y212598D02*
X284734D01*
X281178Y209042D02*
Y216154D01*
X263144Y307594D02*
X270256D01*
X266700Y304038D02*
Y311150D01*
X396494Y137160D02*
X403606D01*
X400050Y133604D02*
Y140716D01*
X164338Y188976D02*
X171450D01*
X167894Y185420D02*
Y192532D01*
X106680Y350774D02*
X113792D01*
X110236Y347218D02*
Y354330D01*
X158768Y374867D02*
X165880D01*
X162324Y371311D02*
Y378423D01*
X184912Y397510D02*
X192024D01*
X188468Y393954D02*
Y401066D01*
X169926Y390144D02*
X177038D01*
X173482Y386588D02*
Y393700D01*
X152908Y304546D02*
X160020D01*
X156464Y300990D02*
Y308102D01*
X82296Y247650D02*
X89408D01*
X85852Y244094D02*
Y251206D01*
X556456Y420000D02*
X588456D01*
X572456Y404000D02*
Y436000D01*
X494284Y206502D02*
X501396D01*
X497840Y202946D02*
Y210058D01*
X14000Y30000D02*
X46000D01*
X30000Y14000D02*
Y46000D01*
X556456Y30000D02*
X588456D01*
X572456Y14000D02*
Y46000D01*
X449072Y285750D02*
X456184D01*
X452628Y282194D02*
Y289306D01*
X463296Y220726D02*
X470408D01*
X466852Y217170D02*
Y224282D01*
X473710Y188722D02*
X480822D01*
X477266Y185166D02*
Y192278D01*
X432054Y161544D02*
X439166D01*
X435610Y157988D02*
Y165100D01*
X169164Y85598D02*
X176276D01*
X172720Y82042D02*
Y89154D01*
X147320Y70104D02*
X154432D01*
X150876Y66548D02*
Y73660D01*
X134366Y383794D02*
X141478D01*
X137922Y380238D02*
Y387350D01*
X273304Y291338D02*
X280416D01*
X276860Y287782D02*
Y294894D01*
M02*
