G04*
G04 #@! TF.GenerationSoftware,Altium Limited,Altium Designer,23.6.0 (18)*
G04*
G04 Layer_Physical_Order=1*
G04 Layer_Color=255*
%FSLAX44Y44*%
%MOMM*%
G71*
G04*
G04 #@! TF.SameCoordinates,5DEB40B8-84CC-45EF-9636-C6304030FE47*
G04*
G04*
G04 #@! TF.FilePolarity,Positive*
G04*
G01*
G75*
%ADD15C,0.2540*%
%ADD16R,1.1176X1.8034*%
%ADD17R,0.9500X1.7000*%
%ADD18R,1.7000X0.9500*%
%ADD19R,1.7000X1.1500*%
%ADD20R,1.7500X1.1000*%
%ADD21R,1.1500X1.7000*%
%ADD22R,0.7500X1.0000*%
%ADD23R,0.4650X1.8052*%
G04:AMPARAMS|DCode=24|XSize=1.8052mm|YSize=0.465mm|CornerRadius=0.2325mm|HoleSize=0mm|Usage=FLASHONLY|Rotation=90.000|XOffset=0mm|YOffset=0mm|HoleType=Round|Shape=RoundedRectangle|*
%AMROUNDEDRECTD24*
21,1,1.8052,0.0000,0,0,90.0*
21,1,1.3402,0.4650,0,0,90.0*
1,1,0.4650,0.0000,0.6701*
1,1,0.4650,0.0000,-0.6701*
1,1,0.4650,0.0000,-0.6701*
1,1,0.4650,0.0000,0.6701*
%
%ADD24ROUNDEDRECTD24*%
%ADD25R,0.4549X1.5052*%
G04:AMPARAMS|DCode=26|XSize=1.5052mm|YSize=0.4549mm|CornerRadius=0.2275mm|HoleSize=0mm|Usage=FLASHONLY|Rotation=90.000|XOffset=0mm|YOffset=0mm|HoleType=Round|Shape=RoundedRectangle|*
%AMROUNDEDRECTD26*
21,1,1.5052,0.0000,0,0,90.0*
21,1,1.0503,0.4549,0,0,90.0*
1,1,0.4549,0.0000,0.5252*
1,1,0.4549,0.0000,-0.5252*
1,1,0.4549,0.0000,-0.5252*
1,1,0.4549,0.0000,0.5252*
%
%ADD26ROUNDEDRECTD26*%
%ADD27R,1.8052X0.4650*%
G04:AMPARAMS|DCode=28|XSize=1.8052mm|YSize=0.465mm|CornerRadius=0.2325mm|HoleSize=0mm|Usage=FLASHONLY|Rotation=0.000|XOffset=0mm|YOffset=0mm|HoleType=Round|Shape=RoundedRectangle|*
%AMROUNDEDRECTD28*
21,1,1.8052,0.0000,0,0,0.0*
21,1,1.3402,0.4650,0,0,0.0*
1,1,0.4650,0.6701,0.0000*
1,1,0.4650,-0.6701,0.0000*
1,1,0.4650,-0.6701,0.0000*
1,1,0.4650,0.6701,0.0000*
%
%ADD28ROUNDEDRECTD28*%
%ADD29O,1.9500X0.6000*%
%ADD30O,0.6000X1.9500*%
%ADD31R,1.0500X1.4500*%
%ADD32R,1.5000X2.5000*%
%ADD33R,7.0000X7.0000*%
%ADD34R,0.3000X1.4000*%
%ADD35R,1.8034X1.1176*%
%ADD36R,1.8200X1.0200*%
%ADD37R,0.8200X1.8200*%
%ADD38R,1.0200X1.8200*%
%ADD39R,1.2000X0.6000*%
%ADD56C,1.5700*%
%ADD57R,1.5700X1.5700*%
%ADD58R,1.4000X1.4000*%
%ADD59C,1.4000*%
%ADD62R,1.5500X1.5500*%
%ADD63C,1.5500*%
%ADD67C,0.2800*%
%ADD68C,0.3000*%
%ADD69C,0.4000*%
%ADD70C,0.2600*%
%ADD71R,1.8000X1.8000*%
%ADD72C,1.8000*%
%ADD73C,1.2700*%
%ADD74C,3.7000*%
%ADD75C,1.0000*%
G36*
X219710Y377444D02*
Y367792D01*
X192532D01*
Y356108D01*
X189230D01*
Y371094D01*
X195580Y377444D01*
X218440D01*
X219710Y377444D01*
D02*
G37*
G36*
X117856Y293116D02*
X145796Y293116D01*
X145796Y281178D01*
X120396Y281178D01*
X113284Y288290D01*
Y302260D01*
X117856D01*
X117856Y293116D01*
D02*
G37*
G36*
X225298Y280416D02*
X216662D01*
Y282194D01*
Y296926D01*
X221234Y301498D01*
Y324866D01*
X225298D01*
Y280416D01*
D02*
G37*
G36*
X98044Y287020D02*
X91440D01*
X81788Y277368D01*
Y263906D01*
X63246D01*
X63500Y264160D01*
X63260Y274005D01*
X93726Y298244D01*
Y298450D01*
X93980Y298704D01*
Y302260D01*
X98044D01*
Y287020D01*
D02*
G37*
G36*
X110998Y282448D02*
X121950Y276098D01*
X144018D01*
Y258826D01*
X117094D01*
Y259027D01*
X106934D01*
Y302006D01*
X110998D01*
Y282448D01*
D02*
G37*
G36*
X432308Y228346D02*
X450850D01*
X450850Y222758D01*
X427228Y222758D01*
X422656Y218186D01*
X413512D01*
Y238760D01*
X421894D01*
X432308Y228346D01*
D02*
G37*
G36*
X451104Y206756D02*
X431469Y206756D01*
X420878Y191516D01*
X411480D01*
Y212344D01*
X451104D01*
Y206756D01*
D02*
G37*
G36*
X239776Y199644D02*
X228092Y199644D01*
Y203200D01*
X203708D01*
Y209296D01*
X220726D01*
X220980Y209550D01*
X226822Y214884D01*
Y216408D01*
X239014D01*
X239268Y216662D01*
X239776Y216916D01*
X239776Y199644D01*
D02*
G37*
G36*
X191516Y201676D02*
X154940D01*
Y197104D01*
X136906D01*
Y210058D01*
X178562D01*
Y210820D01*
Y212598D01*
X178308Y212852D01*
X176022Y215138D01*
Y233934D01*
X191516D01*
Y201676D01*
D02*
G37*
G36*
X542853Y204161D02*
X553212Y193802D01*
X559816D01*
Y190754D01*
Y171196D01*
X551180D01*
Y171704D01*
X538988Y183896D01*
Y198628D01*
X517652D01*
Y204216D01*
X537972D01*
X537972Y204216D01*
Y211836D01*
X535178Y214630D01*
X516128D01*
Y220472D01*
X542036D01*
X542853Y204161D01*
D02*
G37*
G36*
X490728Y173228D02*
X490474D01*
Y152430D01*
X502412Y139790D01*
X502412Y127508D01*
X485140D01*
Y173228D01*
X484632D01*
X470916Y183896D01*
Y195834D01*
X490728D01*
Y173228D01*
D02*
G37*
G36*
X175006Y119888D02*
X176435Y117602D01*
X198374D01*
Y113538D01*
X177546D01*
X172212Y108204D01*
X161036D01*
Y125476D01*
X170482D01*
X175006Y119888D01*
D02*
G37*
G36*
X126492Y133350D02*
Y105156D01*
X122174Y100838D01*
Y81026D01*
X109474D01*
X109474Y133350D01*
X126492Y133350D01*
D02*
G37*
G36*
X84074Y108712D02*
X77089Y101727D01*
X76708D01*
Y72668D01*
X99060Y49270D01*
Y34042D01*
X83820D01*
X83826Y34036D01*
X62484Y55124D01*
Y106178D01*
X62738D01*
Y133858D01*
X84074D01*
X84074Y108712D01*
D02*
G37*
D15*
X216586Y239924D02*
X218440Y241778D01*
X179644Y239924D02*
X216586D01*
X161100Y234252D02*
X168626Y241778D01*
X177790D01*
X179644Y239924D01*
X265684Y349250D02*
X279654Y363220D01*
X240146Y349250D02*
X265684D01*
X236266Y345370D02*
X240146Y349250D01*
X236266Y339240D02*
Y345370D01*
X231946Y370064D02*
X234696D01*
X216766Y354884D02*
X231946Y370064D01*
X216766Y339240D02*
Y354884D01*
X279654Y363220D02*
Y425958D01*
X72854Y244532D02*
X83134Y234252D01*
X161100D01*
X430530Y243548D02*
Y263652D01*
Y243548D02*
X440510Y233568D01*
X430530Y263652D02*
X452628Y285750D01*
X440510Y233568D02*
X441176D01*
X72390Y269210D02*
X72854Y268746D01*
Y244532D02*
Y268746D01*
D16*
X184658Y223774D02*
D03*
X214630D02*
D03*
X196342Y167640D02*
D03*
X166370D02*
D03*
X585978Y209042D02*
D03*
X556006D02*
D03*
D17*
X234666Y208026D02*
D03*
X262666D02*
D03*
X165892Y116840D02*
D03*
X137892D02*
D03*
X221712Y288798D02*
D03*
X249712D02*
D03*
X93950Y267716D02*
D03*
X121950D02*
D03*
X388082Y200914D02*
D03*
X416082D02*
D03*
D18*
X210312Y372588D02*
D03*
Y400588D02*
D03*
X94488Y336266D02*
D03*
Y364266D02*
D03*
X146812Y202214D02*
D03*
Y174214D02*
D03*
X494030Y135442D02*
D03*
Y107442D02*
D03*
D19*
X259334Y369810D02*
D03*
Y399810D02*
D03*
X234696Y370064D02*
D03*
Y400064D02*
D03*
X179070Y60720D02*
D03*
Y30720D02*
D03*
X172466Y266192D02*
D03*
Y296192D02*
D03*
X196088Y265924D02*
D03*
Y295924D02*
D03*
D20*
X218440Y241778D02*
D03*
Y269778D02*
D03*
X71374Y335982D02*
D03*
Y363982D02*
D03*
D21*
X210552Y141986D02*
D03*
X240552D02*
D03*
X179592Y143256D02*
D03*
X149592D02*
D03*
D22*
X378506Y114272D02*
D03*
Y174272D02*
D03*
X416006Y114272D02*
D03*
Y174272D02*
D03*
D23*
X216766Y316230D02*
D03*
D24*
X223266D02*
D03*
X229766D02*
D03*
X236266D02*
D03*
Y339240D02*
D03*
X229766D02*
D03*
X223266D02*
D03*
X216766D02*
D03*
D25*
X95914Y294557D02*
D03*
D26*
X102414D02*
D03*
X108914D02*
D03*
X115414D02*
D03*
Y316567D02*
D03*
X108914D02*
D03*
X102414D02*
D03*
X95914D02*
D03*
D27*
X190425Y122018D02*
D03*
D28*
Y115518D02*
D03*
Y109018D02*
D03*
Y102518D02*
D03*
X213435D02*
D03*
Y109018D02*
D03*
Y115518D02*
D03*
Y122018D02*
D03*
D29*
X526176Y177568D02*
D03*
Y185568D02*
D03*
Y193568D02*
D03*
Y201568D02*
D03*
Y209568D02*
D03*
Y217568D02*
D03*
Y225568D02*
D03*
Y233568D02*
D03*
X441176D02*
D03*
Y225568D02*
D03*
Y217568D02*
D03*
Y209568D02*
D03*
Y201568D02*
D03*
Y193568D02*
D03*
Y185568D02*
D03*
Y177568D02*
D03*
D30*
X511676Y248068D02*
D03*
X503676D02*
D03*
X495676D02*
D03*
X487676D02*
D03*
X479676D02*
D03*
X471676D02*
D03*
X463676D02*
D03*
X455676D02*
D03*
Y163068D02*
D03*
X463676D02*
D03*
X471676D02*
D03*
X479676D02*
D03*
X487676D02*
D03*
X495676D02*
D03*
X503676D02*
D03*
X511676D02*
D03*
D31*
X585216Y258482D02*
D03*
Y236982D02*
D03*
X566716D02*
D03*
Y258482D02*
D03*
D32*
X71996Y120126D02*
D03*
X117996D02*
D03*
D33*
X94996Y182626D02*
D03*
D34*
X190594Y362614D02*
D03*
X185594D02*
D03*
X180594D02*
D03*
X175594D02*
D03*
X170594D02*
D03*
Y318614D02*
D03*
X175594D02*
D03*
X180594D02*
D03*
X185594D02*
D03*
X190594D02*
D03*
D35*
X247396Y236220D02*
D03*
Y266192D02*
D03*
X47498Y320040D02*
D03*
Y350012D02*
D03*
X137160Y287020D02*
D03*
Y316992D02*
D03*
X132588Y337566D02*
D03*
Y367538D02*
D03*
X530098Y249682D02*
D03*
Y279654D02*
D03*
D36*
X72390Y269210D02*
D03*
Y297210D02*
D03*
D37*
X555230Y180848D02*
D03*
X585230D02*
D03*
X418860Y228092D02*
D03*
X388860D02*
D03*
D38*
X97820Y90678D02*
D03*
X69820D02*
D03*
X116048Y90932D02*
D03*
X144048D02*
D03*
D39*
X184604Y206096D02*
D03*
Y196596D02*
D03*
Y187096D02*
D03*
X209604D02*
D03*
Y206096D02*
D03*
D56*
X305054Y425958D02*
D03*
X220726Y52324D02*
D03*
D57*
X279654Y425958D02*
D03*
X246126Y52324D02*
D03*
D58*
X363512Y416052D02*
D03*
X165932Y405892D02*
D03*
X469354Y31242D02*
D03*
D59*
X388512Y416052D02*
D03*
X413512D02*
D03*
X90932Y405892D02*
D03*
X115932D02*
D03*
X140932D02*
D03*
X394354Y31242D02*
D03*
X419354D02*
D03*
X444354D02*
D03*
D62*
X91078Y41656D02*
D03*
D63*
X116078D02*
D03*
D67*
X185594Y393257D02*
G03*
X185631Y393311I-2283J1621D01*
G01*
X220706Y199664D02*
X241554Y178816D01*
X202182Y199664D02*
X220706D01*
X241554Y178816D02*
X316049D01*
X333321Y161544D01*
X200170Y201676D02*
X202182Y199664D01*
X194970Y206096D02*
X199390Y201676D01*
X200170D01*
X184604Y206096D02*
X194970D01*
X179566Y301652D02*
X183836Y305922D01*
X190526Y310192D02*
Y318546D01*
X186256Y305922D02*
X190526Y310192D01*
X183836Y305922D02*
X186256D01*
X190526Y318546D02*
X190594Y318614D01*
X179566Y300542D02*
Y301652D01*
X173736Y387604D02*
X174205Y387135D01*
Y381547D02*
X180594Y375158D01*
X174205Y381547D02*
Y387135D01*
X180594Y362614D02*
Y375158D01*
X175562Y370332D02*
Y371141D01*
X173174Y373529D02*
X175562Y371141D01*
X163661Y373529D02*
X173174D01*
X175562Y362646D02*
X175594Y362614D01*
X175562Y362646D02*
Y370332D01*
X162324Y374867D02*
X163661Y373529D01*
X185594Y393257D02*
Y393257D01*
Y362614D02*
Y393257D01*
X185631Y393311D02*
X188468Y397510D01*
X172466Y296192D02*
X175216D01*
X169716D02*
X172466D01*
X175216D02*
X179566Y300542D01*
X185526Y318682D02*
X185594Y318614D01*
X185526Y318682D02*
Y329704D01*
X189070Y333248D01*
X195120D02*
X198882Y329486D01*
X189070Y333248D02*
X195120D01*
X198882Y298718D02*
Y329486D01*
X196088Y295924D02*
X198882Y298718D01*
X333321Y161544D02*
X435610D01*
X163218Y302690D02*
X169716Y296192D01*
X455676Y162930D02*
Y163068D01*
X454290Y161544D02*
X455676Y162930D01*
X435610Y161544D02*
X454290D01*
D68*
X450664Y200068D02*
X451366Y199366D01*
X441176Y201568D02*
X448738D01*
X450238Y200068D02*
X450664D01*
X490704Y199366D02*
X497840Y206502D01*
X448738Y201568D02*
X450238Y200068D01*
X451366Y199366D02*
X490704D01*
X203792Y155056D02*
X207772Y159036D01*
X209272Y187096D02*
X209604D01*
X207772Y185596D02*
X209272Y187096D01*
X207772Y159036D02*
Y185596D01*
X223520Y163844D02*
Y176530D01*
X209604Y186995D02*
X211003Y185596D01*
X214454D01*
X223520Y176530D01*
X157872Y155056D02*
X203792D01*
X210552Y141986D02*
Y150876D01*
X94175Y336012D02*
X97171Y333016D01*
X137955Y405892D02*
X140932D01*
X134456Y402392D02*
X137955Y405892D01*
X134168Y402392D02*
X134456D01*
X115570Y383794D02*
X134168Y402392D01*
X222474Y237998D02*
X245364D01*
X218440Y242032D02*
X222474Y237998D01*
X223266Y339240D02*
X223582Y339555D01*
Y351344D01*
X230124Y357886D02*
X244660D01*
X223582Y351344D02*
X230124Y357886D01*
X256584Y369810D02*
X259334D01*
X244660Y357886D02*
X256584Y369810D01*
X252922Y318708D02*
X305054Y370840D01*
Y421640D01*
X212650Y272572D02*
X218440D01*
X209550Y302313D02*
X216766Y309529D01*
X209550Y275672D02*
Y302313D01*
Y275672D02*
X212650Y272572D01*
X215941Y310354D02*
X216766Y309529D01*
X215941Y310354D02*
Y323756D01*
X236266Y316230D02*
Y317946D01*
X237028Y318708D01*
X252922D01*
X175455Y257763D02*
X183642Y249576D01*
X195564Y265987D02*
X195834D01*
X175455Y257763D02*
Y263012D01*
X183642Y249576D02*
X186127D01*
X172212Y266255D02*
X175455Y263012D01*
X191314Y254763D02*
Y261737D01*
X186127Y249576D02*
X191314Y254763D01*
Y261737D02*
X195564Y265987D01*
X195834D02*
X197866Y263955D01*
X120039Y335177D02*
Y344617D01*
X109210Y324348D02*
X120039Y335177D01*
X109210Y316863D02*
Y324348D01*
X125071Y333478D02*
X129159Y337566D01*
X125071Y331475D02*
Y333478D01*
X115414Y321818D02*
X125071Y331475D01*
X120039Y344617D02*
X120142Y344720D01*
Y358521D02*
X129159Y367538D01*
X120142Y344720D02*
Y358521D01*
X394591Y31479D02*
X404097D01*
X471676Y99058D02*
Y163068D01*
X394354Y31242D02*
X394591Y31479D01*
X404097D02*
X471676Y99058D01*
X198067Y341630D02*
X215941Y323756D01*
X168148Y341630D02*
X198067D01*
X152400Y357378D02*
X168148Y341630D01*
X497840Y206502D02*
X499676Y204666D01*
X146812Y166116D02*
Y174214D01*
Y166116D02*
X157872Y155056D01*
X149098Y257895D02*
Y279400D01*
X143764Y249936D02*
Y252561D01*
X149098Y257895D01*
X71379Y372225D02*
X82949Y383794D01*
X115570D01*
X152400Y357378D02*
Y386764D01*
X166024Y400388D01*
X115414Y316567D02*
Y321818D01*
X97171Y328773D02*
X101721Y324224D01*
X97171Y328773D02*
Y333016D01*
X102118Y322534D02*
X102519Y322133D01*
X101721Y323607D02*
Y324224D01*
X102118Y322534D02*
Y323210D01*
X101721Y323607D02*
X102118Y323210D01*
X93980Y336012D02*
X94175D01*
X556006Y212471D02*
X567817Y224282D01*
X574516D01*
X585216Y234982D02*
Y236982D01*
X574516Y224282D02*
X585216Y234982D01*
X526176Y225568D02*
X542909D01*
X556006Y212471D01*
X530098Y235166D02*
Y249682D01*
X528500Y233568D02*
X530098Y235166D01*
X526176Y233568D02*
X528500D01*
X542327Y258482D02*
X566716D01*
X533527Y249682D02*
X542327Y258482D01*
X530098Y249682D02*
X533527D01*
X464250Y248642D02*
Y260034D01*
X471371Y267155D02*
X485087D01*
X464250Y260034D02*
X471371Y267155D01*
X463676Y248068D02*
X464250Y248642D01*
X479676Y91564D02*
Y163068D01*
X419354Y31242D02*
X479676Y91564D01*
X378506Y122474D02*
X391949Y135917D01*
X398807D01*
X378506Y79294D02*
Y122474D01*
X398807Y135917D02*
X400050Y137160D01*
X168658Y188212D02*
X171283D01*
X172399Y187096D02*
X184604D01*
X171283Y188212D02*
X172399Y187096D01*
X162814Y182369D02*
X167894Y187449D01*
Y188976D01*
X162814Y171196D02*
Y182369D01*
Y171196D02*
X166370Y167640D01*
X209282Y143256D02*
X210552Y141986D01*
X179592Y143256D02*
X209282D01*
X139724Y282932D02*
X145566D01*
X149098Y279400D01*
X135636Y287020D02*
X139724Y282932D01*
X71374Y335982D02*
X90789Y316567D01*
X95914D01*
X56134Y323992D02*
X68124Y335982D01*
X56134Y302798D02*
Y323992D01*
X68124Y335982D02*
X71374D01*
X102519Y320231D02*
Y322133D01*
X329932Y30720D02*
X378506Y79294D01*
X179070Y30720D02*
X329932D01*
X210552Y150876D02*
X223520Y163844D01*
X71379Y363987D02*
Y372225D01*
X71374Y363982D02*
X71379Y363987D01*
X56134Y302798D02*
X65024Y293908D01*
X485087Y267155D02*
X498348Y280416D01*
X455676Y263144D02*
X472948Y280416D01*
X455676Y248068D02*
Y263144D01*
X129159Y337566D02*
X132588D01*
X108914Y316567D02*
X109210Y316863D01*
X129159Y367538D02*
X132588D01*
D69*
X216408Y226060D02*
X270070D01*
X281178Y212598D02*
X282355Y213775D01*
X292862Y224282D01*
X270070Y226060D02*
X281178Y214952D01*
Y212598D02*
Y214952D01*
X262666Y208026D02*
X274252D01*
X278824Y212598D01*
X281178D01*
X234666Y204276D02*
Y208026D01*
Y204276D02*
X249428Y189514D01*
Y189230D02*
Y189514D01*
X214630Y224282D02*
X216408Y226060D01*
X219636Y191590D02*
X239536Y171690D01*
X216994Y194232D02*
X217098Y194128D01*
X217274D01*
X219636Y191766D01*
Y191590D02*
Y191766D01*
X200836Y194232D02*
X216994D01*
X239536Y142494D02*
Y171690D01*
X197546Y190942D02*
X200836Y194232D01*
X191893Y196596D02*
X197546Y190942D01*
X197358Y190754D02*
X197546Y190942D01*
X196342Y168910D02*
X197358Y169926D01*
X184604Y196596D02*
X191893D01*
X197358Y169926D02*
Y190754D01*
X246962Y293816D02*
X250782Y289995D01*
X233633Y303172D02*
X239782D01*
X246962Y293816D02*
Y295992D01*
X239782Y303172D02*
X246962Y295992D01*
X253181Y293791D02*
X266700Y307310D01*
X249712Y288798D02*
X250782Y289995D01*
X266700Y307594D02*
Y318008D01*
X427419Y298132D02*
Y324675D01*
X277114Y266192D02*
X292862Y250444D01*
X516890Y331216D02*
X530098Y318008D01*
X580466Y252732D02*
X581466D01*
X229766Y316230D02*
Y339240D01*
X585216Y258482D02*
Y260482D01*
X596646Y219710D02*
Y245052D01*
X572456Y30000D02*
Y36471D01*
X281940Y307594D02*
X292322Y297212D01*
X388239Y258953D02*
X427419Y298132D01*
X452247Y349504D02*
X483362D01*
X498348Y331216D02*
Y334518D01*
X566716Y238982D02*
X580466Y252732D01*
X590066Y216527D02*
X593462D01*
X229766Y316230D02*
X229890Y316106D01*
X229766Y339240D02*
X229890Y339364D01*
X401828Y350266D02*
X427419Y324675D01*
X277114Y266192D02*
X292322Y281400D01*
X247396Y266192D02*
X277114D01*
X292862Y224282D02*
Y250444D01*
X483362Y349504D02*
X498348Y334518D01*
X566044Y279654D02*
X585216Y260482D01*
X566716Y236982D02*
Y238982D01*
X572456Y36471D02*
X585230Y49245D01*
X229890Y306914D02*
X233633Y303172D01*
X427419Y324675D02*
X452247Y349504D01*
X388239Y228713D02*
X388860Y228092D01*
X530098Y279654D02*
X566044D01*
X585216Y256482D02*
Y258482D01*
X585978Y212439D02*
X590066Y216527D01*
X585230Y49245D02*
Y180848D01*
X388456Y202184D02*
Y227688D01*
X585978Y209042D02*
Y212439D01*
X266700Y307594D02*
X281940D01*
X266700Y318008D02*
X298958Y350266D01*
X401828D01*
X388456Y227688D02*
X388860Y228092D01*
X498348Y331216D02*
X516890D01*
X593462Y216527D02*
X596646Y219710D01*
X229890Y306914D02*
Y316106D01*
X292322Y281400D02*
Y297212D01*
X388239Y228713D02*
Y258953D01*
X530098Y279654D02*
Y318008D01*
X585216Y256482D02*
X596646Y245052D01*
X581466Y252732D02*
X585216Y256482D01*
X585230Y180848D02*
Y208294D01*
X270510Y275844D02*
X276860Y282194D01*
X224856Y283314D02*
X232326Y275844D01*
X270510D01*
X90932Y405892D02*
X114300Y429260D01*
X223520D01*
X67818Y405892D02*
X90843D01*
X28702Y366776D02*
X67818Y405892D01*
X103124Y122682D02*
X118872D01*
X130918Y420878D02*
X186272D01*
X205351Y401799D02*
X211592D01*
X203812Y403338D02*
X205351Y401799D01*
X203812Y403338D02*
Y403338D01*
X186272Y420878D02*
X203812Y403338D01*
X86454Y389356D02*
X99082D01*
X114954Y405228D01*
Y405228D01*
X115932Y405892D02*
X130918Y420878D01*
X223520Y429260D02*
X234696Y418084D01*
X276860Y282194D02*
Y291338D01*
X221204Y286064D02*
X223954Y283314D01*
X221204Y286064D02*
Y289814D01*
X223954Y283314D02*
X224856D01*
X234696Y400064D02*
Y418084D01*
X223266Y391384D02*
X231946Y400064D01*
X211603Y401805D02*
X220594Y410796D01*
X211592Y401799D02*
X211603Y401805D01*
X220594Y410796D02*
Y413126D01*
X221742Y414274D01*
X231946Y400064D02*
X234696D01*
X259334Y399810D02*
X259334Y399810D01*
Y407924D01*
X252730Y414528D02*
X252730D01*
X259334Y407924D01*
X217604Y375338D02*
X223266Y381000D01*
Y391384D01*
X210312Y372588D02*
X213062Y375338D01*
X217604D01*
X441176Y225568D02*
X459656D01*
X464498Y220726D01*
X466852D01*
X159766Y78102D02*
X172570Y65298D01*
X159766Y93218D02*
X165100Y98552D01*
X159766Y78102D02*
Y93218D01*
X165100Y116048D02*
X165892Y116840D01*
X165100Y98552D02*
Y116048D01*
X137892Y101088D02*
X144048Y94932D01*
X137892Y101088D02*
Y116840D01*
X144048Y86932D02*
Y94932D01*
Y86932D02*
X150876Y80104D01*
X190301Y108894D02*
X190425Y109018D01*
X181109Y108894D02*
X190301D01*
X176276Y104060D02*
X181109Y108894D01*
X176276Y91694D02*
Y104060D01*
X176183Y91601D02*
X176276Y91694D01*
X176183Y91415D02*
Y91601D01*
X172720Y87952D02*
X176183Y91415D01*
X172720Y85598D02*
Y87952D01*
X150876Y70104D02*
Y80104D01*
X97820Y86678D02*
Y90678D01*
Y86678D02*
X114394Y70104D01*
X150876D01*
X137922Y382183D02*
X138250D01*
X94577Y364177D02*
X96124Y365724D01*
X46736Y349792D02*
Y362204D01*
X233481Y113593D02*
X240552Y120664D01*
X228906Y109018D02*
X233481Y113593D01*
X225056Y122018D02*
X233481Y113593D01*
X213435Y109018D02*
X228906D01*
X190425D02*
X213435D01*
X28702Y169418D02*
Y366776D01*
Y169418D02*
X58166Y139954D01*
X85852D02*
X103124Y122682D01*
X58166Y139954D02*
X85852D01*
X68326Y209296D02*
Y227584D01*
Y209296D02*
X94996Y182626D01*
X213435Y122018D02*
X213435Y122018D01*
X225056D01*
X446267Y33155D02*
X451565D01*
X555230Y136820D01*
Y180848D01*
X444354Y31242D02*
X446267Y33155D01*
X505349Y204666D02*
X508620Y201394D01*
X508903Y201677D02*
X516411Y209185D01*
X508620Y201394D02*
X516064Y193951D01*
X499676Y204666D02*
X504949D01*
X516064Y193951D02*
X525793D01*
X516411Y209185D02*
X525793D01*
X159258Y250748D02*
Y299398D01*
X148064Y239554D02*
X159258Y250748D01*
X87126Y247650D02*
X95222Y239554D01*
X85852Y247650D02*
X87126D01*
X95222Y239554D02*
X148064D01*
X137978Y316992D02*
X140589D01*
X102414Y284024D02*
Y294557D01*
X96700Y278310D02*
X102414Y284024D01*
X73914Y389382D02*
X86428D01*
X86454Y389356D01*
X46736Y362204D02*
X73914Y389382D01*
X141566Y326237D02*
X146558Y331229D01*
X138250Y382183D02*
X146558Y373875D01*
Y331229D02*
Y373875D01*
X137978Y316992D02*
X141566Y320580D01*
Y326237D01*
X137160Y316992D02*
X137978D01*
X93950Y267716D02*
X96700Y270466D01*
X91200Y264966D02*
X93950Y267716D01*
X102519Y325785D02*
X110236Y333502D01*
Y350774D01*
X123216Y382296D02*
X136424D01*
X144177Y312888D02*
Y313404D01*
X96124Y365724D02*
X106645D01*
X123216Y382296D01*
X140589Y316992D02*
X144177Y313404D01*
Y312888D02*
X150855Y306211D01*
X96700Y270466D02*
Y278310D01*
X157734Y27940D02*
X168148Y17526D01*
X157734Y45974D02*
X168730Y56970D01*
X157734Y27940D02*
Y45974D01*
X168730Y56970D02*
X172570D01*
X176320Y60720D01*
X179070D01*
X172570Y64470D02*
X176320Y60720D01*
X172570Y64470D02*
Y65298D01*
X490474Y92665D02*
X496062Y98253D01*
X494030Y107442D02*
X496062Y105410D01*
Y98253D02*
Y105410D01*
X490474Y89916D02*
Y92665D01*
X451612Y94996D02*
X451866Y95250D01*
X435282Y94996D02*
X451612D01*
X416006Y113022D02*
Y114272D01*
Y113022D02*
X418486Y110542D01*
X419736D01*
X435282Y94996D01*
X240552Y141986D02*
X241568Y143002D01*
X267970D01*
X240552Y120664D02*
Y141986D01*
X469206Y220726D02*
X472364Y217568D01*
X526176D01*
X466852Y220726D02*
X469206D01*
X102519Y322133D02*
Y325785D01*
Y316672D02*
Y320231D01*
X168148Y17526D02*
X432777D01*
X444354Y29103D01*
X85852Y247650D02*
Y250004D01*
X91200Y255352D02*
Y264966D01*
X85852Y250004D02*
X91200Y255352D01*
X525793Y193951D02*
X526176Y193568D01*
X525793Y209185D02*
X526176Y209568D01*
X444354Y29103D02*
Y31242D01*
X213435Y85015D02*
Y102518D01*
Y85015D02*
X246126Y52324D01*
X190425Y82625D02*
Y102518D01*
Y82625D02*
X220726Y52324D01*
X102414Y316567D02*
X102519Y316672D01*
D70*
X191268Y121175D02*
X199576D01*
X204390Y116361D02*
X204441D01*
X199576Y121175D02*
X204390Y116361D01*
X204441D02*
X204892Y115910D01*
X213043D01*
X181019Y131424D02*
X191268Y121175D01*
X154042Y133902D02*
X156520Y131424D01*
X154042Y133902D02*
Y138806D01*
X149592Y143256D02*
X154042Y138806D01*
X156520Y131424D02*
X181019D01*
X213043Y115910D02*
X213435Y115518D01*
D71*
X472948Y280416D02*
D03*
D72*
X498348D02*
D03*
X472948Y305816D02*
D03*
X498348D02*
D03*
X472948Y331216D02*
D03*
X498348D02*
D03*
D73*
X249428Y189230D02*
D03*
X68326Y227584D02*
D03*
X183642Y249576D02*
D03*
X136906Y268288D02*
D03*
X143764Y249936D02*
D03*
X490474Y89916D02*
D03*
X451866Y95250D02*
D03*
X267970Y143002D02*
D03*
X281178Y212598D02*
D03*
X266700Y307594D02*
D03*
X400050Y137160D02*
D03*
X167894Y188976D02*
D03*
X110236Y350774D02*
D03*
X162324Y374867D02*
D03*
X188468Y397510D02*
D03*
X173482Y390144D02*
D03*
X156464Y304546D02*
D03*
X85852Y247650D02*
D03*
X497840Y206502D02*
D03*
X452628Y285750D02*
D03*
X466852Y220726D02*
D03*
X477266Y188722D02*
D03*
X435610Y161544D02*
D03*
X172720Y85598D02*
D03*
X150876Y70104D02*
D03*
X137922Y383794D02*
D03*
X276860Y291338D02*
D03*
D74*
X34544Y417322D02*
D03*
X572456Y420000D02*
D03*
X30000Y30000D02*
D03*
X572456D02*
D03*
D75*
X221742Y414274D02*
D03*
X252730Y414528D02*
D03*
M02*
